<mxfile host="www.draw.io" modified="2019-12-06T08:49:54.841Z" agent="Mozilla/5.0 (Macintosh; Intel Mac OS X 10_15_1) AppleWebKit/537.36 (KHTML, like Gecko) Chrome/78.0.3904.108 Safari/537.36" etag="ihC54s1tARsy7srejivk" version="12.3.7" type="github" pages="1">
  <diagram id="fgXLbrPsbGuKcn-YeZOQ" name="Page-1">
    <mxGraphModel dx="2620" dy="1400" grid="1" gridSize="10" guides="1" tooltips="1" connect="1" arrows="1" fold="1" page="1" pageScale="1" pageWidth="850" pageHeight="600" math="0" shadow="0">
      <root>
        <mxCell id="0"/>
        <mxCell id="1" parent="0"/>
        <UserObject label="%shortname%&lt;br&gt;&lt;i style=&quot;color: gray&quot;&gt;%name%&lt;/i&gt;&lt;br&gt;&amp;lt;%driver%&amp;gt;" shortname="OSAT.08.03" name="Fin VSAT" driver="-" placeholders="1" id="zm_CAH_QlIw9lvDRXDZG-2021">
          <mxCell style="label;iwhiteSpace=wrap;html=1;rounded=1" vertex="1" parent="1">
            <mxGeometry x="835" y="1410" width="130" height="40" as="geometry"/>
          </mxCell>
        </UserObject>
        <UserObject label="%shortname%&lt;br&gt;&lt;i style=&quot;color: gray&quot;&gt;%name%&lt;/i&gt;&lt;br&gt;&amp;lt;%driver%&amp;gt;" shortname="OA.RE.09.01.07.05.03" name="Financing PE ASTINET" driver="-" placeholders="1" id="zm_CAH_QlIw9lvDRXDZG-2022">
          <mxCell style="label;iwhiteSpace=wrap;html=1;rounded=1" vertex="1" parent="1">
            <mxGeometry x="1210" y="785" width="190" height="40" as="geometry"/>
          </mxCell>
        </UserObject>
        <UserObject label="%shortname%&lt;br&gt;&lt;i style=&quot;color: gray&quot;&gt;%name%&lt;/i&gt;&lt;br&gt;&amp;lt;%driver%&amp;gt;" shortname="OA.RE.09.01.07.08.03" name="Financing Cache Engine" driver="-" placeholders="1" id="zm_CAH_QlIw9lvDRXDZG-2023">
          <mxCell style="label;iwhiteSpace=wrap;html=1;rounded=1" vertex="1" parent="1">
            <mxGeometry x="1205" y="855" width="200" height="40" as="geometry"/>
          </mxCell>
        </UserObject>
        <UserObject label="%shortname%&lt;br&gt;&lt;i style=&quot;color: gray&quot;&gt;%name%&lt;/i&gt;&lt;br&gt;&amp;lt;%driver%&amp;gt;" shortname="OPRODNAS.02.06.08" name="Cost Of Capital of Manage Cpacity Network" driver="-" placeholders="1" id="zm_CAH_QlIw9lvDRXDZG-2024">
          <mxCell style="label;iwhiteSpace=wrap;html=1;rounded=1" vertex="1" parent="1">
            <mxGeometry x="2840" y="1225" width="310" height="40" as="geometry"/>
          </mxCell>
        </UserObject>
        <UserObject label="%shortname%&lt;br&gt;&lt;i style=&quot;color: gray&quot;&gt;%name%&lt;/i&gt;&lt;br&gt;&amp;lt;%driver%&amp;gt;" shortname="OBSC.01.01.10.01.03" name="Financing Jar Akses fo" driver="BW Cap FO" placeholders="1" id="zm_CAH_QlIw9lvDRXDZG-2025">
          <mxCell style="label;iwhiteSpace=wrap;html=1;rounded=1" vertex="1" parent="1">
            <mxGeometry x="1995" y="2045" width="190" height="40" as="geometry"/>
          </mxCell>
        </UserObject>
        <UserObject label="%shortname%&lt;br&gt;&lt;i style=&quot;color: gray&quot;&gt;%name%&lt;/i&gt;&lt;br&gt;&amp;lt;%driver%&amp;gt;" shortname="OA.RE.09.01.07.16.03" name="Financing SECUNDARY POP" driver="-" placeholders="1" id="zm_CAH_QlIw9lvDRXDZG-2026">
          <mxCell style="label;iwhiteSpace=wrap;html=1;rounded=1" vertex="1" parent="1">
            <mxGeometry x="1190" y="1275" width="230" height="40" as="geometry"/>
          </mxCell>
        </UserObject>
        <UserObject label="%shortname%&lt;br&gt;&lt;i style=&quot;color: gray&quot;&gt;%name%&lt;/i&gt;&lt;br&gt;&amp;lt;%driver%&amp;gt;" shortname="OBSC.01.01.03.03" name="FIN COST IN" driver="-" placeholders="1" id="zm_CAH_QlIw9lvDRXDZG-2027">
          <mxCell style="label;iwhiteSpace=wrap;html=1;rounded=1" vertex="1" parent="1">
            <mxGeometry x="1625" y="1195" width="160" height="40" as="geometry"/>
          </mxCell>
        </UserObject>
        <UserObject label="%shortname%&lt;br&gt;&lt;i style=&quot;color: gray&quot;&gt;%name%&lt;/i&gt;&lt;br&gt;&amp;lt;%driver%&amp;gt;" shortname="OA.RE.05.02.01.01.03" name="Cost Of Capital IMS_IN" driver="-" placeholders="1" id="zm_CAH_QlIw9lvDRXDZG-2028">
          <mxCell style="label;iwhiteSpace=wrap;html=1;rounded=1" vertex="1" parent="1">
            <mxGeometry x="1210" y="2345" width="190" height="40" as="geometry"/>
          </mxCell>
        </UserObject>
        <UserObject label="%shortname%&lt;br&gt;&lt;i style=&quot;color: gray&quot;&gt;%name%&lt;/i&gt;&lt;br&gt;&amp;lt;%driver%&amp;gt;" shortname="OA.RE.09.01.08.05.03" name="Financing RAS" driver="-" placeholders="1" id="zm_CAH_QlIw9lvDRXDZG-2029">
          <mxCell style="label;iwhiteSpace=wrap;html=1;rounded=1" vertex="1" parent="1">
            <mxGeometry x="810" y="430" width="180" height="40" as="geometry"/>
          </mxCell>
        </UserObject>
        <UserObject label="%shortname%&lt;br&gt;&lt;i style=&quot;color: gray&quot;&gt;%name%&lt;/i&gt;&lt;br&gt;&amp;lt;%driver%&amp;gt;" shortname="OA.RE.09.01.08.01.03" name="Fin Cost Data Center" driver="-" placeholders="1" id="zm_CAH_QlIw9lvDRXDZG-2030">
          <mxCell style="label;iwhiteSpace=wrap;html=1;rounded=1" vertex="1" parent="1">
            <mxGeometry x="810" y="1480" width="180" height="40" as="geometry"/>
          </mxCell>
        </UserObject>
        <UserObject label="%shortname%&lt;br&gt;&lt;i style=&quot;color: gray&quot;&gt;%name%&lt;/i&gt;&lt;br&gt;&amp;lt;%driver%&amp;gt;" shortname="OPRODRE3.02.02.06" name="Pend/Financing BW Per 1 Mbps METRO RE3" driver="-" placeholders="1" id="zm_CAH_QlIw9lvDRXDZG-2031">
          <mxCell style="label;iwhiteSpace=wrap;html=1;rounded=1" vertex="1" parent="1">
            <mxGeometry x="2380" y="1645" width="310" height="40" as="geometry"/>
          </mxCell>
        </UserObject>
        <UserObject label="%shortname%&lt;br&gt;&lt;i style=&quot;color: gray&quot;&gt;%name%&lt;/i&gt;&lt;br&gt;&amp;lt;%driver%&amp;gt;" shortname="OA.RE.05.02.01.04.03" name="Cost Of Capital TGW" driver="-" placeholders="1" id="zm_CAH_QlIw9lvDRXDZG-2032">
          <mxCell style="label;iwhiteSpace=wrap;html=1;rounded=1" vertex="1" parent="1">
            <mxGeometry x="1215" y="1065" width="180" height="40" as="geometry"/>
          </mxCell>
        </UserObject>
        <UserObject label="%shortname%&lt;br&gt;&lt;i style=&quot;color: gray&quot;&gt;%name%&lt;/i&gt;&lt;br&gt;&amp;lt;%driver%&amp;gt;" shortname="OA.RE.09.01.05.03.03" name="Financing Cost Jaringan Akses Fiber" driver="CAPACITY" placeholders="1" id="zm_CAH_QlIw9lvDRXDZG-2033">
          <mxCell style="label;iwhiteSpace=wrap;html=1;rounded=1" vertex="1" parent="1">
            <mxGeometry x="1570" y="1385" width="270" height="40" as="geometry"/>
          </mxCell>
        </UserObject>
        <UserObject label="%shortname%&lt;br&gt;&lt;i style=&quot;color: gray&quot;&gt;%name%&lt;/i&gt;&lt;br&gt;&amp;lt;%driver%&amp;gt;" shortname="OBSC.01.01.01.05" name="FIN COST AKSES TEMBAGA Idle" driver="-" placeholders="1" id="zm_CAH_QlIw9lvDRXDZG-2034">
          <mxCell style="label;iwhiteSpace=wrap;html=1;rounded=1" vertex="1" parent="1">
            <mxGeometry x="1180" y="485" width="250" height="40" as="geometry"/>
          </mxCell>
        </UserObject>
        <UserObject label="%shortname%&lt;br&gt;&lt;i style=&quot;color: gray&quot;&gt;%name%&lt;/i&gt;&lt;br&gt;&amp;lt;%driver%&amp;gt;" shortname="OA.RE.05.02.01.07.03" name="Cost of Capital Softswitch" driver="-" placeholders="1" id="zm_CAH_QlIw9lvDRXDZG-2035">
          <mxCell style="label;iwhiteSpace=wrap;html=1;rounded=1" vertex="1" parent="1">
            <mxGeometry x="1200" y="2695" width="210" height="40" as="geometry"/>
          </mxCell>
        </UserObject>
        <UserObject label="%shortname%&lt;br&gt;&lt;i style=&quot;color: gray&quot;&gt;%name%&lt;/i&gt;&lt;br&gt;&amp;lt;%driver%&amp;gt;" shortname="OPRODRE2.01.01.06" name="CoC SL Per 1 Mbps RE2" driver="BW SL" placeholders="1" id="zm_CAH_QlIw9lvDRXDZG-2036">
          <mxCell style="label;iwhiteSpace=wrap;html=1;rounded=1" vertex="1" parent="1">
            <mxGeometry x="2435" y="1085" width="200" height="40" as="geometry"/>
          </mxCell>
        </UserObject>
        <UserObject label="%shortname%&lt;br&gt;&lt;i style=&quot;color: gray&quot;&gt;%name%&lt;/i&gt;&lt;br&gt;&amp;lt;%driver%&amp;gt;" shortname="OA.RE.05.02.01.10.03" name="Financing CE SS" driver="-" placeholders="1" id="zm_CAH_QlIw9lvDRXDZG-2037">
          <mxCell style="label;iwhiteSpace=wrap;html=1;rounded=1" vertex="1" parent="1">
            <mxGeometry x="1215" y="2555" width="180" height="40" as="geometry"/>
          </mxCell>
        </UserObject>
        <UserObject label="%shortname%&lt;br&gt;&lt;i style=&quot;color: gray&quot;&gt;%name%&lt;/i&gt;&lt;br&gt;&amp;lt;%driver%&amp;gt;" shortname="OPRODRE6.01.01.06" name="CoC SL Per 1 Mbps RE6" driver="BW SL" placeholders="1" id="zm_CAH_QlIw9lvDRXDZG-2038">
          <mxCell style="label;iwhiteSpace=wrap;html=1;rounded=1" vertex="1" parent="1">
            <mxGeometry x="2435" y="1365" width="200" height="40" as="geometry"/>
          </mxCell>
        </UserObject>
        <UserObject label="%shortname%&lt;br&gt;&lt;i style=&quot;color: gray&quot;&gt;%name%&lt;/i&gt;&lt;br&gt;&amp;lt;%driver%&amp;gt;" shortname="OA.RE.09.01.10.02" name="Fin Infrastruktur IPTV" driver="-" placeholders="1" id="zm_CAH_QlIw9lvDRXDZG-2039">
          <mxCell style="label;iwhiteSpace=wrap;html=1;rounded=1" vertex="1" parent="1">
            <mxGeometry x="810" y="1550" width="180" height="40" as="geometry"/>
          </mxCell>
        </UserObject>
        <UserObject label="%shortname%&lt;br&gt;&lt;i style=&quot;color: gray&quot;&gt;%name%&lt;/i&gt;&lt;br&gt;&amp;lt;%driver%&amp;gt;" shortname="OA.RE.05.02.01.08.03" name="Cost of Capital IP Multimedia Subsyatem" driver="-" placeholders="1" id="zm_CAH_QlIw9lvDRXDZG-2040">
          <mxCell style="label;iwhiteSpace=wrap;html=1;rounded=1" vertex="1" parent="1">
            <mxGeometry x="1160" y="1135" width="290" height="40" as="geometry"/>
          </mxCell>
        </UserObject>
        <UserObject label="%shortname%&lt;br&gt;&lt;i style=&quot;color: gray&quot;&gt;%name%&lt;/i&gt;&lt;br&gt;&amp;lt;%driver%&amp;gt;" shortname="OA.RE.09.01.08.04.03" name="Financing Terminal Pelanggan Ast.IPtx.Wif" driver="-" placeholders="1" id="zm_CAH_QlIw9lvDRXDZG-2041">
          <mxCell style="label;iwhiteSpace=wrap;html=1;rounded=1" vertex="1" parent="1">
            <mxGeometry x="750" y="500" width="300" height="40" as="geometry"/>
          </mxCell>
        </UserObject>
        <UserObject label="%shortname%&lt;br&gt;&lt;i style=&quot;color: gray&quot;&gt;%name%&lt;/i&gt;&lt;br&gt;&amp;lt;%driver%&amp;gt;" shortname="OA.RE.09.01.09.03" name="Fin Cost Alkur Terr" driver="EVENLY_ASSIGNED" placeholders="1" id="zm_CAH_QlIw9lvDRXDZG-2042">
          <mxCell style="label;iwhiteSpace=wrap;html=1;rounded=1" vertex="1" parent="1">
            <mxGeometry x="805" y="1010" width="190" height="40" as="geometry"/>
          </mxCell>
        </UserObject>
        <UserObject label="%shortname%&lt;br&gt;&lt;i style=&quot;color: gray&quot;&gt;%name%&lt;/i&gt;&lt;br&gt;&amp;lt;%driver%&amp;gt;" shortname="OSAT.07.03" name="Fin IDR" driver="-" placeholders="1" id="zm_CAH_QlIw9lvDRXDZG-2043">
          <mxCell style="label;iwhiteSpace=wrap;html=1;rounded=1" vertex="1" parent="1">
            <mxGeometry x="835" y="1650" width="130" height="40" as="geometry"/>
          </mxCell>
        </UserObject>
        <UserObject label="%shortname%&lt;br&gt;&lt;i style=&quot;color: gray&quot;&gt;%name%&lt;/i&gt;&lt;br&gt;&amp;lt;%driver%&amp;gt;" shortname="OBSC.01.02.02.06" name="Fin Cost RMJ Idle" driver="-" placeholders="1" id="zm_CAH_QlIw9lvDRXDZG-2044">
          <mxCell style="label;iwhiteSpace=wrap;html=1;rounded=1" vertex="1" parent="1">
            <mxGeometry x="2010" y="1975" width="160" height="40" as="geometry"/>
          </mxCell>
        </UserObject>
        <UserObject label="%shortname%&lt;br&gt;&lt;i style=&quot;color: gray&quot;&gt;%name%&lt;/i&gt;&lt;br&gt;&amp;lt;%driver%&amp;gt;" shortname="OBSC.01.01.07.03" name="Fin Cost SLJJ" driver="-" placeholders="1" id="zm_CAH_QlIw9lvDRXDZG-2045">
          <mxCell style="label;iwhiteSpace=wrap;html=1;rounded=1" vertex="1" parent="1">
            <mxGeometry x="2010" y="1765" width="160" height="40" as="geometry"/>
          </mxCell>
        </UserObject>
        <UserObject label="%shortname%&lt;br&gt;&lt;i style=&quot;color: gray&quot;&gt;%name%&lt;/i&gt;&lt;br&gt;&amp;lt;%driver%&amp;gt;" shortname="OA.RE.05.02.03.03" name="Fin JSN" driver="EVENLY_ASSIGNED" placeholders="1" id="zm_CAH_QlIw9lvDRXDZG-2046">
          <mxCell style="label;iwhiteSpace=wrap;html=1;rounded=1" vertex="1" parent="1">
            <mxGeometry x="805" y="2220" width="190" height="40" as="geometry"/>
          </mxCell>
        </UserObject>
        <UserObject label="%shortname%&lt;br&gt;&lt;i style=&quot;color: gray&quot;&gt;%name%&lt;/i&gt;&lt;br&gt;&amp;lt;%driver%&amp;gt;" shortname="OPRODNAS.02.04.10.01.05" name="Financing Wifi" driver="-" placeholders="1" id="zm_CAH_QlIw9lvDRXDZG-2047">
          <mxCell style="label;iwhiteSpace=wrap;html=1;rounded=1" vertex="1" parent="1">
            <mxGeometry x="2430" y="2345" width="210" height="40" as="geometry"/>
          </mxCell>
        </UserObject>
        <UserObject label="%shortname%&lt;br&gt;&lt;i style=&quot;color: gray&quot;&gt;%name%&lt;/i&gt;&lt;br&gt;&amp;lt;%driver%&amp;gt;" shortname="OA.RE.05.02.01.09.03" name="Cost of Capital System Border Control" driver="-" placeholders="1" id="zm_CAH_QlIw9lvDRXDZG-2048">
          <mxCell style="label;iwhiteSpace=wrap;html=1;rounded=1" vertex="1" parent="1">
            <mxGeometry x="1165" y="1205" width="280" height="40" as="geometry"/>
          </mxCell>
        </UserObject>
        <UserObject label="%shortname%&lt;br&gt;&lt;i style=&quot;color: gray&quot;&gt;%name%&lt;/i&gt;&lt;br&gt;&amp;lt;%driver%&amp;gt;" shortname="OINT.01.03.02" name="Cost Of Capital C2C" driver="-" placeholders="1" id="zm_CAH_QlIw9lvDRXDZG-2049">
          <mxCell style="label;iwhiteSpace=wrap;html=1;rounded=1" vertex="1" parent="1">
            <mxGeometry x="810" y="1750" width="180" height="40" as="geometry"/>
          </mxCell>
        </UserObject>
        <UserObject label="%shortname%&lt;br&gt;&lt;i style=&quot;color: gray&quot;&gt;%name%&lt;/i&gt;&lt;br&gt;&amp;lt;%driver%&amp;gt;" shortname="OA.RE.09.01.08.10.03" name="Financing Terminal Pelanggan HSI" driver="-" placeholders="1" id="zm_CAH_QlIw9lvDRXDZG-2050">
          <mxCell style="label;iwhiteSpace=wrap;html=1;rounded=1" vertex="1" parent="1">
            <mxGeometry x="770" y="940" width="260" height="40" as="geometry"/>
          </mxCell>
        </UserObject>
        <UserObject label="%shortname%&lt;br&gt;&lt;i style=&quot;color: gray&quot;&gt;%name%&lt;/i&gt;&lt;br&gt;&amp;lt;%driver%&amp;gt;" shortname="OA.RE.09.01.07.03.03" name="Financing PE HSI" driver="-" placeholders="1" id="zm_CAH_QlIw9lvDRXDZG-2051">
          <mxCell style="label;iwhiteSpace=wrap;html=1;rounded=1" vertex="1" parent="1">
            <mxGeometry x="1215" y="1445" width="180" height="40" as="geometry"/>
          </mxCell>
        </UserObject>
        <UserObject label="%shortname%&lt;br&gt;&lt;i style=&quot;color: gray&quot;&gt;%name%&lt;/i&gt;&lt;br&gt;&amp;lt;%driver%&amp;gt;" shortname="OA.RE.09.01.07.04.03" name="Financing PE VPN" driver="-" placeholders="1" id="zm_CAH_QlIw9lvDRXDZG-2052">
          <mxCell style="label;iwhiteSpace=wrap;html=1;rounded=1" vertex="1" parent="1">
            <mxGeometry x="1215" y="1615" width="180" height="40" as="geometry"/>
          </mxCell>
        </UserObject>
        <UserObject label="%shortname%&lt;br&gt;&lt;i style=&quot;color: gray&quot;&gt;%name%&lt;/i&gt;&lt;br&gt;&amp;lt;%driver%&amp;gt;" shortname="OSAT.04.03" name="Cost Of Capital Tv Uplink" driver="-" placeholders="1" id="zm_CAH_QlIw9lvDRXDZG-2053">
          <mxCell style="label;iwhiteSpace=wrap;html=1;rounded=1" vertex="1" parent="1">
            <mxGeometry x="795" y="1820" width="210" height="40" as="geometry"/>
          </mxCell>
        </UserObject>
        <UserObject label="%shortname%&lt;br&gt;&lt;i style=&quot;color: gray&quot;&gt;%name%&lt;/i&gt;&lt;br&gt;&amp;lt;%driver%&amp;gt;" shortname="OPRODNAS.02.04.08.01.07" name="Pend/Financing VPN IP BULANAN" driver="-" placeholders="1" id="zm_CAH_QlIw9lvDRXDZG-2054">
          <mxCell style="label;iwhiteSpace=wrap;html=1;rounded=1" vertex="1" parent="1">
            <mxGeometry x="2405" y="2065" width="260" height="40" as="geometry"/>
          </mxCell>
        </UserObject>
        <UserObject label="%shortname%&lt;br&gt;&lt;i style=&quot;color: gray&quot;&gt;%name%&lt;/i&gt;&lt;br&gt;&amp;lt;%driver%&amp;gt;" shortname="OA.RE.09.01.07.12.02.03" name="Financing Cost Metro E Infrastructure" driver="-" placeholders="1" id="zm_CAH_QlIw9lvDRXDZG-2055">
          <mxCell style="label;iwhiteSpace=wrap;html=1;rounded=1" vertex="1" parent="1">
            <mxGeometry x="1950" y="1905" width="280" height="40" as="geometry"/>
          </mxCell>
        </UserObject>
        <UserObject label="%shortname%&lt;br&gt;&lt;i style=&quot;color: gray&quot;&gt;%name%&lt;/i&gt;&lt;br&gt;&amp;lt;%driver%&amp;gt;" shortname="NS.01.03" name="Financing Cost Back Bone" driver="CAPACITY" placeholders="1" id="zm_CAH_QlIw9lvDRXDZG-2056">
          <mxCell style="label;iwhiteSpace=wrap;html=1;rounded=1" vertex="1" parent="1">
            <mxGeometry x="1600" y="1935" width="210" height="40" as="geometry"/>
          </mxCell>
        </UserObject>
        <UserObject label="%shortname%&lt;br&gt;&lt;i style=&quot;color: gray&quot;&gt;%name%&lt;/i&gt;&lt;br&gt;&amp;lt;%driver%&amp;gt;" shortname="OA.RE.09.01.07.12.03.03" name="Financing Cost Metro E Akses" driver="-" placeholders="1" id="zm_CAH_QlIw9lvDRXDZG-2057">
          <mxCell style="label;iwhiteSpace=wrap;html=1;rounded=1" vertex="1" parent="1">
            <mxGeometry x="1190" y="2765" width="230" height="40" as="geometry"/>
          </mxCell>
        </UserObject>
        <UserObject label="%shortname%&lt;br&gt;&lt;i style=&quot;color: gray&quot;&gt;%name%&lt;/i&gt;&lt;br&gt;&amp;lt;%driver%&amp;gt;" shortname="OSAT.01.01.03" name="Cost Of Capital Ground Segment Satelite" driver="-" placeholders="1" id="zm_CAH_QlIw9lvDRXDZG-2058">
          <mxCell style="label;iwhiteSpace=wrap;html=1;rounded=1" vertex="1" parent="1">
            <mxGeometry x="755" y="1890" width="290" height="40" as="geometry"/>
          </mxCell>
        </UserObject>
        <UserObject label="%shortname%&lt;br&gt;&lt;i style=&quot;color: gray&quot;&gt;%name%&lt;/i&gt;&lt;br&gt;&amp;lt;%driver%&amp;gt;" shortname="OA.RE.09.01.08.03.03" name="Financing Frame Relay" driver="-" placeholders="1" id="zm_CAH_QlIw9lvDRXDZG-2059">
          <mxCell style="label;iwhiteSpace=wrap;html=1;rounded=1" vertex="1" parent="1">
            <mxGeometry x="805" y="570" width="190" height="40" as="geometry"/>
          </mxCell>
        </UserObject>
        <UserObject label="%shortname%&lt;br&gt;&lt;i style=&quot;color: gray&quot;&gt;%name%&lt;/i&gt;&lt;br&gt;&amp;lt;%driver%&amp;gt;" shortname="OSAT.02.02" name="Cost Of Capital Space Craft" driver="-" placeholders="1" id="zm_CAH_QlIw9lvDRXDZG-2060">
          <mxCell style="label;iwhiteSpace=wrap;html=1;rounded=1" vertex="1" parent="1">
            <mxGeometry x="790" y="1960" width="220" height="40" as="geometry"/>
          </mxCell>
        </UserObject>
        <UserObject label="%shortname%&lt;br&gt;&lt;i style=&quot;color: gray&quot;&gt;%name%&lt;/i&gt;&lt;br&gt;&amp;lt;%driver%&amp;gt;" shortname="OA.RE.09.01.07.12.03.05" name="Fin Metro E Akses Port" driver="-" placeholders="1" id="zm_CAH_QlIw9lvDRXDZG-2061">
          <mxCell style="label;iwhiteSpace=wrap;html=1;rounded=1" vertex="1" parent="1">
            <mxGeometry x="1205" y="2035" width="200" height="40" as="geometry"/>
          </mxCell>
        </UserObject>
        <UserObject label="%shortname%&lt;br&gt;&lt;i style=&quot;color: gray&quot;&gt;%name%&lt;/i&gt;&lt;br&gt;&amp;lt;%driver%&amp;gt;" shortname="OA.RE.09.01.07.06.03" name="Financing DNS" driver="-" placeholders="1" id="zm_CAH_QlIw9lvDRXDZG-2062">
          <mxCell style="label;iwhiteSpace=wrap;html=1;rounded=1" vertex="1" parent="1">
            <mxGeometry x="1215" y="1515" width="180" height="40" as="geometry"/>
          </mxCell>
        </UserObject>
        <UserObject label="%shortname%&lt;br&gt;&lt;i style=&quot;color: gray&quot;&gt;%name%&lt;/i&gt;&lt;br&gt;&amp;lt;%driver%&amp;gt;" shortname="OA.RE.05.02.01.03.03" name="Cost Of Capital SENTRAL LOKAL TDM" driver="-" placeholders="1" id="zm_CAH_QlIw9lvDRXDZG-2063">
          <mxCell style="label;iwhiteSpace=wrap;html=1;rounded=1" vertex="1" parent="1">
            <mxGeometry x="1165" y="995" width="280" height="40" as="geometry"/>
          </mxCell>
        </UserObject>
        <UserObject label="%shortname%&lt;br&gt;&lt;i style=&quot;color: gray&quot;&gt;%name%&lt;/i&gt;&lt;br&gt;&amp;lt;%driver%&amp;gt;" shortname="OBSC.01.02.03.03" name="FIN COST SL Internal" driver="-" placeholders="1" id="zm_CAH_QlIw9lvDRXDZG-2064">
          <mxCell style="label;iwhiteSpace=wrap;html=1;rounded=1" vertex="1" parent="1">
            <mxGeometry x="2000" y="1485" width="180" height="40" as="geometry"/>
          </mxCell>
        </UserObject>
        <UserObject label="%shortname%&lt;br&gt;&lt;i style=&quot;color: gray&quot;&gt;%name%&lt;/i&gt;&lt;br&gt;&amp;lt;%driver%&amp;gt;" shortname="OA.RE.09.01.07.07.03" name="Financing Redirector" driver="-" placeholders="1" id="zm_CAH_QlIw9lvDRXDZG-2065">
          <mxCell style="label;iwhiteSpace=wrap;html=1;rounded=1" vertex="1" parent="1">
            <mxGeometry x="1215" y="1825" width="180" height="40" as="geometry"/>
          </mxCell>
        </UserObject>
        <UserObject label="%shortname%&lt;br&gt;&lt;i style=&quot;color: gray&quot;&gt;%name%&lt;/i&gt;&lt;br&gt;&amp;lt;%driver%&amp;gt;" shortname="OA.RE.05.02.01.06.03" name="Cost of Capital NMS" driver="Akumulasi_Penyusutan" placeholders="1" id="zm_CAH_QlIw9lvDRXDZG-2066">
          <mxCell style="label;iwhiteSpace=wrap;html=1;rounded=1" vertex="1" parent="1">
            <mxGeometry x="1200" y="715" width="210" height="40" as="geometry"/>
          </mxCell>
        </UserObject>
        <UserObject label="%shortname%&lt;br&gt;&lt;i style=&quot;color: gray&quot;&gt;%name%&lt;/i&gt;&lt;br&gt;&amp;lt;%driver%&amp;gt;" shortname="OPRODRE7.01.01.06" name="CoC SL Per 1 Mbps RE7" driver="BW SL" placeholders="1" id="zm_CAH_QlIw9lvDRXDZG-2067">
          <mxCell style="label;iwhiteSpace=wrap;html=1;rounded=1" vertex="1" parent="1">
            <mxGeometry x="2435" y="1435" width="200" height="40" as="geometry"/>
          </mxCell>
        </UserObject>
        <UserObject label="%shortname%&lt;br&gt;&lt;i style=&quot;color: gray&quot;&gt;%name%&lt;/i&gt;&lt;br&gt;&amp;lt;%driver%&amp;gt;" shortname="OSAT.01.04.03" name="Cost Of Capital SCE &amp; TTAC TELKOM" driver="-" placeholders="1" id="zm_CAH_QlIw9lvDRXDZG-2068">
          <mxCell style="label;iwhiteSpace=wrap;html=1;rounded=1" vertex="1" parent="1">
            <mxGeometry x="760" y="2030" width="280" height="40" as="geometry"/>
          </mxCell>
        </UserObject>
        <UserObject label="%shortname%&lt;br&gt;&lt;i style=&quot;color: gray&quot;&gt;%name%&lt;/i&gt;&lt;br&gt;&amp;lt;%driver%&amp;gt;" shortname="OA.RE.09.01.07.17.03" name="Financing WAG WIFI" driver="-" placeholders="1" id="zm_CAH_QlIw9lvDRXDZG-2069">
          <mxCell style="label;iwhiteSpace=wrap;html=1;rounded=1" vertex="1" parent="1">
            <mxGeometry x="1215" y="1755" width="180" height="40" as="geometry"/>
          </mxCell>
        </UserObject>
        <UserObject label="%shortname%&lt;br&gt;&lt;i style=&quot;color: gray&quot;&gt;%name%&lt;/i&gt;&lt;br&gt;&amp;lt;%driver%&amp;gt;" shortname="OPRODRE1.01.01.06" name="CoC SL Per 1 Mbps RE1" driver="BW SL" placeholders="1" id="zm_CAH_QlIw9lvDRXDZG-2070">
          <mxCell style="label;iwhiteSpace=wrap;html=1;rounded=1" vertex="1" parent="1">
            <mxGeometry x="2435" y="1505" width="200" height="40" as="geometry"/>
          </mxCell>
        </UserObject>
        <UserObject label="%shortname%&lt;br&gt;&lt;i style=&quot;color: gray&quot;&gt;%name%&lt;/i&gt;&lt;br&gt;&amp;lt;%driver%&amp;gt;" shortname="1000RE1-06.02" name="Beban Pendanaan Sumatera" driver="NILAI BUKU SUMA" placeholders="1" id="zm_CAH_QlIw9lvDRXDZG-2071">
          <mxCell style="label;iwhiteSpace=wrap;html=1;rounded=1" vertex="1" parent="1">
            <mxGeometry y="1665" width="220" height="40" as="geometry"/>
          </mxCell>
        </UserObject>
        <UserObject label="%shortname%&lt;br&gt;&lt;i style=&quot;color: gray&quot;&gt;%name%&lt;/i&gt;&lt;br&gt;&amp;lt;%driver%&amp;gt;" shortname="OBSC.01.01.08.05" name="FIN COST LOKAL Idle" driver="-" placeholders="1" id="zm_CAH_QlIw9lvDRXDZG-2072">
          <mxCell style="label;iwhiteSpace=wrap;html=1;rounded=1" vertex="1" parent="1">
            <mxGeometry x="1995" y="1555" width="190" height="40" as="geometry"/>
          </mxCell>
        </UserObject>
        <UserObject label="%shortname%&lt;br&gt;&lt;i style=&quot;color: gray&quot;&gt;%name%&lt;/i&gt;&lt;br&gt;&amp;lt;%driver%&amp;gt;" shortname="OA.RE.09.01.07.04.05" name="Fin Port VPN" driver="-" placeholders="1" id="zm_CAH_QlIw9lvDRXDZG-2073">
          <mxCell style="label;iwhiteSpace=wrap;html=1;rounded=1" vertex="1" parent="1">
            <mxGeometry x="1215" y="1685" width="180" height="40" as="geometry"/>
          </mxCell>
        </UserObject>
        <UserObject label="%shortname%&lt;br&gt;&lt;i style=&quot;color: gray&quot;&gt;%name%&lt;/i&gt;&lt;br&gt;&amp;lt;%driver%&amp;gt;" shortname="OPRODNAS.02.04.05.01.07" name="Financing HSI per 1 Mbps" driver="-" placeholders="1" id="zm_CAH_QlIw9lvDRXDZG-2074">
          <mxCell style="label;iwhiteSpace=wrap;html=1;rounded=1" vertex="1" parent="1">
            <mxGeometry x="2430" y="2135" width="210" height="40" as="geometry"/>
          </mxCell>
        </UserObject>
        <UserObject label="%shortname%&lt;br&gt;&lt;i style=&quot;color: gray&quot;&gt;%name%&lt;/i&gt;&lt;br&gt;&amp;lt;%driver%&amp;gt;" shortname="4001-06.02" name="BEBAN PENDANAAN DSO" driver="EVENLY_ASSIGNED" placeholders="1" id="zm_CAH_QlIw9lvDRXDZG-2075">
          <mxCell style="label;iwhiteSpace=wrap;html=1;rounded=1" vertex="1" parent="1">
            <mxGeometry x="5" y="2175" width="210" height="40" as="geometry"/>
          </mxCell>
        </UserObject>
        <UserObject label="%shortname%&lt;br&gt;&lt;i style=&quot;color: gray&quot;&gt;%name%&lt;/i&gt;&lt;br&gt;&amp;lt;%driver%&amp;gt;" shortname="OA.RE.05.04.02.03" name="Fin MSAN" driver="NILAI BUKU" placeholders="1" id="zm_CAH_QlIw9lvDRXDZG-2076">
          <mxCell style="label;iwhiteSpace=wrap;html=1;rounded=1" vertex="1" parent="1">
            <mxGeometry x="1620" y="2388.3333333333335" width="170" height="40" as="geometry"/>
          </mxCell>
        </UserObject>
        <UserObject label="%shortname%&lt;br&gt;&lt;i style=&quot;color: gray&quot;&gt;%name%&lt;/i&gt;&lt;br&gt;&amp;lt;%driver%&amp;gt;" shortname="NS.02.03" name="Financing Cost Regional Metro Junction" driver="CAPACITY" placeholders="1" id="zm_CAH_QlIw9lvDRXDZG-2077">
          <mxCell style="label;iwhiteSpace=wrap;html=1;rounded=1" vertex="1" parent="1">
            <mxGeometry x="1560" y="2005" width="290" height="40" as="geometry"/>
          </mxCell>
        </UserObject>
        <UserObject label="%shortname%&lt;br&gt;&lt;i style=&quot;color: gray&quot;&gt;%name%&lt;/i&gt;&lt;br&gt;&amp;lt;%driver%&amp;gt;" shortname="NS.03.03" name="Finacing Cost Lastmile" driver="-" placeholders="1" id="zm_CAH_QlIw9lvDRXDZG-2078">
          <mxCell style="label;iwhiteSpace=wrap;html=1;rounded=1" vertex="1" parent="1">
            <mxGeometry x="1610" y="1865" width="190" height="40" as="geometry"/>
          </mxCell>
        </UserObject>
        <UserObject label="%shortname%&lt;br&gt;&lt;i style=&quot;color: gray&quot;&gt;%name%&lt;/i&gt;&lt;br&gt;&amp;lt;%driver%&amp;gt;" shortname="OSAT.01.02.03" name="Cost Of Capital Tail Link" driver="-" placeholders="1" id="zm_CAH_QlIw9lvDRXDZG-2079">
          <mxCell style="label;iwhiteSpace=wrap;html=1;rounded=1" vertex="1" parent="1">
            <mxGeometry x="800" y="2770" width="200" height="40" as="geometry"/>
          </mxCell>
        </UserObject>
        <UserObject label="%shortname%&lt;br&gt;&lt;i style=&quot;color: gray&quot;&gt;%name%&lt;/i&gt;&lt;br&gt;&amp;lt;%driver%&amp;gt;" shortname="OA.RE.09.01.07.15.03" name="Financing PRIMARY POP" driver="-" placeholders="1" id="zm_CAH_QlIw9lvDRXDZG-2080">
          <mxCell style="label;iwhiteSpace=wrap;html=1;rounded=1" vertex="1" parent="1">
            <mxGeometry x="1205" y="2245" width="200" height="40" as="geometry"/>
          </mxCell>
        </UserObject>
        <UserObject label="%shortname%&lt;br&gt;&lt;i style=&quot;color: gray&quot;&gt;%name%&lt;/i&gt;&lt;br&gt;&amp;lt;%driver%&amp;gt;" shortname="OBSC.01.01.06.01.03" name="Financing Sentral STP" driver="-" placeholders="1" id="zm_CAH_QlIw9lvDRXDZG-2081">
          <mxCell style="label;iwhiteSpace=wrap;html=1;rounded=1" vertex="1" parent="1">
            <mxGeometry x="1995" y="1695" width="190" height="40" as="geometry"/>
          </mxCell>
        </UserObject>
        <UserObject label="%shortname%&lt;br&gt;&lt;i style=&quot;color: gray&quot;&gt;%name%&lt;/i&gt;&lt;br&gt;&amp;lt;%driver%&amp;gt;" shortname="OA.RE.09.01.08.02.03" name="Financing IMUX" driver="-" placeholders="1" id="zm_CAH_QlIw9lvDRXDZG-2082">
          <mxCell style="label;iwhiteSpace=wrap;html=1;rounded=1" vertex="1" parent="1">
            <mxGeometry x="810" y="670" width="180" height="40" as="geometry"/>
          </mxCell>
        </UserObject>
        <UserObject label="%shortname%&lt;br&gt;&lt;i style=&quot;color: gray&quot;&gt;%name%&lt;/i&gt;&lt;br&gt;&amp;lt;%driver%&amp;gt;" shortname="OA.RE.05.04.03.02" name="Fin VPN" driver="-" placeholders="1" id="zm_CAH_QlIw9lvDRXDZG-2083">
          <mxCell style="label;iwhiteSpace=wrap;html=1;rounded=1" vertex="1" parent="1">
            <mxGeometry x="815" y="840" width="170" height="40" as="geometry"/>
          </mxCell>
        </UserObject>
        <UserObject label="%shortname%&lt;br&gt;&lt;i style=&quot;color: gray&quot;&gt;%name%&lt;/i&gt;&lt;br&gt;&amp;lt;%driver%&amp;gt;" shortname="OPRODNAS.02.03.01.07" name="Cost Of Capital SL per 1 Mbps Nas" driver="-" placeholders="1" id="zm_CAH_QlIw9lvDRXDZG-2084">
          <mxCell style="label;iwhiteSpace=wrap;html=1;rounded=1" vertex="1" parent="1">
            <mxGeometry x="2865" y="1295" width="260" height="40" as="geometry"/>
          </mxCell>
        </UserObject>
        <UserObject label="%shortname%&lt;br&gt;&lt;i style=&quot;color: gray&quot;&gt;%name%&lt;/i&gt;&lt;br&gt;&amp;lt;%driver%&amp;gt;" shortname="OA.RE.09.01.07.13.03" name="Financing Radio IP" driver="-" placeholders="1" id="zm_CAH_QlIw9lvDRXDZG-2085">
          <mxCell style="label;iwhiteSpace=wrap;html=1;rounded=1" vertex="1" parent="1">
            <mxGeometry x="1215" y="2105" width="180" height="40" as="geometry"/>
          </mxCell>
        </UserObject>
        <UserObject label="%shortname%&lt;br&gt;&lt;i style=&quot;color: gray&quot;&gt;%name%&lt;/i&gt;&lt;br&gt;&amp;lt;%driver%&amp;gt;" shortname="OA.RE.05.04.01.03" name="Fin GPON" driver="NILAI BUKU" placeholders="1" id="zm_CAH_QlIw9lvDRXDZG-2086">
          <mxCell style="label;iwhiteSpace=wrap;html=1;rounded=1" vertex="1" parent="1">
            <mxGeometry x="1620" y="2225" width="170" height="40" as="geometry"/>
          </mxCell>
        </UserObject>
        <UserObject label="%shortname%&lt;br&gt;&lt;i style=&quot;color: gray&quot;&gt;%name%&lt;/i&gt;&lt;br&gt;&amp;lt;%driver%&amp;gt;" shortname="OPRODNAS.02.05.05" name="Financing IPTV" driver="-" placeholders="1" id="zm_CAH_QlIw9lvDRXDZG-2087">
          <mxCell style="label;iwhiteSpace=wrap;html=1;rounded=1" vertex="1" parent="1">
            <mxGeometry x="2445" y="2205" width="180" height="40" as="geometry"/>
          </mxCell>
        </UserObject>
        <UserObject label="%shortname%&lt;br&gt;&lt;i style=&quot;color: gray&quot;&gt;%name%&lt;/i&gt;&lt;br&gt;&amp;lt;%driver%&amp;gt;" shortname="OA.RE.05.02.04.03" name="Cost of Capital DWDM" driver="EVENLY_ASSIGNED" placeholders="1" id="zm_CAH_QlIw9lvDRXDZG-2088">
          <mxCell style="label;iwhiteSpace=wrap;html=1;rounded=1" vertex="1" parent="1">
            <mxGeometry x="1210" y="2835" width="190" height="40" as="geometry"/>
          </mxCell>
        </UserObject>
        <UserObject label="%shortname%&lt;br&gt;&lt;i style=&quot;color: gray&quot;&gt;%name%&lt;/i&gt;&lt;br&gt;&amp;lt;%driver%&amp;gt;" shortname="OSAT.01.03.03" name="Cost Of Capital Alat ukur Sat" driver="-" placeholders="1" id="zm_CAH_QlIw9lvDRXDZG-2089">
          <mxCell style="label;iwhiteSpace=wrap;html=1;rounded=1" vertex="1" parent="1">
            <mxGeometry x="785" y="2840" width="230" height="40" as="geometry"/>
          </mxCell>
        </UserObject>
        <UserObject label="%shortname%&lt;br&gt;&lt;i style=&quot;color: gray&quot;&gt;%name%&lt;/i&gt;&lt;br&gt;&amp;lt;%driver%&amp;gt;" shortname="OA.RE.05.02.01.03" name="Cost of Capital FO" driver="KM Core" placeholders="1" id="zm_CAH_QlIw9lvDRXDZG-2090">
          <mxCell style="label;iwhiteSpace=wrap;html=1;rounded=1" vertex="1" parent="1">
            <mxGeometry x="1220" y="2485" width="170" height="40" as="geometry"/>
          </mxCell>
        </UserObject>
        <UserObject label="%shortname%&lt;br&gt;&lt;i style=&quot;color: gray&quot;&gt;%name%&lt;/i&gt;&lt;br&gt;&amp;lt;%driver%&amp;gt;" shortname="OA.RE.09.01.05.04.03" name="Financing Akses Point" driver="-" placeholders="1" id="zm_CAH_QlIw9lvDRXDZG-2091">
          <mxCell style="label;iwhiteSpace=wrap;html=1;rounded=1" vertex="1" parent="1">
            <mxGeometry x="805" y="770" width="190" height="40" as="geometry"/>
          </mxCell>
        </UserObject>
        <UserObject label="%shortname%&lt;br&gt;&lt;i style=&quot;color: gray&quot;&gt;%name%&lt;/i&gt;&lt;br&gt;&amp;lt;%driver%&amp;gt;" shortname="OINT.01.02.02" name="Cost Of Capital DMCS" driver="-" placeholders="1" id="zm_CAH_QlIw9lvDRXDZG-2092">
          <mxCell style="label;iwhiteSpace=wrap;html=1;rounded=1" vertex="1" parent="1">
            <mxGeometry x="805" y="3050" width="190" height="40" as="geometry"/>
          </mxCell>
        </UserObject>
        <UserObject label="%shortname%&lt;br&gt;&lt;i style=&quot;color: gray&quot;&gt;%name%&lt;/i&gt;&lt;br&gt;&amp;lt;%driver%&amp;gt;" shortname="1101RE1-07.02.05" name="Beban Financing JARINGAN AKSES FIBER" driver="EVENLY_ASSIGNED" placeholders="1" id="zm_CAH_QlIw9lvDRXDZG-2093">
          <mxCell style="label;iwhiteSpace=wrap;html=1;rounded=1" vertex="1" parent="1">
            <mxGeometry x="1150" y="415" width="310" height="40" as="geometry"/>
          </mxCell>
        </UserObject>
        <UserObject label="%shortname%&lt;br&gt;&lt;i style=&quot;color: gray&quot;&gt;%name%&lt;/i&gt;&lt;br&gt;&amp;lt;%driver%&amp;gt;" shortname="1101RE1-07.02.08" name="Beban Financing JARINGAN AKSES Radio" driver="-" placeholders="1" id="zm_CAH_QlIw9lvDRXDZG-2094">
          <mxCell style="label;iwhiteSpace=wrap;html=1;rounded=1" vertex="1" parent="1">
            <mxGeometry x="330" y="1255" width="310" height="40" as="geometry"/>
          </mxCell>
        </UserObject>
        <UserObject label="%shortname%&lt;br&gt;&lt;i style=&quot;color: gray&quot;&gt;%name%&lt;/i&gt;&lt;br&gt;&amp;lt;%driver%&amp;gt;" shortname="OBSC.01.02.02.04" name="Fin Cost FO Idle" driver="-" placeholders="1" id="zm_CAH_QlIw9lvDRXDZG-2095">
          <mxCell style="label;iwhiteSpace=wrap;html=1;rounded=1" vertex="1" parent="1">
            <mxGeometry x="1625" y="1665" width="160" height="40" as="geometry"/>
          </mxCell>
        </UserObject>
        <UserObject label="%shortname%&lt;br&gt;&lt;i style=&quot;color: gray&quot;&gt;%name%&lt;/i&gt;&lt;br&gt;&amp;lt;%driver%&amp;gt;" shortname="OPRODNAS.02.04.01.01.01.06" name="Pend/Financing ASTINET BULANAN" driver="-" placeholders="1" id="zm_CAH_QlIw9lvDRXDZG-2096">
          <mxCell style="label;iwhiteSpace=wrap;html=1;rounded=1" vertex="1" parent="1">
            <mxGeometry x="2400" y="1995" width="270" height="40" as="geometry"/>
          </mxCell>
        </UserObject>
        <UserObject label="%shortname%&lt;br&gt;&lt;i style=&quot;color: gray&quot;&gt;%name%&lt;/i&gt;&lt;br&gt;&amp;lt;%driver%&amp;gt;" shortname="OA.RE.09.01.07.10.03" name="Financing BW Management" driver="-" placeholders="1" id="zm_CAH_QlIw9lvDRXDZG-2097">
          <mxCell style="label;iwhiteSpace=wrap;html=1;rounded=1" vertex="1" parent="1">
            <mxGeometry x="1195" y="1895" width="220" height="40" as="geometry"/>
          </mxCell>
        </UserObject>
        <UserObject label="%shortname%&lt;br&gt;&lt;i style=&quot;color: gray&quot;&gt;%name%&lt;/i&gt;&lt;br&gt;&amp;lt;%driver%&amp;gt;" shortname="OPASS.08.09" name="FINANCING COST" driver="NILAI BUKU" placeholders="1" id="zm_CAH_QlIw9lvDRXDZG-2098">
          <mxCell style="label;iwhiteSpace=wrap;html=1;rounded=1" vertex="1" parent="1">
            <mxGeometry x="405" y="2175" width="160" height="40" as="geometry"/>
          </mxCell>
        </UserObject>
        <UserObject label="%shortname%&lt;br&gt;&lt;i style=&quot;color: gray&quot;&gt;%name%&lt;/i&gt;&lt;br&gt;&amp;lt;%driver%&amp;gt;" shortname="OBSC.01.02.01.03" name="FIN COST SL Eksternal" driver="BW SL" placeholders="1" id="zm_CAH_QlIw9lvDRXDZG-2099">
          <mxCell style="label;iwhiteSpace=wrap;html=1;rounded=1" vertex="1" parent="1">
            <mxGeometry x="1995" y="1415" width="190" height="40" as="geometry"/>
          </mxCell>
        </UserObject>
        <UserObject label="%shortname%&lt;br&gt;&lt;i style=&quot;color: gray&quot;&gt;%name%&lt;/i&gt;&lt;br&gt;&amp;lt;%driver%&amp;gt;" shortname="OA.RE.09.01.05.01.03" name="Financing Cost Jaringan Akses Tembaga" driver="-" placeholders="1" id="zm_CAH_QlIw9lvDRXDZG-2100">
          <mxCell style="label;iwhiteSpace=wrap;html=1;rounded=1" vertex="1" parent="1">
            <mxGeometry x="755" y="2420" width="290" height="40" as="geometry"/>
          </mxCell>
        </UserObject>
        <UserObject label="%shortname%&lt;br&gt;&lt;i style=&quot;color: gray&quot;&gt;%name%&lt;/i&gt;&lt;br&gt;&amp;lt;%driver%&amp;gt;" shortname="OA.RE.09.01.07.11.03" name="Financing PE Transit" driver="-" placeholders="1" id="zm_CAH_QlIw9lvDRXDZG-2101">
          <mxCell style="label;iwhiteSpace=wrap;html=1;rounded=1" vertex="1" parent="1">
            <mxGeometry x="1215" y="1965" width="180" height="40" as="geometry"/>
          </mxCell>
        </UserObject>
        <UserObject label="%shortname%&lt;br&gt;&lt;i style=&quot;color: gray&quot;&gt;%name%&lt;/i&gt;&lt;br&gt;&amp;lt;%driver%&amp;gt;" shortname="OA.RE.09.01.07.18.03" name="Financing PTN" driver="EVENLY_ASSIGNED" placeholders="1" id="zm_CAH_QlIw9lvDRXDZG-2102">
          <mxCell style="label;iwhiteSpace=wrap;html=1;rounded=1" vertex="1" parent="1">
            <mxGeometry x="2440" y="985" width="190" height="40" as="geometry"/>
          </mxCell>
        </UserObject>
        <UserObject label="%shortname%&lt;br&gt;&lt;i style=&quot;color: gray&quot;&gt;%name%&lt;/i&gt;&lt;br&gt;&amp;lt;%driver%&amp;gt;" shortname="OPRODNAS.02.04.04.01.06" name="Pendanaan/Financing BULANAN IP Transit" driver="-" placeholders="1" id="zm_CAH_QlIw9lvDRXDZG-2103">
          <mxCell style="label;iwhiteSpace=wrap;html=1;rounded=1" vertex="1" parent="1">
            <mxGeometry x="2380" y="2275" width="310" height="40" as="geometry"/>
          </mxCell>
        </UserObject>
        <UserObject label="%shortname%&lt;br&gt;&lt;i style=&quot;color: gray&quot;&gt;%name%&lt;/i&gt;&lt;br&gt;&amp;lt;%driver%&amp;gt;" shortname="OBSC.01.01.06.02.02" name="Financing Sentral STP Idle" driver="-" placeholders="1" id="zm_CAH_QlIw9lvDRXDZG-2104">
          <mxCell style="label;iwhiteSpace=wrap;html=1;rounded=1" vertex="1" parent="1">
            <mxGeometry x="1600" y="1795" width="210" height="40" as="geometry"/>
          </mxCell>
        </UserObject>
        <UserObject label="%shortname%&lt;br&gt;&lt;i style=&quot;color: gray&quot;&gt;%name%&lt;/i&gt;&lt;br&gt;&amp;lt;%driver%&amp;gt;" shortname="OPRODRE5.01.01.06" name="CoC SL Per 1 Mbps RE5" driver="BW SL" placeholders="1" id="zm_CAH_QlIw9lvDRXDZG-2105">
          <mxCell style="label;iwhiteSpace=wrap;html=1;rounded=1" vertex="1" parent="1">
            <mxGeometry x="2435" y="1295" width="200" height="40" as="geometry"/>
          </mxCell>
        </UserObject>
        <UserObject label="%shortname%&lt;br&gt;&lt;i style=&quot;color: gray&quot;&gt;%name%&lt;/i&gt;&lt;br&gt;&amp;lt;%driver%&amp;gt;" shortname="OBSC.01.01.08.03" name="FIN COST LOKAL" driver="-" placeholders="1" id="zm_CAH_QlIw9lvDRXDZG-2106">
          <mxCell style="label;iwhiteSpace=wrap;html=1;rounded=1" vertex="1" parent="1">
            <mxGeometry x="2010" y="2115" width="160" height="40" as="geometry"/>
          </mxCell>
        </UserObject>
        <UserObject label="%shortname%&lt;br&gt;&lt;i style=&quot;color: gray&quot;&gt;%name%&lt;/i&gt;&lt;br&gt;&amp;lt;%driver%&amp;gt;" shortname="OA.RE.05.02.02.03" name="Fin GMD" driver="EVENLY_ASSIGNED" placeholders="1" id="zm_CAH_QlIw9lvDRXDZG-2107">
          <mxCell style="label;iwhiteSpace=wrap;html=1;rounded=1" vertex="1" parent="1">
            <mxGeometry x="805" y="2700" width="190" height="40" as="geometry"/>
          </mxCell>
        </UserObject>
        <UserObject label="%shortname%&lt;br&gt;&lt;i style=&quot;color: gray&quot;&gt;%name%&lt;/i&gt;&lt;br&gt;&amp;lt;%driver%&amp;gt;" shortname="OPRODRE7.02.02.06" name="Pend/Financing BULANAN METRO BW PER 1Mbps RE7" driver="-" placeholders="1" id="zm_CAH_QlIw9lvDRXDZG-2108">
          <mxCell style="label;iwhiteSpace=wrap;html=1;rounded=1" vertex="1" parent="1">
            <mxGeometry x="2345" y="1925" width="380" height="40" as="geometry"/>
          </mxCell>
        </UserObject>
        <UserObject label="%shortname%&lt;br&gt;&lt;i style=&quot;color: gray&quot;&gt;%name%&lt;/i&gt;&lt;br&gt;&amp;lt;%driver%&amp;gt;" shortname="OBSC.01.01.07.05" name="Fin SLJJ Idle" driver="-" placeholders="1" id="zm_CAH_QlIw9lvDRXDZG-2109">
          <mxCell style="label;iwhiteSpace=wrap;html=1;rounded=1" vertex="1" parent="1">
            <mxGeometry x="2010" y="1625" width="160" height="40" as="geometry"/>
          </mxCell>
        </UserObject>
        <UserObject label="%shortname%&lt;br&gt;&lt;i style=&quot;color: gray&quot;&gt;%name%&lt;/i&gt;&lt;br&gt;&amp;lt;%driver%&amp;gt;" shortname="OA.RE.09.01.07.01.03" name="Financing P Router/MAIN POP" driver="-" placeholders="1" id="zm_CAH_QlIw9lvDRXDZG-2110">
          <mxCell style="label;iwhiteSpace=wrap;html=1;rounded=1" vertex="1" parent="1">
            <mxGeometry x="1190" y="1375" width="230" height="40" as="geometry"/>
          </mxCell>
        </UserObject>
        <UserObject label="%shortname%&lt;br&gt;&lt;i style=&quot;color: gray&quot;&gt;%name%&lt;/i&gt;&lt;br&gt;&amp;lt;%driver%&amp;gt;" shortname="OBSC.01.01.11.03" name="Fin Cost Radio IP" driver="-" placeholders="1" id="zm_CAH_QlIw9lvDRXDZG-2111">
          <mxCell style="label;iwhiteSpace=wrap;html=1;rounded=1" vertex="1" parent="1">
            <mxGeometry x="1225" y="585" width="160" height="40" as="geometry"/>
          </mxCell>
        </UserObject>
        <UserObject label="%shortname%&lt;br&gt;&lt;i style=&quot;color: gray&quot;&gt;%name%&lt;/i&gt;&lt;br&gt;&amp;lt;%driver%&amp;gt;" shortname="OSAT.09.02" name="Cost Of Capital Space Craft TELKOM 3S" driver="-" placeholders="1" id="zm_CAH_QlIw9lvDRXDZG-2112">
          <mxCell style="label;iwhiteSpace=wrap;html=1;rounded=1" vertex="1" parent="1">
            <mxGeometry x="755" y="3250" width="290" height="40" as="geometry"/>
          </mxCell>
        </UserObject>
        <UserObject label="%shortname%&lt;br&gt;&lt;i style=&quot;color: gray&quot;&gt;%name%&lt;/i&gt;&lt;br&gt;&amp;lt;%driver%&amp;gt;" shortname="OPRODRE2.02.02.06" name="Pend/Financing BW SEN Per 1 Mbps METRO RE2" driver="-" placeholders="1" id="zm_CAH_QlIw9lvDRXDZG-2113">
          <mxCell style="label;iwhiteSpace=wrap;html=1;rounded=1" vertex="1" parent="1">
            <mxGeometry x="2365" y="1575" width="340" height="40" as="geometry"/>
          </mxCell>
        </UserObject>
        <UserObject label="%shortname%&lt;br&gt;&lt;i style=&quot;color: gray&quot;&gt;%name%&lt;/i&gt;&lt;br&gt;&amp;lt;%driver%&amp;gt;" shortname="OA.RE.09.01.08.06.03" name="Financing Cost DSLAM" driver="-" placeholders="1" id="zm_CAH_QlIw9lvDRXDZG-2114">
          <mxCell style="label;iwhiteSpace=wrap;html=1;rounded=1" vertex="1" parent="1">
            <mxGeometry x="805" y="360" width="190" height="40" as="geometry"/>
          </mxCell>
        </UserObject>
        <UserObject label="%shortname%&lt;br&gt;&lt;i style=&quot;color: gray&quot;&gt;%name%&lt;/i&gt;&lt;br&gt;&amp;lt;%driver%&amp;gt;" shortname="OPRODRE4.02.02.06" name="Pend/Financing BW Per 1 Mbps METRO RE4" driver="-" placeholders="1" id="zm_CAH_QlIw9lvDRXDZG-2115">
          <mxCell style="label;iwhiteSpace=wrap;html=1;rounded=1" vertex="1" parent="1">
            <mxGeometry x="2380" y="1715" width="310" height="40" as="geometry"/>
          </mxCell>
        </UserObject>
        <UserObject label="%shortname%&lt;br&gt;&lt;i style=&quot;color: gray&quot;&gt;%name%&lt;/i&gt;&lt;br&gt;&amp;lt;%driver%&amp;gt;" shortname="OPRODRE5.02.02.06" name="Pend/Financing BW BULANAN METRO BW RE5" driver="-" placeholders="1" id="zm_CAH_QlIw9lvDRXDZG-2116">
          <mxCell style="label;iwhiteSpace=wrap;html=1;rounded=1" vertex="1" parent="1">
            <mxGeometry x="2370" y="1785" width="330" height="40" as="geometry"/>
          </mxCell>
        </UserObject>
        <UserObject label="%shortname%&lt;br&gt;&lt;i style=&quot;color: gray&quot;&gt;%name%&lt;/i&gt;&lt;br&gt;&amp;lt;%driver%&amp;gt;" shortname="OA.RE.05.02.01.02.03" name="Cost Of Capital STP NAS Sum" driver="-" placeholders="1" id="zm_CAH_QlIw9lvDRXDZG-2117">
          <mxCell style="label;iwhiteSpace=wrap;html=1;rounded=1" vertex="1" parent="1">
            <mxGeometry x="1190" y="925" width="230" height="40" as="geometry"/>
          </mxCell>
        </UserObject>
        <UserObject label="%shortname%&lt;br&gt;&lt;i style=&quot;color: gray&quot;&gt;%name%&lt;/i&gt;&lt;br&gt;&amp;lt;%driver%&amp;gt;" shortname="OSAT.03.02" name="Cost Of Capital Space Craft TELKOM 2" driver="-" placeholders="1" id="zm_CAH_QlIw9lvDRXDZG-2118">
          <mxCell style="label;iwhiteSpace=wrap;html=1;rounded=1" vertex="1" parent="1">
            <mxGeometry x="760" y="2910" width="280" height="40" as="geometry"/>
          </mxCell>
        </UserObject>
        <UserObject label="%shortname%&lt;br&gt;&lt;i style=&quot;color: gray&quot;&gt;%name%&lt;/i&gt;&lt;br&gt;&amp;lt;%driver%&amp;gt;" shortname="1101RE1-07.02.02" name="Beban Financing JARINGAN AKSES TEMBAGA" driver="-" placeholders="1" id="zm_CAH_QlIw9lvDRXDZG-2119">
          <mxCell style="label;iwhiteSpace=wrap;html=1;rounded=1" vertex="1" parent="1">
            <mxGeometry x="320" y="1895" width="330" height="40" as="geometry"/>
          </mxCell>
        </UserObject>
        <UserObject label="%shortname%&lt;br&gt;&lt;i style=&quot;color: gray&quot;&gt;%name%&lt;/i&gt;&lt;br&gt;&amp;lt;%driver%&amp;gt;" shortname="OPRODRE6.02.02.06" name="Pend/Financing BW SEN Per 1 Mbps METRO AREA BORNEO" driver="-" placeholders="1" id="zm_CAH_QlIw9lvDRXDZG-2120">
          <mxCell style="label;iwhiteSpace=wrap;html=1;rounded=1" vertex="1" parent="1">
            <mxGeometry x="2330" y="1855" width="410" height="40" as="geometry"/>
          </mxCell>
        </UserObject>
        <UserObject label="%shortname%&lt;br&gt;&lt;i style=&quot;color: gray&quot;&gt;%name%&lt;/i&gt;&lt;br&gt;&amp;lt;%driver%&amp;gt;" shortname="OBSC.01.02.02.05" name="Fin Cost Backbone Idle" driver="-" placeholders="1" id="zm_CAH_QlIw9lvDRXDZG-2121">
          <mxCell style="label;iwhiteSpace=wrap;html=1;rounded=1" vertex="1" parent="1">
            <mxGeometry x="1995" y="1835" width="190" height="40" as="geometry"/>
          </mxCell>
        </UserObject>
        <UserObject label="%shortname%&lt;br&gt;&lt;i style=&quot;color: gray&quot;&gt;%name%&lt;/i&gt;&lt;br&gt;&amp;lt;%driver%&amp;gt;" shortname="OA.RE.05.02.01.11.03" name="Financing PE SS" driver="-" placeholders="1" id="zm_CAH_QlIw9lvDRXDZG-2122">
          <mxCell style="label;iwhiteSpace=wrap;html=1;rounded=1" vertex="1" parent="1">
            <mxGeometry x="1215" y="2625" width="180" height="40" as="geometry"/>
          </mxCell>
        </UserObject>
        <UserObject label="%shortname%&lt;br&gt;&lt;i style=&quot;color: gray&quot;&gt;%name%&lt;/i&gt;&lt;br&gt;&amp;lt;%driver%&amp;gt;" shortname="OA.RE.05.02.01.05.03" name="Cost Of Capital SENTRAL Telex" driver="-" placeholders="1" id="zm_CAH_QlIw9lvDRXDZG-2123">
          <mxCell style="label;iwhiteSpace=wrap;html=1;rounded=1" vertex="1" parent="1">
            <mxGeometry x="1185" y="2415" width="240" height="40" as="geometry"/>
          </mxCell>
        </UserObject>
        <UserObject label="%shortname%&lt;br&gt;&lt;i style=&quot;color: gray&quot;&gt;%name%&lt;/i&gt;&lt;br&gt;&amp;lt;%driver%&amp;gt;" shortname="OBSC.01.01.10.02.02" name="Financing Jar Akses fo Idle" driver="-" placeholders="1" id="zm_CAH_QlIw9lvDRXDZG-2124">
          <mxCell style="label;iwhiteSpace=wrap;html=1;rounded=1" vertex="1" parent="1">
            <mxGeometry x="1980" y="1285" width="220" height="40" as="geometry"/>
          </mxCell>
        </UserObject>
        <UserObject label="%shortname%&lt;br&gt;&lt;i style=&quot;color: gray&quot;&gt;%name%&lt;/i&gt;&lt;br&gt;&amp;lt;%driver%&amp;gt;" shortname="OPRODRE4.01.01.06" name="CoC SL Per 1 Mbps RE4" driver="BW SL" placeholders="1" id="zm_CAH_QlIw9lvDRXDZG-2125">
          <mxCell style="label;iwhiteSpace=wrap;html=1;rounded=1" vertex="1" parent="1">
            <mxGeometry x="2435" y="1225" width="200" height="40" as="geometry"/>
          </mxCell>
        </UserObject>
        <UserObject label="%shortname%&lt;br&gt;&lt;i style=&quot;color: gray&quot;&gt;%name%&lt;/i&gt;&lt;br&gt;&amp;lt;%driver%&amp;gt;" shortname="OINT.01.01.02" name="Cost Of Capital TIS" driver="-" placeholders="1" id="zm_CAH_QlIw9lvDRXDZG-2126">
          <mxCell style="label;iwhiteSpace=wrap;html=1;rounded=1" vertex="1" parent="1">
            <mxGeometry x="815" y="2980" width="170" height="40" as="geometry"/>
          </mxCell>
        </UserObject>
        <UserObject label="%shortname%&lt;br&gt;&lt;i style=&quot;color: gray&quot;&gt;%name%&lt;/i&gt;&lt;br&gt;&amp;lt;%driver%&amp;gt;" shortname="OINT.02.02" name="Cost of Capital Up grade SGI" driver="-" placeholders="1" id="zm_CAH_QlIw9lvDRXDZG-2127">
          <mxCell style="label;iwhiteSpace=wrap;html=1;rounded=1" vertex="1" parent="1">
            <mxGeometry x="785" y="3120" width="230" height="40" as="geometry"/>
          </mxCell>
        </UserObject>
        <UserObject label="%shortname%&lt;br&gt;&lt;i style=&quot;color: gray&quot;&gt;%name%&lt;/i&gt;&lt;br&gt;&amp;lt;%driver%&amp;gt;" shortname="OA.RE.09.01.07.14.03" name="Financing BRAS" driver="-" placeholders="1" id="zm_CAH_QlIw9lvDRXDZG-2128">
          <mxCell style="label;iwhiteSpace=wrap;html=1;rounded=1" vertex="1" parent="1">
            <mxGeometry x="1215" y="2175" width="180" height="40" as="geometry"/>
          </mxCell>
        </UserObject>
        <UserObject label="%shortname%&lt;br&gt;&lt;i style=&quot;color: gray&quot;&gt;%name%&lt;/i&gt;&lt;br&gt;&amp;lt;%driver%&amp;gt;" shortname="OPRODRE3.01.01.06" name="CoC SL Per 1 Mbps RE3" driver="BW SL" placeholders="1" id="zm_CAH_QlIw9lvDRXDZG-2129">
          <mxCell style="label;iwhiteSpace=wrap;html=1;rounded=1" vertex="1" parent="1">
            <mxGeometry x="2435" y="1155" width="200" height="40" as="geometry"/>
          </mxCell>
        </UserObject>
        <UserObject label="%shortname%&lt;br&gt;&lt;i style=&quot;color: gray&quot;&gt;%name%&lt;/i&gt;&lt;br&gt;&amp;lt;%driver%&amp;gt;" shortname="OPRODRE1.02.02.06" name="Pend/Financing BULANAN METRO BW PER 1Mbps RE1" driver="-" placeholders="1" id="zm_CAH_QlIw9lvDRXDZG-2130">
          <mxCell style="label;iwhiteSpace=wrap;html=1;rounded=1" vertex="1" parent="1">
            <mxGeometry x="2345" y="2415" width="380" height="40" as="geometry"/>
          </mxCell>
        </UserObject>
        <UserObject label="%shortname%&lt;br&gt;&lt;i style=&quot;color: gray&quot;&gt;%name%&lt;/i&gt;&lt;br&gt;&amp;lt;%driver%&amp;gt;" shortname="OA.RE.09.01.04.02" name="Financing Cost Penanggal Tembaga" driver="-" placeholders="1" id="zm_CAH_QlIw9lvDRXDZG-2131">
          <mxCell style="label;iwhiteSpace=wrap;html=1;rounded=1" vertex="1" parent="1">
            <mxGeometry x="765" y="2350" width="270" height="40" as="geometry"/>
          </mxCell>
        </UserObject>
        <mxCell id="zm_CAH_QlIw9lvDRXDZG-2132" value="allocation" style="curved=1;endArrow=blockThin;endFill=1;fontSize=11;noEdgeStyle=1;orthogonal=1;" edge="1" parent="1" source="zm_CAH_QlIw9lvDRXDZG-2025" target="zm_CAH_QlIw9lvDRXDZG-2070">
          <mxGeometry relative="1" as="geometry">
            <Array as="points">
              <mxPoint x="2254" y="2058"/>
              <mxPoint x="2318" y="1532.5"/>
            </Array>
          </mxGeometry>
        </mxCell>
        <mxCell id="zm_CAH_QlIw9lvDRXDZG-2133" value="allocation" style="curved=1;endArrow=blockThin;endFill=1;fontSize=11;noEdgeStyle=1;orthogonal=1;" edge="1" parent="1" source="zm_CAH_QlIw9lvDRXDZG-2025" target="zm_CAH_QlIw9lvDRXDZG-2130">
          <mxGeometry relative="1" as="geometry">
            <Array as="points">
              <mxPoint x="2242" y="2084"/>
              <mxPoint x="2318" y="2435"/>
            </Array>
          </mxGeometry>
        </mxCell>
        <mxCell id="zm_CAH_QlIw9lvDRXDZG-2134" value="allocation" style="curved=1;endArrow=blockThin;endFill=1;fontSize=11;noEdgeStyle=1;orthogonal=1;" edge="1" parent="1" source="zm_CAH_QlIw9lvDRXDZG-2025" target="zm_CAH_QlIw9lvDRXDZG-2036">
          <mxGeometry relative="1" as="geometry">
            <Array as="points">
              <mxPoint x="2242" y="2046"/>
              <mxPoint x="2318" y="1112.5"/>
            </Array>
          </mxGeometry>
        </mxCell>
        <mxCell id="zm_CAH_QlIw9lvDRXDZG-2135" value="allocation" style="curved=1;endArrow=blockThin;endFill=1;fontSize=11;noEdgeStyle=1;orthogonal=1;" edge="1" parent="1" source="zm_CAH_QlIw9lvDRXDZG-2025" target="zm_CAH_QlIw9lvDRXDZG-2113">
          <mxGeometry relative="1" as="geometry">
            <Array as="points">
              <mxPoint x="2256" y="2060"/>
              <mxPoint x="2318" y="1595"/>
            </Array>
          </mxGeometry>
        </mxCell>
        <mxCell id="zm_CAH_QlIw9lvDRXDZG-2136" value="allocation" style="curved=1;endArrow=blockThin;endFill=1;fontSize=11;noEdgeStyle=1;orthogonal=1;" edge="1" parent="1" source="zm_CAH_QlIw9lvDRXDZG-2025" target="zm_CAH_QlIw9lvDRXDZG-2129">
          <mxGeometry relative="1" as="geometry">
            <Array as="points">
              <mxPoint x="2244" y="2048"/>
              <mxPoint x="2318" y="1182.5"/>
            </Array>
          </mxGeometry>
        </mxCell>
        <mxCell id="zm_CAH_QlIw9lvDRXDZG-2137" value="allocation" style="curved=1;endArrow=blockThin;endFill=1;fontSize=11;noEdgeStyle=1;orthogonal=1;" edge="1" parent="1" source="zm_CAH_QlIw9lvDRXDZG-2025" target="zm_CAH_QlIw9lvDRXDZG-2031">
          <mxGeometry relative="1" as="geometry">
            <Array as="points">
              <mxPoint x="2258" y="2062"/>
              <mxPoint x="2318" y="1665"/>
            </Array>
          </mxGeometry>
        </mxCell>
        <mxCell id="zm_CAH_QlIw9lvDRXDZG-2138" value="allocation" style="curved=1;endArrow=blockThin;endFill=1;fontSize=11;noEdgeStyle=1;orthogonal=1;" edge="1" parent="1" source="zm_CAH_QlIw9lvDRXDZG-2025" target="zm_CAH_QlIw9lvDRXDZG-2125">
          <mxGeometry relative="1" as="geometry">
            <Array as="points">
              <mxPoint x="2246" y="2050"/>
              <mxPoint x="2318" y="1252.5"/>
            </Array>
          </mxGeometry>
        </mxCell>
        <mxCell id="zm_CAH_QlIw9lvDRXDZG-2139" value="allocation" style="curved=1;endArrow=blockThin;endFill=1;fontSize=11;noEdgeStyle=1;orthogonal=1;" edge="1" parent="1" source="zm_CAH_QlIw9lvDRXDZG-2025" target="zm_CAH_QlIw9lvDRXDZG-2115">
          <mxGeometry relative="1" as="geometry">
            <Array as="points">
              <mxPoint x="2260" y="2064"/>
              <mxPoint x="2318" y="1735"/>
            </Array>
          </mxGeometry>
        </mxCell>
        <mxCell id="zm_CAH_QlIw9lvDRXDZG-2140" value="allocation" style="curved=1;endArrow=blockThin;endFill=1;fontSize=11;noEdgeStyle=1;orthogonal=1;" edge="1" parent="1" source="zm_CAH_QlIw9lvDRXDZG-2025" target="zm_CAH_QlIw9lvDRXDZG-2105">
          <mxGeometry relative="1" as="geometry">
            <Array as="points">
              <mxPoint x="2248" y="2052"/>
              <mxPoint x="2318" y="1322.5"/>
            </Array>
          </mxGeometry>
        </mxCell>
        <mxCell id="zm_CAH_QlIw9lvDRXDZG-2141" value="allocation" style="curved=1;endArrow=blockThin;endFill=1;fontSize=11;noEdgeStyle=1;orthogonal=1;" edge="1" parent="1" source="zm_CAH_QlIw9lvDRXDZG-2025" target="zm_CAH_QlIw9lvDRXDZG-2116">
          <mxGeometry relative="1" as="geometry">
            <Array as="points">
              <mxPoint x="2260" y="2066"/>
              <mxPoint x="2318" y="1805"/>
            </Array>
          </mxGeometry>
        </mxCell>
        <mxCell id="zm_CAH_QlIw9lvDRXDZG-2142" value="allocation" style="curved=1;endArrow=blockThin;endFill=1;fontSize=11;noEdgeStyle=1;orthogonal=1;" edge="1" parent="1" source="zm_CAH_QlIw9lvDRXDZG-2025" target="zm_CAH_QlIw9lvDRXDZG-2038">
          <mxGeometry relative="1" as="geometry">
            <Array as="points">
              <mxPoint x="2250" y="2054"/>
              <mxPoint x="2318" y="1392.5"/>
            </Array>
          </mxGeometry>
        </mxCell>
        <mxCell id="zm_CAH_QlIw9lvDRXDZG-2143" value="allocation" style="curved=1;endArrow=blockThin;endFill=1;fontSize=11;noEdgeStyle=1;orthogonal=1;" edge="1" parent="1" source="zm_CAH_QlIw9lvDRXDZG-2025" target="zm_CAH_QlIw9lvDRXDZG-2120">
          <mxGeometry relative="1" as="geometry">
            <Array as="points">
              <mxPoint x="2258" y="2068"/>
              <mxPoint x="2318" y="1875"/>
            </Array>
          </mxGeometry>
        </mxCell>
        <mxCell id="zm_CAH_QlIw9lvDRXDZG-2144" value="allocation" style="curved=1;endArrow=blockThin;endFill=1;fontSize=11;noEdgeStyle=1;orthogonal=1;" edge="1" parent="1" source="zm_CAH_QlIw9lvDRXDZG-2025" target="zm_CAH_QlIw9lvDRXDZG-2067">
          <mxGeometry relative="1" as="geometry">
            <Array as="points">
              <mxPoint x="2252" y="2056"/>
              <mxPoint x="2318" y="1462.5"/>
            </Array>
          </mxGeometry>
        </mxCell>
        <mxCell id="zm_CAH_QlIw9lvDRXDZG-2145" value="allocation" style="curved=1;endArrow=blockThin;endFill=1;fontSize=11;noEdgeStyle=1;orthogonal=1;" edge="1" parent="1" source="zm_CAH_QlIw9lvDRXDZG-2025" target="zm_CAH_QlIw9lvDRXDZG-2108">
          <mxGeometry relative="1" as="geometry">
            <Array as="points">
              <mxPoint x="2256" y="2070"/>
              <mxPoint x="2318" y="1945"/>
            </Array>
          </mxGeometry>
        </mxCell>
        <mxCell id="zm_CAH_QlIw9lvDRXDZG-2146" value="allocation" style="curved=1;endArrow=blockThin;endFill=1;fontSize=11;noEdgeStyle=1;orthogonal=1;" edge="1" parent="1" source="zm_CAH_QlIw9lvDRXDZG-2025" target="zm_CAH_QlIw9lvDRXDZG-2096">
          <mxGeometry relative="1" as="geometry">
            <Array as="points">
              <mxPoint x="2254" y="2072"/>
              <mxPoint x="2318" y="2015"/>
            </Array>
          </mxGeometry>
        </mxCell>
        <mxCell id="zm_CAH_QlIw9lvDRXDZG-2147" value="allocation" style="curved=1;endArrow=blockThin;endFill=1;fontSize=11;noEdgeStyle=1;orthogonal=1;" edge="1" parent="1" source="zm_CAH_QlIw9lvDRXDZG-2025" target="zm_CAH_QlIw9lvDRXDZG-2054">
          <mxGeometry relative="1" as="geometry">
            <Array as="points">
              <mxPoint x="2252" y="2074"/>
              <mxPoint x="2318" y="2085"/>
            </Array>
          </mxGeometry>
        </mxCell>
        <mxCell id="zm_CAH_QlIw9lvDRXDZG-2148" value="allocation" style="curved=1;endArrow=blockThin;endFill=1;fontSize=11;noEdgeStyle=1;orthogonal=1;" edge="1" parent="1" source="zm_CAH_QlIw9lvDRXDZG-2025" target="zm_CAH_QlIw9lvDRXDZG-2074">
          <mxGeometry relative="1" as="geometry">
            <Array as="points">
              <mxPoint x="2250" y="2076"/>
              <mxPoint x="2318" y="2155"/>
            </Array>
          </mxGeometry>
        </mxCell>
        <mxCell id="zm_CAH_QlIw9lvDRXDZG-2149" value="allocation" style="curved=1;endArrow=blockThin;endFill=1;fontSize=11;noEdgeStyle=1;orthogonal=1;" edge="1" parent="1" source="zm_CAH_QlIw9lvDRXDZG-2025" target="zm_CAH_QlIw9lvDRXDZG-2087">
          <mxGeometry relative="1" as="geometry">
            <Array as="points">
              <mxPoint x="2248" y="2078"/>
              <mxPoint x="2318" y="2225"/>
            </Array>
          </mxGeometry>
        </mxCell>
        <mxCell id="zm_CAH_QlIw9lvDRXDZG-2150" value="allocation" style="curved=1;endArrow=blockThin;endFill=1;fontSize=11;noEdgeStyle=1;orthogonal=1;" edge="1" parent="1" source="zm_CAH_QlIw9lvDRXDZG-2025" target="zm_CAH_QlIw9lvDRXDZG-2103">
          <mxGeometry relative="1" as="geometry">
            <Array as="points">
              <mxPoint x="2246" y="2080"/>
              <mxPoint x="2318" y="2295"/>
            </Array>
          </mxGeometry>
        </mxCell>
        <mxCell id="zm_CAH_QlIw9lvDRXDZG-2151" value="allocation" style="curved=1;endArrow=blockThin;endFill=1;fontSize=11;noEdgeStyle=1;orthogonal=1;" edge="1" parent="1" source="zm_CAH_QlIw9lvDRXDZG-2025" target="zm_CAH_QlIw9lvDRXDZG-2047">
          <mxGeometry relative="1" as="geometry">
            <Array as="points">
              <mxPoint x="2244" y="2082"/>
              <mxPoint x="2318" y="2365"/>
            </Array>
          </mxGeometry>
        </mxCell>
        <mxCell id="zm_CAH_QlIw9lvDRXDZG-2152" value="allocation" style="curved=1;endArrow=blockThin;endFill=1;fontSize=11;noEdgeStyle=1;orthogonal=1;" edge="1" parent="1" source="zm_CAH_QlIw9lvDRXDZG-2033" target="zm_CAH_QlIw9lvDRXDZG-2025">
          <mxGeometry relative="1" as="geometry">
            <Array as="points">
              <mxPoint x="1862" y="1412.5"/>
              <mxPoint x="1936" y="2061.25"/>
            </Array>
          </mxGeometry>
        </mxCell>
        <mxCell id="zm_CAH_QlIw9lvDRXDZG-2153" value="allocation" style="curved=1;endArrow=blockThin;endFill=1;fontSize=11;noEdgeStyle=1;orthogonal=1;" edge="1" parent="1" source="zm_CAH_QlIw9lvDRXDZG-2033" target="zm_CAH_QlIw9lvDRXDZG-2124">
          <mxGeometry relative="1" as="geometry">
            <Array as="points">
              <mxPoint x="1862" y="1397.5"/>
              <mxPoint x="1938" y="1305"/>
            </Array>
          </mxGeometry>
        </mxCell>
        <mxCell id="zm_CAH_QlIw9lvDRXDZG-2154" value="allocation" style="curved=1;endArrow=blockThin;endFill=1;fontSize=11;noEdgeStyle=1;orthogonal=1;" edge="1" parent="1" source="zm_CAH_QlIw9lvDRXDZG-2036" target="zm_CAH_QlIw9lvDRXDZG-2084">
          <mxGeometry relative="1" as="geometry">
            <Array as="points">
              <mxPoint x="2752" y="1112.5"/>
              <mxPoint x="2828" y="1297.857142857143"/>
            </Array>
          </mxGeometry>
        </mxCell>
        <mxCell id="zm_CAH_QlIw9lvDRXDZG-2155" value="allocation" style="curved=1;endArrow=blockThin;endFill=1;fontSize=11;noEdgeStyle=1;orthogonal=1;" edge="1" parent="1" source="zm_CAH_QlIw9lvDRXDZG-2036" target="zm_CAH_QlIw9lvDRXDZG-2024">
          <mxGeometry relative="1" as="geometry">
            <Array as="points">
              <mxPoint x="2752" y="1097.5"/>
              <mxPoint x="2824" y="1236.1111111111109"/>
            </Array>
          </mxGeometry>
        </mxCell>
        <mxCell id="zm_CAH_QlIw9lvDRXDZG-2156" value="allocation" style="curved=1;endArrow=blockThin;endFill=1;fontSize=11;noEdgeStyle=1;orthogonal=1;" edge="1" parent="1" source="zm_CAH_QlIw9lvDRXDZG-2038" target="zm_CAH_QlIw9lvDRXDZG-2084">
          <mxGeometry relative="1" as="geometry">
            <Array as="points">
              <mxPoint x="2752" y="1392.5"/>
              <mxPoint x="2824" y="1320.714285714286"/>
            </Array>
          </mxGeometry>
        </mxCell>
        <mxCell id="zm_CAH_QlIw9lvDRXDZG-2157" value="allocation" style="curved=1;endArrow=blockThin;endFill=1;fontSize=11;noEdgeStyle=1;orthogonal=1;" edge="1" parent="1" source="zm_CAH_QlIw9lvDRXDZG-2038" target="zm_CAH_QlIw9lvDRXDZG-2024">
          <mxGeometry relative="1" as="geometry">
            <Array as="points">
              <mxPoint x="2752" y="1377.5"/>
              <mxPoint x="2824" y="1253.8888888888882"/>
            </Array>
          </mxGeometry>
        </mxCell>
        <mxCell id="zm_CAH_QlIw9lvDRXDZG-2158" value="allocation" style="curved=1;endArrow=blockThin;endFill=1;fontSize=11;noEdgeStyle=1;orthogonal=1;" edge="1" parent="1" source="zm_CAH_QlIw9lvDRXDZG-2042" target="zm_CAH_QlIw9lvDRXDZG-2025">
          <mxGeometry relative="1" as="geometry">
            <Array as="points">
              <mxPoint x="1062" y="1046"/>
              <mxPoint x="1100" y="685"/>
              <mxPoint x="1510" y="685"/>
              <mxPoint x="1510" y="685"/>
              <mxPoint x="1900" y="685"/>
              <mxPoint x="1938" y="2053.75"/>
            </Array>
          </mxGeometry>
        </mxCell>
        <mxCell id="zm_CAH_QlIw9lvDRXDZG-2159" value="allocation" style="curved=1;endArrow=blockThin;endFill=1;fontSize=11;noEdgeStyle=1;orthogonal=1;" edge="1" parent="1" source="zm_CAH_QlIw9lvDRXDZG-2042" target="zm_CAH_QlIw9lvDRXDZG-2111">
          <mxGeometry relative="1" as="geometry">
            <Array as="points">
              <mxPoint x="1066" y="1030"/>
              <mxPoint x="1138" y="605"/>
            </Array>
          </mxGeometry>
        </mxCell>
        <mxCell id="zm_CAH_QlIw9lvDRXDZG-2160" value="allocation" style="curved=1;endArrow=blockThin;endFill=1;fontSize=11;noEdgeStyle=1;orthogonal=1;" edge="1" parent="1" source="zm_CAH_QlIw9lvDRXDZG-2042" target="zm_CAH_QlIw9lvDRXDZG-2099">
          <mxGeometry relative="1" as="geometry">
            <Array as="points">
              <mxPoint x="1064" y="1022"/>
              <mxPoint x="1100" y="555"/>
              <mxPoint x="1510" y="555"/>
              <mxPoint x="1510" y="555"/>
              <mxPoint x="1900" y="555"/>
              <mxPoint x="1938" y="1419"/>
            </Array>
          </mxGeometry>
        </mxCell>
        <mxCell id="zm_CAH_QlIw9lvDRXDZG-2161" value="allocation" style="curved=1;endArrow=blockThin;endFill=1;fontSize=11;noEdgeStyle=1;orthogonal=1;" edge="1" parent="1" source="zm_CAH_QlIw9lvDRXDZG-2042" target="zm_CAH_QlIw9lvDRXDZG-2034">
          <mxGeometry relative="1" as="geometry">
            <Array as="points">
              <mxPoint x="1062" y="1014"/>
              <mxPoint x="1138" y="505"/>
            </Array>
          </mxGeometry>
        </mxCell>
        <mxCell id="zm_CAH_QlIw9lvDRXDZG-2162" value="allocation" style="curved=1;endArrow=blockThin;endFill=1;fontSize=11;noEdgeStyle=1;orthogonal=1;" edge="1" parent="1" source="zm_CAH_QlIw9lvDRXDZG-2042" target="zm_CAH_QlIw9lvDRXDZG-2064">
          <mxGeometry relative="1" as="geometry">
            <Array as="points">
              <mxPoint x="1064" y="1038"/>
              <mxPoint x="1100" y="655"/>
              <mxPoint x="1510" y="655"/>
              <mxPoint x="1510" y="655"/>
              <mxPoint x="1900" y="655"/>
              <mxPoint x="1938" y="1493.75"/>
            </Array>
          </mxGeometry>
        </mxCell>
        <mxCell id="zm_CAH_QlIw9lvDRXDZG-2163" value="allocation" style="curved=1;endArrow=blockThin;endFill=1;fontSize=11;noEdgeStyle=1;orthogonal=1;" edge="1" parent="1" source="zm_CAH_QlIw9lvDRXDZG-2046" target="zm_CAH_QlIw9lvDRXDZG-2090">
          <mxGeometry relative="1" as="geometry">
            <Array as="points">
              <mxPoint x="1070" y="2254.1935483871016"/>
              <mxPoint x="1138" y="2495"/>
            </Array>
          </mxGeometry>
        </mxCell>
        <mxCell id="zm_CAH_QlIw9lvDRXDZG-2164" value="allocation" style="curved=1;endArrow=blockThin;endFill=1;fontSize=11;noEdgeStyle=1;orthogonal=1;" edge="1" parent="1" source="zm_CAH_QlIw9lvDRXDZG-2046" target="zm_CAH_QlIw9lvDRXDZG-2028">
          <mxGeometry relative="1" as="geometry">
            <Array as="points">
              <mxPoint x="1074" y="2251.612903225811"/>
              <mxPoint x="1138" y="2357.5"/>
            </Array>
          </mxGeometry>
        </mxCell>
        <mxCell id="zm_CAH_QlIw9lvDRXDZG-2165" value="allocation" style="curved=1;endArrow=blockThin;endFill=1;fontSize=11;noEdgeStyle=1;orthogonal=1;" edge="1" parent="1" source="zm_CAH_QlIw9lvDRXDZG-2046" target="zm_CAH_QlIw9lvDRXDZG-2117">
          <mxGeometry relative="1" as="geometry">
            <Array as="points">
              <mxPoint x="1068" y="2224.5161290322585"/>
              <mxPoint x="1138" y="955"/>
            </Array>
          </mxGeometry>
        </mxCell>
        <mxCell id="zm_CAH_QlIw9lvDRXDZG-2166" value="allocation" style="curved=1;endArrow=blockThin;endFill=1;fontSize=11;noEdgeStyle=1;orthogonal=1;" edge="1" parent="1" source="zm_CAH_QlIw9lvDRXDZG-2046" target="zm_CAH_QlIw9lvDRXDZG-2063">
          <mxGeometry relative="1" as="geometry">
            <Array as="points">
              <mxPoint x="1070" y="2225.806451612904"/>
              <mxPoint x="1138" y="1025"/>
            </Array>
          </mxGeometry>
        </mxCell>
        <mxCell id="zm_CAH_QlIw9lvDRXDZG-2167" value="allocation" style="curved=1;endArrow=blockThin;endFill=1;fontSize=11;noEdgeStyle=1;orthogonal=1;" edge="1" parent="1" source="zm_CAH_QlIw9lvDRXDZG-2046" target="zm_CAH_QlIw9lvDRXDZG-2032">
          <mxGeometry relative="1" as="geometry">
            <Array as="points">
              <mxPoint x="1072" y="2227.096774193549"/>
              <mxPoint x="1138" y="1095"/>
            </Array>
          </mxGeometry>
        </mxCell>
        <mxCell id="zm_CAH_QlIw9lvDRXDZG-2168" value="allocation" style="curved=1;endArrow=blockThin;endFill=1;fontSize=11;noEdgeStyle=1;orthogonal=1;" edge="1" parent="1" source="zm_CAH_QlIw9lvDRXDZG-2046" target="zm_CAH_QlIw9lvDRXDZG-2123">
          <mxGeometry relative="1" as="geometry">
            <Array as="points">
              <mxPoint x="1072" y="2252.9032258064562"/>
              <mxPoint x="1138" y="2427.5"/>
            </Array>
          </mxGeometry>
        </mxCell>
        <mxCell id="zm_CAH_QlIw9lvDRXDZG-2169" value="allocation" style="curved=1;endArrow=blockThin;endFill=1;fontSize=11;noEdgeStyle=1;orthogonal=1;" edge="1" parent="1" source="zm_CAH_QlIw9lvDRXDZG-2046" target="zm_CAH_QlIw9lvDRXDZG-2066">
          <mxGeometry relative="1" as="geometry">
            <Array as="points">
              <mxPoint x="1062" y="2220.6451612903224"/>
              <mxPoint x="1138" y="745"/>
            </Array>
          </mxGeometry>
        </mxCell>
        <mxCell id="zm_CAH_QlIw9lvDRXDZG-2170" value="allocation" style="curved=1;endArrow=blockThin;endFill=1;fontSize=11;noEdgeStyle=1;orthogonal=1;" edge="1" parent="1" source="zm_CAH_QlIw9lvDRXDZG-2046" target="zm_CAH_QlIw9lvDRXDZG-2035">
          <mxGeometry relative="1" as="geometry">
            <Array as="points">
              <mxPoint x="1064" y="2258.0645161290377"/>
              <mxPoint x="1138" y="2707.5"/>
            </Array>
          </mxGeometry>
        </mxCell>
        <mxCell id="zm_CAH_QlIw9lvDRXDZG-2171" value="allocation" style="curved=1;endArrow=blockThin;endFill=1;fontSize=11;noEdgeStyle=1;orthogonal=1;" edge="1" parent="1" source="zm_CAH_QlIw9lvDRXDZG-2046" target="zm_CAH_QlIw9lvDRXDZG-2040">
          <mxGeometry relative="1" as="geometry">
            <Array as="points">
              <mxPoint x="1074" y="2228.3870967741946"/>
              <mxPoint x="1138" y="1165"/>
            </Array>
          </mxGeometry>
        </mxCell>
        <mxCell id="zm_CAH_QlIw9lvDRXDZG-2172" value="allocation" style="curved=1;endArrow=blockThin;endFill=1;fontSize=11;noEdgeStyle=1;orthogonal=1;" edge="1" parent="1" source="zm_CAH_QlIw9lvDRXDZG-2046" target="zm_CAH_QlIw9lvDRXDZG-2048">
          <mxGeometry relative="1" as="geometry">
            <Array as="points">
              <mxPoint x="1076" y="2229.67741935484"/>
              <mxPoint x="1138" y="1235"/>
            </Array>
          </mxGeometry>
        </mxCell>
        <mxCell id="zm_CAH_QlIw9lvDRXDZG-2173" value="allocation" style="curved=1;endArrow=blockThin;endFill=1;fontSize=11;noEdgeStyle=1;orthogonal=1;" edge="1" parent="1" source="zm_CAH_QlIw9lvDRXDZG-2046" target="zm_CAH_QlIw9lvDRXDZG-2037">
          <mxGeometry relative="1" as="geometry">
            <Array as="points">
              <mxPoint x="1068" y="2255.483870967747"/>
              <mxPoint x="1138" y="2567.5"/>
            </Array>
          </mxGeometry>
        </mxCell>
        <mxCell id="zm_CAH_QlIw9lvDRXDZG-2174" value="allocation" style="curved=1;endArrow=blockThin;endFill=1;fontSize=11;noEdgeStyle=1;orthogonal=1;" edge="1" parent="1" source="zm_CAH_QlIw9lvDRXDZG-2046" target="zm_CAH_QlIw9lvDRXDZG-2122">
          <mxGeometry relative="1" as="geometry">
            <Array as="points">
              <mxPoint x="1066" y="2256.7741935483923"/>
              <mxPoint x="1138" y="2637.5"/>
            </Array>
          </mxGeometry>
        </mxCell>
        <mxCell id="zm_CAH_QlIw9lvDRXDZG-2175" value="allocation" style="curved=1;endArrow=blockThin;endFill=1;fontSize=11;noEdgeStyle=1;orthogonal=1;" edge="1" parent="1" source="zm_CAH_QlIw9lvDRXDZG-2046" target="zm_CAH_QlIw9lvDRXDZG-2102">
          <mxGeometry relative="1" as="geometry">
            <Array as="points">
              <mxPoint x="1086" y="2236.1290322580667"/>
              <mxPoint x="1100" y="1585"/>
              <mxPoint x="1510" y="1585"/>
              <mxPoint x="1510" y="1485"/>
              <mxPoint x="1900" y="1485"/>
              <mxPoint x="1900" y="1355"/>
              <mxPoint x="2280" y="1355"/>
              <mxPoint x="2318" y="1005"/>
            </Array>
          </mxGeometry>
        </mxCell>
        <mxCell id="zm_CAH_QlIw9lvDRXDZG-2176" value="allocation" style="curved=1;endArrow=blockThin;endFill=1;fontSize=11;noEdgeStyle=1;orthogonal=1;" edge="1" parent="1" source="zm_CAH_QlIw9lvDRXDZG-2046" target="zm_CAH_QlIw9lvDRXDZG-2069">
          <mxGeometry relative="1" as="geometry">
            <Array as="points">
              <mxPoint x="1092" y="2240.0000000000027"/>
              <mxPoint x="1138" y="1775"/>
            </Array>
          </mxGeometry>
        </mxCell>
        <mxCell id="zm_CAH_QlIw9lvDRXDZG-2177" value="allocation" style="curved=1;endArrow=blockThin;endFill=1;fontSize=11;noEdgeStyle=1;orthogonal=1;" edge="1" parent="1" source="zm_CAH_QlIw9lvDRXDZG-2046" target="zm_CAH_QlIw9lvDRXDZG-2110">
          <mxGeometry relative="1" as="geometry">
            <Array as="points">
              <mxPoint x="1080" y="2232.2580645161306"/>
              <mxPoint x="1138" y="1405"/>
            </Array>
          </mxGeometry>
        </mxCell>
        <mxCell id="zm_CAH_QlIw9lvDRXDZG-2178" value="allocation" style="curved=1;endArrow=blockThin;endFill=1;fontSize=11;noEdgeStyle=1;orthogonal=1;" edge="1" parent="1" source="zm_CAH_QlIw9lvDRXDZG-2046" target="zm_CAH_QlIw9lvDRXDZG-2051">
          <mxGeometry relative="1" as="geometry">
            <Array as="points">
              <mxPoint x="1082" y="2233.548387096776"/>
              <mxPoint x="1138" y="1475"/>
            </Array>
          </mxGeometry>
        </mxCell>
        <mxCell id="zm_CAH_QlIw9lvDRXDZG-2179" value="allocation" style="curved=1;endArrow=blockThin;endFill=1;fontSize=11;noEdgeStyle=1;orthogonal=1;" edge="1" parent="1" source="zm_CAH_QlIw9lvDRXDZG-2046" target="zm_CAH_QlIw9lvDRXDZG-2052">
          <mxGeometry relative="1" as="geometry">
            <Array as="points">
              <mxPoint x="1088" y="2237.419354838712"/>
              <mxPoint x="1138" y="1635"/>
            </Array>
          </mxGeometry>
        </mxCell>
        <mxCell id="zm_CAH_QlIw9lvDRXDZG-2180" value="allocation" style="curved=1;endArrow=blockThin;endFill=1;fontSize=11;noEdgeStyle=1;orthogonal=1;" edge="1" parent="1" source="zm_CAH_QlIw9lvDRXDZG-2046" target="zm_CAH_QlIw9lvDRXDZG-2073">
          <mxGeometry relative="1" as="geometry">
            <Array as="points">
              <mxPoint x="1090" y="2238.7096774193574"/>
              <mxPoint x="1138" y="1705"/>
            </Array>
          </mxGeometry>
        </mxCell>
        <mxCell id="zm_CAH_QlIw9lvDRXDZG-2181" value="allocation" style="curved=1;endArrow=blockThin;endFill=1;fontSize=11;noEdgeStyle=1;orthogonal=1;" edge="1" parent="1" source="zm_CAH_QlIw9lvDRXDZG-2046" target="zm_CAH_QlIw9lvDRXDZG-2022">
          <mxGeometry relative="1" as="geometry">
            <Array as="points">
              <mxPoint x="1064" y="2221.935483870968"/>
              <mxPoint x="1138" y="815"/>
            </Array>
          </mxGeometry>
        </mxCell>
        <mxCell id="zm_CAH_QlIw9lvDRXDZG-2182" value="allocation" style="curved=1;endArrow=blockThin;endFill=1;fontSize=11;noEdgeStyle=1;orthogonal=1;" edge="1" parent="1" source="zm_CAH_QlIw9lvDRXDZG-2046" target="zm_CAH_QlIw9lvDRXDZG-2062">
          <mxGeometry relative="1" as="geometry">
            <Array as="points">
              <mxPoint x="1084" y="2234.8387096774213"/>
              <mxPoint x="1138" y="1545"/>
            </Array>
          </mxGeometry>
        </mxCell>
        <mxCell id="zm_CAH_QlIw9lvDRXDZG-2183" value="allocation" style="curved=1;endArrow=blockThin;endFill=1;fontSize=11;noEdgeStyle=1;orthogonal=1;" edge="1" parent="1" source="zm_CAH_QlIw9lvDRXDZG-2046" target="zm_CAH_QlIw9lvDRXDZG-2065">
          <mxGeometry relative="1" as="geometry">
            <Array as="points">
              <mxPoint x="1090" y="2241.290322580648"/>
              <mxPoint x="1136" y="1845"/>
            </Array>
          </mxGeometry>
        </mxCell>
        <mxCell id="zm_CAH_QlIw9lvDRXDZG-2184" value="allocation" style="curved=1;endArrow=blockThin;endFill=1;fontSize=11;noEdgeStyle=1;orthogonal=1;" edge="1" parent="1" source="zm_CAH_QlIw9lvDRXDZG-2046" target="zm_CAH_QlIw9lvDRXDZG-2023">
          <mxGeometry relative="1" as="geometry">
            <Array as="points">
              <mxPoint x="1066" y="2223.225806451613"/>
              <mxPoint x="1138" y="885"/>
            </Array>
          </mxGeometry>
        </mxCell>
        <mxCell id="zm_CAH_QlIw9lvDRXDZG-2185" value="allocation" style="curved=1;endArrow=blockThin;endFill=1;fontSize=11;noEdgeStyle=1;orthogonal=1;" edge="1" parent="1" source="zm_CAH_QlIw9lvDRXDZG-2046" target="zm_CAH_QlIw9lvDRXDZG-2097">
          <mxGeometry relative="1" as="geometry">
            <Array as="points">
              <mxPoint x="1088" y="2242.5806451612934"/>
              <mxPoint x="1136" y="1915"/>
            </Array>
          </mxGeometry>
        </mxCell>
        <mxCell id="zm_CAH_QlIw9lvDRXDZG-2186" value="allocation" style="curved=1;endArrow=blockThin;endFill=1;fontSize=11;noEdgeStyle=1;orthogonal=1;" edge="1" parent="1" source="zm_CAH_QlIw9lvDRXDZG-2046" target="zm_CAH_QlIw9lvDRXDZG-2101">
          <mxGeometry relative="1" as="geometry">
            <Array as="points">
              <mxPoint x="1086" y="2243.870967741939"/>
              <mxPoint x="1136" y="1985"/>
            </Array>
          </mxGeometry>
        </mxCell>
        <mxCell id="zm_CAH_QlIw9lvDRXDZG-2187" value="allocation" style="curved=1;endArrow=blockThin;endFill=1;fontSize=11;noEdgeStyle=1;orthogonal=1;" edge="1" parent="1" source="zm_CAH_QlIw9lvDRXDZG-2046" target="zm_CAH_QlIw9lvDRXDZG-2055">
          <mxGeometry relative="1" as="geometry">
            <Array as="points">
              <mxPoint x="1076" y="2250.3225806451655"/>
              <mxPoint x="1100" y="2315"/>
              <mxPoint x="1510" y="2315"/>
              <mxPoint x="1510" y="1515"/>
              <mxPoint x="1900" y="1515"/>
              <mxPoint x="1938" y="1909"/>
            </Array>
          </mxGeometry>
        </mxCell>
        <mxCell id="zm_CAH_QlIw9lvDRXDZG-2188" value="allocation" style="curved=1;endArrow=blockThin;endFill=1;fontSize=11;noEdgeStyle=1;orthogonal=1;" edge="1" parent="1" source="zm_CAH_QlIw9lvDRXDZG-2046" target="zm_CAH_QlIw9lvDRXDZG-2057">
          <mxGeometry relative="1" as="geometry">
            <Array as="points">
              <mxPoint x="1062" y="2259.354838709683"/>
              <mxPoint x="1138" y="2777.5"/>
            </Array>
          </mxGeometry>
        </mxCell>
        <mxCell id="zm_CAH_QlIw9lvDRXDZG-2189" value="allocation" style="curved=1;endArrow=blockThin;endFill=1;fontSize=11;noEdgeStyle=1;orthogonal=1;" edge="1" parent="1" source="zm_CAH_QlIw9lvDRXDZG-2046" target="zm_CAH_QlIw9lvDRXDZG-2061">
          <mxGeometry relative="1" as="geometry">
            <Array as="points">
              <mxPoint x="1084" y="2245.161290322584"/>
              <mxPoint x="1138" y="2055"/>
            </Array>
          </mxGeometry>
        </mxCell>
        <mxCell id="zm_CAH_QlIw9lvDRXDZG-2190" value="allocation" style="curved=1;endArrow=blockThin;endFill=1;fontSize=11;noEdgeStyle=1;orthogonal=1;" edge="1" parent="1" source="zm_CAH_QlIw9lvDRXDZG-2046" target="zm_CAH_QlIw9lvDRXDZG-2085">
          <mxGeometry relative="1" as="geometry">
            <Array as="points">
              <mxPoint x="1082" y="2246.4516129032295"/>
              <mxPoint x="1136" y="2125"/>
            </Array>
          </mxGeometry>
        </mxCell>
        <mxCell id="zm_CAH_QlIw9lvDRXDZG-2191" value="allocation" style="curved=1;endArrow=blockThin;endFill=1;fontSize=11;noEdgeStyle=1;orthogonal=1;" edge="1" parent="1" source="zm_CAH_QlIw9lvDRXDZG-2046" target="zm_CAH_QlIw9lvDRXDZG-2128">
          <mxGeometry relative="1" as="geometry">
            <Array as="points">
              <mxPoint x="1080" y="2247.741935483875"/>
              <mxPoint x="1136" y="2195"/>
            </Array>
          </mxGeometry>
        </mxCell>
        <mxCell id="zm_CAH_QlIw9lvDRXDZG-2192" value="allocation" style="curved=1;endArrow=blockThin;endFill=1;fontSize=11;noEdgeStyle=1;orthogonal=1;" edge="1" parent="1" source="zm_CAH_QlIw9lvDRXDZG-2046" target="zm_CAH_QlIw9lvDRXDZG-2080">
          <mxGeometry relative="1" as="geometry">
            <Array as="points">
              <mxPoint x="1078" y="2249.03225806452"/>
              <mxPoint x="1136" y="2265"/>
            </Array>
          </mxGeometry>
        </mxCell>
        <mxCell id="zm_CAH_QlIw9lvDRXDZG-2193" value="allocation" style="curved=1;endArrow=blockThin;endFill=1;fontSize=11;noEdgeStyle=1;orthogonal=1;" edge="1" parent="1" source="zm_CAH_QlIw9lvDRXDZG-2046" target="zm_CAH_QlIw9lvDRXDZG-2026">
          <mxGeometry relative="1" as="geometry">
            <Array as="points">
              <mxPoint x="1078" y="2230.9677419354853"/>
              <mxPoint x="1138" y="1305"/>
            </Array>
          </mxGeometry>
        </mxCell>
        <mxCell id="zm_CAH_QlIw9lvDRXDZG-2194" value="allocation" style="curved=1;endArrow=blockThin;endFill=1;fontSize=11;noEdgeStyle=1;orthogonal=1;" edge="1" parent="1" source="zm_CAH_QlIw9lvDRXDZG-2056" target="zm_CAH_QlIw9lvDRXDZG-2099">
          <mxGeometry relative="1" as="geometry">
            <Array as="points">
              <mxPoint x="1862" y="1937.5"/>
              <mxPoint x="1936" y="1443"/>
            </Array>
          </mxGeometry>
        </mxCell>
        <mxCell id="zm_CAH_QlIw9lvDRXDZG-2195" value="allocation" style="curved=1;endArrow=blockThin;endFill=1;fontSize=11;noEdgeStyle=1;orthogonal=1;" edge="1" parent="1" source="zm_CAH_QlIw9lvDRXDZG-2056" target="zm_CAH_QlIw9lvDRXDZG-2106">
          <mxGeometry relative="1" as="geometry">
            <Array as="points">
              <mxPoint x="1862" y="1972.5"/>
              <mxPoint x="1936" y="2123.5714285714284"/>
            </Array>
          </mxGeometry>
        </mxCell>
        <mxCell id="zm_CAH_QlIw9lvDRXDZG-2196" value="allocation" style="curved=1;endArrow=blockThin;endFill=1;fontSize=11;noEdgeStyle=1;orthogonal=1;" edge="1" parent="1" source="zm_CAH_QlIw9lvDRXDZG-2056" target="zm_CAH_QlIw9lvDRXDZG-2045">
          <mxGeometry relative="1" as="geometry">
            <Array as="points">
              <mxPoint x="1868" y="1957.5"/>
              <mxPoint x="1934" y="1785"/>
            </Array>
          </mxGeometry>
        </mxCell>
        <mxCell id="zm_CAH_QlIw9lvDRXDZG-2197" value="allocation" style="curved=1;endArrow=blockThin;endFill=1;fontSize=11;noEdgeStyle=1;orthogonal=1;" edge="1" parent="1" source="zm_CAH_QlIw9lvDRXDZG-2056" target="zm_CAH_QlIw9lvDRXDZG-2109">
          <mxGeometry relative="1" as="geometry">
            <Array as="points">
              <mxPoint x="1866" y="1947.5"/>
              <mxPoint x="1938" y="1652.5"/>
            </Array>
          </mxGeometry>
        </mxCell>
        <mxCell id="zm_CAH_QlIw9lvDRXDZG-2198" value="allocation" style="curved=1;endArrow=blockThin;endFill=1;fontSize=11;noEdgeStyle=1;orthogonal=1;" edge="1" parent="1" source="zm_CAH_QlIw9lvDRXDZG-2056" target="zm_CAH_QlIw9lvDRXDZG-2081">
          <mxGeometry relative="1" as="geometry">
            <Array as="points">
              <mxPoint x="1868" y="1952.5"/>
              <mxPoint x="1936" y="1718.75"/>
            </Array>
          </mxGeometry>
        </mxCell>
        <mxCell id="zm_CAH_QlIw9lvDRXDZG-2199" value="allocation" style="curved=1;endArrow=blockThin;endFill=1;fontSize=11;noEdgeStyle=1;orthogonal=1;" edge="1" parent="1" source="zm_CAH_QlIw9lvDRXDZG-2056" target="zm_CAH_QlIw9lvDRXDZG-2121">
          <mxGeometry relative="1" as="geometry">
            <Array as="points">
              <mxPoint x="1866" y="1962.5"/>
              <mxPoint x="1938" y="1855"/>
            </Array>
          </mxGeometry>
        </mxCell>
        <mxCell id="zm_CAH_QlIw9lvDRXDZG-2200" value="allocation" style="curved=1;endArrow=blockThin;endFill=1;fontSize=11;noEdgeStyle=1;orthogonal=1;" edge="1" parent="1" source="zm_CAH_QlIw9lvDRXDZG-2056" target="zm_CAH_QlIw9lvDRXDZG-2055">
          <mxGeometry relative="1" as="geometry">
            <Array as="points">
              <mxPoint x="1864" y="1967.5"/>
              <mxPoint x="1936" y="1917"/>
            </Array>
          </mxGeometry>
        </mxCell>
        <mxCell id="zm_CAH_QlIw9lvDRXDZG-2201" value="allocation" style="curved=1;endArrow=blockThin;endFill=1;fontSize=11;noEdgeStyle=1;orthogonal=1;" edge="1" parent="1" source="zm_CAH_QlIw9lvDRXDZG-2056" target="zm_CAH_QlIw9lvDRXDZG-2064">
          <mxGeometry relative="1" as="geometry">
            <Array as="points">
              <mxPoint x="1864" y="1942.5"/>
              <mxPoint x="1936" y="1508.75"/>
            </Array>
          </mxGeometry>
        </mxCell>
        <mxCell id="zm_CAH_QlIw9lvDRXDZG-2202" value="allocation" style="curved=1;endArrow=blockThin;endFill=1;fontSize=11;noEdgeStyle=1;orthogonal=1;" edge="1" parent="1" source="zm_CAH_QlIw9lvDRXDZG-2066" target="zm_CAH_QlIw9lvDRXDZG-2027">
          <mxGeometry relative="1" as="geometry">
            <Array as="points">
              <mxPoint x="1472" y="718.3333333333334"/>
              <mxPoint x="1548" y="1215"/>
            </Array>
          </mxGeometry>
        </mxCell>
        <mxCell id="zm_CAH_QlIw9lvDRXDZG-2203" value="allocation" style="curved=1;endArrow=blockThin;endFill=1;fontSize=11;noEdgeStyle=1;orthogonal=1;" edge="1" parent="1" source="zm_CAH_QlIw9lvDRXDZG-2066" target="zm_CAH_QlIw9lvDRXDZG-2081">
          <mxGeometry relative="1" as="geometry">
            <Array as="points">
              <mxPoint x="1476" y="738.3333333333333"/>
              <mxPoint x="1510" y="1325"/>
              <mxPoint x="1900" y="1325"/>
              <mxPoint x="1938" y="1703.75"/>
            </Array>
          </mxGeometry>
        </mxCell>
        <mxCell id="zm_CAH_QlIw9lvDRXDZG-2204" value="allocation" style="curved=1;endArrow=blockThin;endFill=1;fontSize=11;noEdgeStyle=1;orthogonal=1;" edge="1" parent="1" source="zm_CAH_QlIw9lvDRXDZG-2066" target="zm_CAH_QlIw9lvDRXDZG-2045">
          <mxGeometry relative="1" as="geometry">
            <Array as="points">
              <mxPoint x="1474" y="744.9999999999999"/>
              <mxPoint x="1510" y="1355"/>
              <mxPoint x="1900" y="1355"/>
              <mxPoint x="1938" y="1769"/>
            </Array>
          </mxGeometry>
        </mxCell>
        <mxCell id="zm_CAH_QlIw9lvDRXDZG-2205" value="allocation" style="curved=1;endArrow=blockThin;endFill=1;fontSize=11;noEdgeStyle=1;orthogonal=1;" edge="1" parent="1" source="zm_CAH_QlIw9lvDRXDZG-2066" target="zm_CAH_QlIw9lvDRXDZG-2106">
          <mxGeometry relative="1" as="geometry">
            <Array as="points">
              <mxPoint x="1472" y="751.6666666666665"/>
              <mxPoint x="1510" y="1455"/>
              <mxPoint x="1900" y="1455"/>
              <mxPoint x="1938" y="2117.8571428571427"/>
            </Array>
          </mxGeometry>
        </mxCell>
        <mxCell id="zm_CAH_QlIw9lvDRXDZG-2206" value="allocation" style="curved=1;endArrow=blockThin;endFill=1;fontSize=11;noEdgeStyle=1;orthogonal=1;" edge="1" parent="1" source="zm_CAH_QlIw9lvDRXDZG-2066" target="zm_CAH_QlIw9lvDRXDZG-2099">
          <mxGeometry relative="1" as="geometry">
            <Array as="points">
              <mxPoint x="1474" y="725"/>
              <mxPoint x="1510" y="1265"/>
              <mxPoint x="1900" y="1265"/>
              <mxPoint x="1936" y="1427"/>
            </Array>
          </mxGeometry>
        </mxCell>
        <mxCell id="zm_CAH_QlIw9lvDRXDZG-2207" value="allocation" style="curved=1;endArrow=blockThin;endFill=1;fontSize=11;noEdgeStyle=1;orthogonal=1;" edge="1" parent="1" source="zm_CAH_QlIw9lvDRXDZG-2066" target="zm_CAH_QlIw9lvDRXDZG-2064">
          <mxGeometry relative="1" as="geometry">
            <Array as="points">
              <mxPoint x="1476" y="731.6666666666666"/>
              <mxPoint x="1510" y="1295"/>
              <mxPoint x="1900" y="1295"/>
              <mxPoint x="1936" y="1501.25"/>
            </Array>
          </mxGeometry>
        </mxCell>
        <mxCell id="zm_CAH_QlIw9lvDRXDZG-2208" value="allocation" style="curved=1;endArrow=blockThin;endFill=1;fontSize=11;noEdgeStyle=1;orthogonal=1;" edge="1" parent="1" source="zm_CAH_QlIw9lvDRXDZG-2067" target="zm_CAH_QlIw9lvDRXDZG-2084">
          <mxGeometry relative="1" as="geometry">
            <Array as="points">
              <mxPoint x="2752" y="1462.5"/>
              <mxPoint x="2826" y="1326.4285714285718"/>
            </Array>
          </mxGeometry>
        </mxCell>
        <mxCell id="zm_CAH_QlIw9lvDRXDZG-2209" value="allocation" style="curved=1;endArrow=blockThin;endFill=1;fontSize=11;noEdgeStyle=1;orthogonal=1;" edge="1" parent="1" source="zm_CAH_QlIw9lvDRXDZG-2067" target="zm_CAH_QlIw9lvDRXDZG-2024">
          <mxGeometry relative="1" as="geometry">
            <Array as="points">
              <mxPoint x="2752" y="1447.5"/>
              <mxPoint x="2826" y="1258.3333333333326"/>
            </Array>
          </mxGeometry>
        </mxCell>
        <mxCell id="zm_CAH_QlIw9lvDRXDZG-2210" value="allocation" style="curved=1;endArrow=blockThin;endFill=1;fontSize=11;noEdgeStyle=1;orthogonal=1;" edge="1" parent="1" source="zm_CAH_QlIw9lvDRXDZG-2070" target="zm_CAH_QlIw9lvDRXDZG-2084">
          <mxGeometry relative="1" as="geometry">
            <Array as="points">
              <mxPoint x="2752" y="1532.5"/>
              <mxPoint x="2828" y="1332.1428571428576"/>
            </Array>
          </mxGeometry>
        </mxCell>
        <mxCell id="zm_CAH_QlIw9lvDRXDZG-2211" value="allocation" style="curved=1;endArrow=blockThin;endFill=1;fontSize=11;noEdgeStyle=1;orthogonal=1;" edge="1" parent="1" source="zm_CAH_QlIw9lvDRXDZG-2070" target="zm_CAH_QlIw9lvDRXDZG-2024">
          <mxGeometry relative="1" as="geometry">
            <Array as="points">
              <mxPoint x="2752" y="1517.5"/>
              <mxPoint x="2828" y="1262.777777777777"/>
            </Array>
          </mxGeometry>
        </mxCell>
        <mxCell id="zm_CAH_QlIw9lvDRXDZG-2212" value="allocation" style="curved=1;endArrow=blockThin;endFill=1;fontSize=11;noEdgeStyle=1;orthogonal=1;" edge="1" parent="1" source="zm_CAH_QlIw9lvDRXDZG-2071" target="zm_CAH_QlIw9lvDRXDZG-2119">
          <mxGeometry relative="1" as="geometry">
            <Array as="points">
              <mxPoint x="246" y="1694.6551724137948"/>
              <mxPoint x="308" y="1915"/>
            </Array>
          </mxGeometry>
        </mxCell>
        <mxCell id="zm_CAH_QlIw9lvDRXDZG-2213" value="allocation" style="curved=1;endArrow=blockThin;endFill=1;fontSize=11;noEdgeStyle=1;orthogonal=1;" edge="1" parent="1" source="zm_CAH_QlIw9lvDRXDZG-2071" target="zm_CAH_QlIw9lvDRXDZG-2093">
          <mxGeometry relative="1" as="geometry">
            <Array as="points">
              <mxPoint x="246" y="1675.3448275862074"/>
              <mxPoint x="270" y="1475"/>
              <mxPoint x="700" y="1475"/>
              <mxPoint x="700" y="180"/>
              <mxPoint x="1100" y="180"/>
              <mxPoint x="1138" y="435"/>
            </Array>
          </mxGeometry>
        </mxCell>
        <mxCell id="zm_CAH_QlIw9lvDRXDZG-2214" value="allocation" style="curved=1;endArrow=blockThin;endFill=1;fontSize=11;noEdgeStyle=1;orthogonal=1;" edge="1" parent="1" source="zm_CAH_QlIw9lvDRXDZG-2071" target="zm_CAH_QlIw9lvDRXDZG-2094">
          <mxGeometry relative="1" as="geometry">
            <Array as="points">
              <mxPoint x="234" y="1667.0689655172414"/>
              <mxPoint x="308" y="1275"/>
            </Array>
          </mxGeometry>
        </mxCell>
        <mxCell id="zm_CAH_QlIw9lvDRXDZG-2215" value="allocation" style="curved=1;endArrow=blockThin;endFill=1;fontSize=11;noEdgeStyle=1;orthogonal=1;" edge="1" parent="1" source="zm_CAH_QlIw9lvDRXDZG-2071" target="zm_CAH_QlIw9lvDRXDZG-2114">
          <mxGeometry relative="1" as="geometry">
            <Array as="points">
              <mxPoint x="258" y="1683.6206896551735"/>
              <mxPoint x="270" y="1655"/>
              <mxPoint x="700" y="1655"/>
              <mxPoint x="738" y="372.5"/>
            </Array>
          </mxGeometry>
        </mxCell>
        <mxCell id="zm_CAH_QlIw9lvDRXDZG-2216" value="allocation" style="curved=1;endArrow=blockThin;endFill=1;fontSize=11;noEdgeStyle=1;orthogonal=1;" edge="1" parent="1" source="zm_CAH_QlIw9lvDRXDZG-2071" target="zm_CAH_QlIw9lvDRXDZG-2128">
          <mxGeometry relative="1" as="geometry">
            <Array as="points">
              <mxPoint x="234" y="1702.9310344827609"/>
              <mxPoint x="270" y="2115"/>
              <mxPoint x="700" y="2115"/>
              <mxPoint x="700" y="1140"/>
              <mxPoint x="1100" y="1140"/>
              <mxPoint x="1138" y="2185"/>
            </Array>
          </mxGeometry>
        </mxCell>
        <mxCell id="zm_CAH_QlIw9lvDRXDZG-2217" value="allocation" style="curved=1;endArrow=blockThin;endFill=1;fontSize=11;noEdgeStyle=1;orthogonal=1;" edge="1" parent="1" source="zm_CAH_QlIw9lvDRXDZG-2071" target="zm_CAH_QlIw9lvDRXDZG-2029">
          <mxGeometry relative="1" as="geometry">
            <Array as="points">
              <mxPoint x="260" y="1685.0000000000011"/>
              <mxPoint x="270" y="1685"/>
              <mxPoint x="700" y="1685"/>
              <mxPoint x="738" y="442.5"/>
            </Array>
          </mxGeometry>
        </mxCell>
        <mxCell id="zm_CAH_QlIw9lvDRXDZG-2218" value="allocation" style="curved=1;endArrow=blockThin;endFill=1;fontSize=11;noEdgeStyle=1;orthogonal=1;" edge="1" parent="1" source="zm_CAH_QlIw9lvDRXDZG-2071" target="zm_CAH_QlIw9lvDRXDZG-2041">
          <mxGeometry relative="1" as="geometry">
            <Array as="points">
              <mxPoint x="258" y="1686.3793103448288"/>
              <mxPoint x="270" y="1715"/>
              <mxPoint x="700" y="1715"/>
              <mxPoint x="738" y="512.5"/>
            </Array>
          </mxGeometry>
        </mxCell>
        <mxCell id="zm_CAH_QlIw9lvDRXDZG-2219" value="allocation" style="curved=1;endArrow=blockThin;endFill=1;fontSize=11;noEdgeStyle=1;orthogonal=1;" edge="1" parent="1" source="zm_CAH_QlIw9lvDRXDZG-2071" target="zm_CAH_QlIw9lvDRXDZG-2059">
          <mxGeometry relative="1" as="geometry">
            <Array as="points">
              <mxPoint x="256" y="1687.7586206896565"/>
              <mxPoint x="270" y="1745"/>
              <mxPoint x="700" y="1745"/>
              <mxPoint x="738" y="582.5"/>
            </Array>
          </mxGeometry>
        </mxCell>
        <mxCell id="zm_CAH_QlIw9lvDRXDZG-2220" value="allocation" style="curved=1;endArrow=blockThin;endFill=1;fontSize=11;noEdgeStyle=1;orthogonal=1;" edge="1" parent="1" source="zm_CAH_QlIw9lvDRXDZG-2071" target="zm_CAH_QlIw9lvDRXDZG-2082">
          <mxGeometry relative="1" as="geometry">
            <Array as="points">
              <mxPoint x="254" y="1689.1379310344842"/>
              <mxPoint x="270" y="1775"/>
              <mxPoint x="700" y="1775"/>
              <mxPoint x="738" y="682.5"/>
            </Array>
          </mxGeometry>
        </mxCell>
        <mxCell id="zm_CAH_QlIw9lvDRXDZG-2221" value="allocation" style="curved=1;endArrow=blockThin;endFill=1;fontSize=11;noEdgeStyle=1;orthogonal=1;" edge="1" parent="1" source="zm_CAH_QlIw9lvDRXDZG-2071" target="zm_CAH_QlIw9lvDRXDZG-2097">
          <mxGeometry relative="1" as="geometry">
            <Array as="points">
              <mxPoint x="240" y="1698.7931034482779"/>
              <mxPoint x="270" y="2025"/>
              <mxPoint x="700" y="2025"/>
              <mxPoint x="700" y="910"/>
              <mxPoint x="1100" y="910"/>
              <mxPoint x="1138" y="1905"/>
            </Array>
          </mxGeometry>
        </mxCell>
        <mxCell id="zm_CAH_QlIw9lvDRXDZG-2222" value="allocation" style="curved=1;endArrow=blockThin;endFill=1;fontSize=11;noEdgeStyle=1;orthogonal=1;" edge="1" parent="1" source="zm_CAH_QlIw9lvDRXDZG-2071" target="zm_CAH_QlIw9lvDRXDZG-2023">
          <mxGeometry relative="1" as="geometry">
            <Array as="points">
              <mxPoint x="238" y="1669.8275862068967"/>
              <mxPoint x="270" y="1355"/>
              <mxPoint x="700" y="1355"/>
              <mxPoint x="700" y="60"/>
              <mxPoint x="1100" y="60"/>
              <mxPoint x="1138" y="865"/>
            </Array>
          </mxGeometry>
        </mxCell>
        <mxCell id="zm_CAH_QlIw9lvDRXDZG-2223" value="allocation" style="curved=1;endArrow=blockThin;endFill=1;fontSize=11;noEdgeStyle=1;orthogonal=1;" edge="1" parent="1" source="zm_CAH_QlIw9lvDRXDZG-2071" target="zm_CAH_QlIw9lvDRXDZG-2065">
          <mxGeometry relative="1" as="geometry">
            <Array as="points">
              <mxPoint x="242" y="1697.4137931034502"/>
              <mxPoint x="270" y="1995"/>
              <mxPoint x="700" y="1995"/>
              <mxPoint x="700" y="740"/>
              <mxPoint x="1100" y="740"/>
              <mxPoint x="1138" y="1835"/>
            </Array>
          </mxGeometry>
        </mxCell>
        <mxCell id="zm_CAH_QlIw9lvDRXDZG-2224" value="allocation" style="curved=1;endArrow=blockThin;endFill=1;fontSize=11;noEdgeStyle=1;orthogonal=1;" edge="1" parent="1" source="zm_CAH_QlIw9lvDRXDZG-2071" target="zm_CAH_QlIw9lvDRXDZG-2062">
          <mxGeometry relative="1" as="geometry">
            <Array as="points">
              <mxPoint x="244" y="1696.0344827586225"/>
              <mxPoint x="270" y="1965"/>
              <mxPoint x="700" y="1965"/>
              <mxPoint x="700" y="640"/>
              <mxPoint x="1100" y="640"/>
              <mxPoint x="1138" y="1525"/>
            </Array>
          </mxGeometry>
        </mxCell>
        <mxCell id="zm_CAH_QlIw9lvDRXDZG-2225" value="allocation" style="curved=1;endArrow=blockThin;endFill=1;fontSize=11;noEdgeStyle=1;orthogonal=1;" edge="1" parent="1" source="zm_CAH_QlIw9lvDRXDZG-2071" target="zm_CAH_QlIw9lvDRXDZG-2022">
          <mxGeometry relative="1" as="geometry">
            <Array as="points">
              <mxPoint x="236" y="1668.448275862069"/>
              <mxPoint x="270" y="1325"/>
              <mxPoint x="700" y="1325"/>
              <mxPoint x="700" y="30"/>
              <mxPoint x="1100" y="30"/>
              <mxPoint x="1138" y="795"/>
            </Array>
          </mxGeometry>
        </mxCell>
        <mxCell id="zm_CAH_QlIw9lvDRXDZG-2226" value="allocation" style="curved=1;endArrow=blockThin;endFill=1;fontSize=11;noEdgeStyle=1;orthogonal=1;" edge="1" parent="1" source="zm_CAH_QlIw9lvDRXDZG-2071" target="zm_CAH_QlIw9lvDRXDZG-2051">
          <mxGeometry relative="1" as="geometry">
            <Array as="points">
              <mxPoint x="256" y="1682.2413793103458"/>
              <mxPoint x="270" y="1625"/>
              <mxPoint x="700" y="1625"/>
              <mxPoint x="700" y="330"/>
              <mxPoint x="1100" y="330"/>
              <mxPoint x="1138" y="1455"/>
            </Array>
          </mxGeometry>
        </mxCell>
        <mxCell id="zm_CAH_QlIw9lvDRXDZG-2227" value="allocation" style="curved=1;endArrow=blockThin;endFill=1;fontSize=11;noEdgeStyle=1;orthogonal=1;" edge="1" parent="1" source="zm_CAH_QlIw9lvDRXDZG-2071" target="zm_CAH_QlIw9lvDRXDZG-2110">
          <mxGeometry relative="1" as="geometry">
            <Array as="points">
              <mxPoint x="254" y="1680.8620689655181"/>
              <mxPoint x="270" y="1595"/>
              <mxPoint x="700" y="1595"/>
              <mxPoint x="700" y="300"/>
              <mxPoint x="1100" y="300"/>
              <mxPoint x="1138" y="1385"/>
            </Array>
          </mxGeometry>
        </mxCell>
        <mxCell id="zm_CAH_QlIw9lvDRXDZG-2228" value="allocation" style="curved=1;endArrow=blockThin;endFill=1;fontSize=11;noEdgeStyle=1;orthogonal=1;" edge="1" parent="1" source="zm_CAH_QlIw9lvDRXDZG-2071" target="zm_CAH_QlIw9lvDRXDZG-2091">
          <mxGeometry relative="1" as="geometry">
            <Array as="points">
              <mxPoint x="252" y="1690.5172413793118"/>
              <mxPoint x="270" y="1805"/>
              <mxPoint x="700" y="1805"/>
              <mxPoint x="738" y="782.5"/>
            </Array>
          </mxGeometry>
        </mxCell>
        <mxCell id="zm_CAH_QlIw9lvDRXDZG-2229" value="allocation" style="curved=1;endArrow=blockThin;endFill=1;fontSize=11;noEdgeStyle=1;orthogonal=1;" edge="1" parent="1" source="zm_CAH_QlIw9lvDRXDZG-2071" target="zm_CAH_QlIw9lvDRXDZG-2085">
          <mxGeometry relative="1" as="geometry">
            <Array as="points">
              <mxPoint x="236" y="1701.5517241379332"/>
              <mxPoint x="270" y="2085"/>
              <mxPoint x="700" y="2085"/>
              <mxPoint x="700" y="1110"/>
              <mxPoint x="1100" y="1110"/>
              <mxPoint x="1138" y="2115"/>
            </Array>
          </mxGeometry>
        </mxCell>
        <mxCell id="zm_CAH_QlIw9lvDRXDZG-2230" value="allocation" style="curved=1;endArrow=blockThin;endFill=1;fontSize=11;noEdgeStyle=1;orthogonal=1;" edge="1" parent="1" source="zm_CAH_QlIw9lvDRXDZG-2071" target="zm_CAH_QlIw9lvDRXDZG-2117">
          <mxGeometry relative="1" as="geometry">
            <Array as="points">
              <mxPoint x="240" y="1671.2068965517244"/>
              <mxPoint x="270" y="1385"/>
              <mxPoint x="700" y="1385"/>
              <mxPoint x="700" y="90"/>
              <mxPoint x="1100" y="90"/>
              <mxPoint x="1138" y="935"/>
            </Array>
          </mxGeometry>
        </mxCell>
        <mxCell id="zm_CAH_QlIw9lvDRXDZG-2231" value="allocation" style="curved=1;endArrow=blockThin;endFill=1;fontSize=11;noEdgeStyle=1;orthogonal=1;" edge="1" parent="1" source="zm_CAH_QlIw9lvDRXDZG-2071" target="zm_CAH_QlIw9lvDRXDZG-2063">
          <mxGeometry relative="1" as="geometry">
            <Array as="points">
              <mxPoint x="242" y="1672.586206896552"/>
              <mxPoint x="270" y="1415"/>
              <mxPoint x="700" y="1415"/>
              <mxPoint x="700" y="120"/>
              <mxPoint x="1100" y="120"/>
              <mxPoint x="1138" y="1005"/>
            </Array>
          </mxGeometry>
        </mxCell>
        <mxCell id="zm_CAH_QlIw9lvDRXDZG-2232" value="allocation" style="curved=1;endArrow=blockThin;endFill=1;fontSize=11;noEdgeStyle=1;orthogonal=1;" edge="1" parent="1" source="zm_CAH_QlIw9lvDRXDZG-2071" target="zm_CAH_QlIw9lvDRXDZG-2032">
          <mxGeometry relative="1" as="geometry">
            <Array as="points">
              <mxPoint x="244" y="1673.9655172413798"/>
              <mxPoint x="270" y="1445"/>
              <mxPoint x="700" y="1445"/>
              <mxPoint x="700" y="150"/>
              <mxPoint x="1100" y="150"/>
              <mxPoint x="1138" y="1075"/>
            </Array>
          </mxGeometry>
        </mxCell>
        <mxCell id="zm_CAH_QlIw9lvDRXDZG-2233" value="allocation" style="curved=1;endArrow=blockThin;endFill=1;fontSize=11;noEdgeStyle=1;orthogonal=1;" edge="1" parent="1" source="zm_CAH_QlIw9lvDRXDZG-2071" target="zm_CAH_QlIw9lvDRXDZG-2066">
          <mxGeometry relative="1" as="geometry">
            <Array as="points">
              <mxPoint x="232" y="1665.6896551724137"/>
              <mxPoint x="270"/>
              <mxPoint x="700"/>
              <mxPoint x="700"/>
              <mxPoint x="1100"/>
              <mxPoint x="1138" y="725"/>
            </Array>
          </mxGeometry>
        </mxCell>
        <mxCell id="zm_CAH_QlIw9lvDRXDZG-2234" value="allocation" style="curved=1;endArrow=blockThin;endFill=1;fontSize=11;noEdgeStyle=1;orthogonal=1;" edge="1" parent="1" source="zm_CAH_QlIw9lvDRXDZG-2071" target="zm_CAH_QlIw9lvDRXDZG-2040">
          <mxGeometry relative="1" as="geometry">
            <Array as="points">
              <mxPoint x="248" y="1676.724137931035"/>
              <mxPoint x="270" y="1505"/>
              <mxPoint x="700" y="1505"/>
              <mxPoint x="700" y="210"/>
              <mxPoint x="1100" y="210"/>
              <mxPoint x="1138" y="1145"/>
            </Array>
          </mxGeometry>
        </mxCell>
        <mxCell id="zm_CAH_QlIw9lvDRXDZG-2235" value="allocation" style="curved=1;endArrow=blockThin;endFill=1;fontSize=11;noEdgeStyle=1;orthogonal=1;" edge="1" parent="1" source="zm_CAH_QlIw9lvDRXDZG-2071" target="zm_CAH_QlIw9lvDRXDZG-2048">
          <mxGeometry relative="1" as="geometry">
            <Array as="points">
              <mxPoint x="250" y="1678.1034482758628"/>
              <mxPoint x="270" y="1535"/>
              <mxPoint x="700" y="1535"/>
              <mxPoint x="700" y="240"/>
              <mxPoint x="1100" y="240"/>
              <mxPoint x="1138" y="1215"/>
            </Array>
          </mxGeometry>
        </mxCell>
        <mxCell id="zm_CAH_QlIw9lvDRXDZG-2236" value="allocation" style="curved=1;endArrow=blockThin;endFill=1;fontSize=11;noEdgeStyle=1;orthogonal=1;" edge="1" parent="1" source="zm_CAH_QlIw9lvDRXDZG-2071" target="zm_CAH_QlIw9lvDRXDZG-2101">
          <mxGeometry relative="1" as="geometry">
            <Array as="points">
              <mxPoint x="238" y="1700.1724137931055"/>
              <mxPoint x="270" y="2055"/>
              <mxPoint x="700" y="2055"/>
              <mxPoint x="700" y="1080"/>
              <mxPoint x="1100" y="1080"/>
              <mxPoint x="1138" y="1975"/>
            </Array>
          </mxGeometry>
        </mxCell>
        <mxCell id="zm_CAH_QlIw9lvDRXDZG-2237" value="allocation" style="curved=1;endArrow=blockThin;endFill=1;fontSize=11;noEdgeStyle=1;orthogonal=1;" edge="1" parent="1" source="zm_CAH_QlIw9lvDRXDZG-2071" target="zm_CAH_QlIw9lvDRXDZG-2083">
          <mxGeometry relative="1" as="geometry">
            <Array as="points">
              <mxPoint x="250" y="1691.8965517241395"/>
              <mxPoint x="270" y="1835"/>
              <mxPoint x="700" y="1835"/>
              <mxPoint x="738" y="852.5"/>
            </Array>
          </mxGeometry>
        </mxCell>
        <mxCell id="zm_CAH_QlIw9lvDRXDZG-2238" value="allocation" style="curved=1;endArrow=blockThin;endFill=1;fontSize=11;noEdgeStyle=1;orthogonal=1;" edge="1" parent="1" source="zm_CAH_QlIw9lvDRXDZG-2071" target="zm_CAH_QlIw9lvDRXDZG-2080">
          <mxGeometry relative="1" as="geometry">
            <Array as="points">
              <mxPoint x="232" y="1704.3103448275886"/>
              <mxPoint x="270" y="2145"/>
              <mxPoint x="700" y="2145"/>
              <mxPoint x="700" y="1170"/>
              <mxPoint x="1100" y="1170"/>
              <mxPoint x="1138" y="2255"/>
            </Array>
          </mxGeometry>
        </mxCell>
        <mxCell id="zm_CAH_QlIw9lvDRXDZG-2239" value="allocation" style="curved=1;endArrow=blockThin;endFill=1;fontSize=11;noEdgeStyle=1;orthogonal=1;" edge="1" parent="1" source="zm_CAH_QlIw9lvDRXDZG-2071" target="zm_CAH_QlIw9lvDRXDZG-2026">
          <mxGeometry relative="1" as="geometry">
            <Array as="points">
              <mxPoint x="252" y="1679.4827586206904"/>
              <mxPoint x="270" y="1565"/>
              <mxPoint x="700" y="1565"/>
              <mxPoint x="700" y="270"/>
              <mxPoint x="1100" y="270"/>
              <mxPoint x="1138" y="1285"/>
            </Array>
          </mxGeometry>
        </mxCell>
        <mxCell id="zm_CAH_QlIw9lvDRXDZG-2240" value="allocation" style="curved=1;endArrow=blockThin;endFill=1;fontSize=11;noEdgeStyle=1;orthogonal=1;" edge="1" parent="1" source="zm_CAH_QlIw9lvDRXDZG-2071" target="zm_CAH_QlIw9lvDRXDZG-2050">
          <mxGeometry relative="1" as="geometry">
            <Array as="points">
              <mxPoint x="248" y="1693.2758620689672"/>
              <mxPoint x="270" y="1865"/>
              <mxPoint x="700" y="1865"/>
              <mxPoint x="738" y="952.5"/>
            </Array>
          </mxGeometry>
        </mxCell>
        <mxCell id="zm_CAH_QlIw9lvDRXDZG-2241" value="allocation" style="curved=1;endArrow=blockThin;endFill=1;fontSize=11;noEdgeStyle=1;orthogonal=1;" edge="1" parent="1" source="zm_CAH_QlIw9lvDRXDZG-2075" target="zm_CAH_QlIw9lvDRXDZG-2098">
          <mxGeometry relative="1" as="geometry">
            <Array as="points">
              <mxPoint x="232" y="2195"/>
              <mxPoint x="308" y="2195"/>
            </Array>
          </mxGeometry>
        </mxCell>
        <mxCell id="zm_CAH_QlIw9lvDRXDZG-2242" value="allocation" style="curved=1;endArrow=blockThin;endFill=1;fontSize=11;noEdgeStyle=1;orthogonal=1;" edge="1" parent="1" source="zm_CAH_QlIw9lvDRXDZG-2076" target="zm_CAH_QlIw9lvDRXDZG-2106">
          <mxGeometry relative="1" as="geometry">
            <Array as="points">
              <mxPoint x="1862" y="2415.8333333333335"/>
              <mxPoint x="1938" y="2152.1428571428573"/>
            </Array>
          </mxGeometry>
        </mxCell>
        <mxCell id="zm_CAH_QlIw9lvDRXDZG-2243" value="allocation" style="curved=1;endArrow=blockThin;endFill=1;fontSize=11;noEdgeStyle=1;orthogonal=1;" edge="1" parent="1" source="zm_CAH_QlIw9lvDRXDZG-2076" target="zm_CAH_QlIw9lvDRXDZG-2025">
          <mxGeometry relative="1" as="geometry">
            <Array as="points">
              <mxPoint x="1862" y="2400.8333333333335"/>
              <mxPoint x="1938" y="2076.25"/>
            </Array>
          </mxGeometry>
        </mxCell>
        <mxCell id="zm_CAH_QlIw9lvDRXDZG-2244" value="allocation" style="curved=1;endArrow=blockThin;endFill=1;fontSize=11;noEdgeStyle=1;orthogonal=1;" edge="1" parent="1" source="zm_CAH_QlIw9lvDRXDZG-2077" target="zm_CAH_QlIw9lvDRXDZG-2099">
          <mxGeometry relative="1" as="geometry">
            <Array as="points">
              <mxPoint x="1862" y="2007.5"/>
              <mxPoint x="1938" y="1451"/>
            </Array>
          </mxGeometry>
        </mxCell>
        <mxCell id="zm_CAH_QlIw9lvDRXDZG-2245" value="allocation" style="curved=1;endArrow=blockThin;endFill=1;fontSize=11;noEdgeStyle=1;orthogonal=1;" edge="1" parent="1" source="zm_CAH_QlIw9lvDRXDZG-2077" target="zm_CAH_QlIw9lvDRXDZG-2106">
          <mxGeometry relative="1" as="geometry">
            <Array as="points">
              <mxPoint x="1862" y="2042.5"/>
              <mxPoint x="1934" y="2129.285714285714"/>
            </Array>
          </mxGeometry>
        </mxCell>
        <mxCell id="zm_CAH_QlIw9lvDRXDZG-2246" value="allocation" style="curved=1;endArrow=blockThin;endFill=1;fontSize=11;noEdgeStyle=1;orthogonal=1;" edge="1" parent="1" source="zm_CAH_QlIw9lvDRXDZG-2077" target="zm_CAH_QlIw9lvDRXDZG-2072">
          <mxGeometry relative="1" as="geometry">
            <Array as="points">
              <mxPoint x="1866" y="2017.5"/>
              <mxPoint x="1938" y="1582.5"/>
            </Array>
          </mxGeometry>
        </mxCell>
        <mxCell id="zm_CAH_QlIw9lvDRXDZG-2247" value="allocation" style="curved=1;endArrow=blockThin;endFill=1;fontSize=11;noEdgeStyle=1;orthogonal=1;" edge="1" parent="1" source="zm_CAH_QlIw9lvDRXDZG-2077" target="zm_CAH_QlIw9lvDRXDZG-2045">
          <mxGeometry relative="1" as="geometry">
            <Array as="points">
              <mxPoint x="1868" y="2027.5"/>
              <mxPoint x="1936" y="1793"/>
            </Array>
          </mxGeometry>
        </mxCell>
        <mxCell id="zm_CAH_QlIw9lvDRXDZG-2248" value="allocation" style="curved=1;endArrow=blockThin;endFill=1;fontSize=11;noEdgeStyle=1;orthogonal=1;" edge="1" parent="1" source="zm_CAH_QlIw9lvDRXDZG-2077" target="zm_CAH_QlIw9lvDRXDZG-2081">
          <mxGeometry relative="1" as="geometry">
            <Array as="points">
              <mxPoint x="1868" y="2022.5"/>
              <mxPoint x="1938" y="1726.25"/>
            </Array>
          </mxGeometry>
        </mxCell>
        <mxCell id="zm_CAH_QlIw9lvDRXDZG-2249" value="allocation" style="curved=1;endArrow=blockThin;endFill=1;fontSize=11;noEdgeStyle=1;orthogonal=1;" edge="1" parent="1" source="zm_CAH_QlIw9lvDRXDZG-2077" target="zm_CAH_QlIw9lvDRXDZG-2044">
          <mxGeometry relative="1" as="geometry">
            <Array as="points">
              <mxPoint x="1864" y="2037.5"/>
              <mxPoint x="1938" y="1995"/>
            </Array>
          </mxGeometry>
        </mxCell>
        <mxCell id="zm_CAH_QlIw9lvDRXDZG-2250" value="allocation" style="curved=1;endArrow=blockThin;endFill=1;fontSize=11;noEdgeStyle=1;orthogonal=1;" edge="1" parent="1" source="zm_CAH_QlIw9lvDRXDZG-2077" target="zm_CAH_QlIw9lvDRXDZG-2055">
          <mxGeometry relative="1" as="geometry">
            <Array as="points">
              <mxPoint x="1866" y="2032.5"/>
              <mxPoint x="1934" y="1925"/>
            </Array>
          </mxGeometry>
        </mxCell>
        <mxCell id="zm_CAH_QlIw9lvDRXDZG-2251" value="allocation" style="curved=1;endArrow=blockThin;endFill=1;fontSize=11;noEdgeStyle=1;orthogonal=1;" edge="1" parent="1" source="zm_CAH_QlIw9lvDRXDZG-2077" target="zm_CAH_QlIw9lvDRXDZG-2064">
          <mxGeometry relative="1" as="geometry">
            <Array as="points">
              <mxPoint x="1864" y="2012.5"/>
              <mxPoint x="1938" y="1516.25"/>
            </Array>
          </mxGeometry>
        </mxCell>
        <mxCell id="zm_CAH_QlIw9lvDRXDZG-2252" value="allocation" style="curved=1;endArrow=blockThin;endFill=1;fontSize=11;noEdgeStyle=1;orthogonal=1;" edge="1" parent="1" source="zm_CAH_QlIw9lvDRXDZG-2086" target="zm_CAH_QlIw9lvDRXDZG-2106">
          <mxGeometry relative="1" as="geometry">
            <Array as="points">
              <mxPoint x="1862" y="2252.5"/>
              <mxPoint x="1936" y="2146.4285714285716"/>
            </Array>
          </mxGeometry>
        </mxCell>
        <mxCell id="zm_CAH_QlIw9lvDRXDZG-2253" value="allocation" style="curved=1;endArrow=blockThin;endFill=1;fontSize=11;noEdgeStyle=1;orthogonal=1;" edge="1" parent="1" source="zm_CAH_QlIw9lvDRXDZG-2086" target="zm_CAH_QlIw9lvDRXDZG-2025">
          <mxGeometry relative="1" as="geometry">
            <Array as="points">
              <mxPoint x="1862" y="2237.5"/>
              <mxPoint x="1936" y="2068.75"/>
            </Array>
          </mxGeometry>
        </mxCell>
        <mxCell id="zm_CAH_QlIw9lvDRXDZG-2254" value="allocation" style="curved=1;endArrow=blockThin;endFill=1;fontSize=11;noEdgeStyle=1;orthogonal=1;" edge="1" parent="1" source="zm_CAH_QlIw9lvDRXDZG-2088" target="zm_CAH_QlIw9lvDRXDZG-2056">
          <mxGeometry relative="1" as="geometry">
            <Array as="points">
              <mxPoint x="1472" y="2847.5"/>
              <mxPoint x="1548" y="1962.5"/>
            </Array>
          </mxGeometry>
        </mxCell>
        <mxCell id="zm_CAH_QlIw9lvDRXDZG-2255" value="allocation" style="curved=1;endArrow=blockThin;endFill=1;fontSize=11;noEdgeStyle=1;orthogonal=1;" edge="1" parent="1" source="zm_CAH_QlIw9lvDRXDZG-2088" target="zm_CAH_QlIw9lvDRXDZG-2077">
          <mxGeometry relative="1" as="geometry">
            <Array as="points">
              <mxPoint x="1472" y="2862.5"/>
              <mxPoint x="1548" y="2032.5"/>
            </Array>
          </mxGeometry>
        </mxCell>
        <mxCell id="zm_CAH_QlIw9lvDRXDZG-2256" value="allocation" style="curved=1;endArrow=blockThin;endFill=1;fontSize=11;noEdgeStyle=1;orthogonal=1;" edge="1" parent="1" source="zm_CAH_QlIw9lvDRXDZG-2090" target="zm_CAH_QlIw9lvDRXDZG-2099">
          <mxGeometry relative="1" as="geometry">
            <Array as="points">
              <mxPoint x="1476" y="2492.142857142857"/>
              <mxPoint x="1510" y="1575"/>
              <mxPoint x="1900" y="1575"/>
              <mxPoint x="1934" y="1435"/>
            </Array>
          </mxGeometry>
        </mxCell>
        <mxCell id="zm_CAH_QlIw9lvDRXDZG-2257" value="allocation" style="curved=1;endArrow=blockThin;endFill=1;fontSize=11;noEdgeStyle=1;orthogonal=1;" edge="1" parent="1" source="zm_CAH_QlIw9lvDRXDZG-2090" target="zm_CAH_QlIw9lvDRXDZG-2095">
          <mxGeometry relative="1" as="geometry">
            <Array as="points">
              <mxPoint x="1482" y="2500.714285714285"/>
              <mxPoint x="1548" y="1685"/>
            </Array>
          </mxGeometry>
        </mxCell>
        <mxCell id="zm_CAH_QlIw9lvDRXDZG-2258" value="allocation" style="curved=1;endArrow=blockThin;endFill=1;fontSize=11;noEdgeStyle=1;orthogonal=1;" edge="1" parent="1" source="zm_CAH_QlIw9lvDRXDZG-2090" target="zm_CAH_QlIw9lvDRXDZG-2106">
          <mxGeometry relative="1" as="geometry">
            <Array as="points">
              <mxPoint x="1472" y="2523.571428571426"/>
              <mxPoint x="1510" y="2105"/>
              <mxPoint x="1900" y="2105"/>
              <mxPoint x="1932" y="2135"/>
            </Array>
          </mxGeometry>
        </mxCell>
        <mxCell id="zm_CAH_QlIw9lvDRXDZG-2259" value="allocation" style="curved=1;endArrow=blockThin;endFill=1;fontSize=11;noEdgeStyle=1;orthogonal=1;" edge="1" parent="1" source="zm_CAH_QlIw9lvDRXDZG-2090" target="zm_CAH_QlIw9lvDRXDZG-2072">
          <mxGeometry relative="1" as="geometry">
            <Array as="points">
              <mxPoint x="1478" y="2494.9999999999995"/>
              <mxPoint x="1510" y="1605"/>
              <mxPoint x="1900" y="1605"/>
              <mxPoint x="1938" y="1567.5"/>
            </Array>
          </mxGeometry>
        </mxCell>
        <mxCell id="zm_CAH_QlIw9lvDRXDZG-2260" value="allocation" style="curved=1;endArrow=blockThin;endFill=1;fontSize=11;noEdgeStyle=1;orthogonal=1;" edge="1" parent="1" source="zm_CAH_QlIw9lvDRXDZG-2090" target="zm_CAH_QlIw9lvDRXDZG-2045">
          <mxGeometry relative="1" as="geometry">
            <Array as="points">
              <mxPoint x="1484" y="2506.42857142857"/>
              <mxPoint x="1510" y="1765"/>
              <mxPoint x="1900" y="1765"/>
              <mxPoint x="1936" y="1777"/>
            </Array>
          </mxGeometry>
        </mxCell>
        <mxCell id="zm_CAH_QlIw9lvDRXDZG-2261" value="allocation" style="curved=1;endArrow=blockThin;endFill=1;fontSize=11;noEdgeStyle=1;orthogonal=1;" edge="1" parent="1" source="zm_CAH_QlIw9lvDRXDZG-2090" target="zm_CAH_QlIw9lvDRXDZG-2109">
          <mxGeometry relative="1" as="geometry">
            <Array as="points">
              <mxPoint x="1480" y="2497.857142857142"/>
              <mxPoint x="1510" y="1635"/>
              <mxPoint x="1900" y="1635"/>
              <mxPoint x="1938" y="1637.5"/>
            </Array>
          </mxGeometry>
        </mxCell>
        <mxCell id="zm_CAH_QlIw9lvDRXDZG-2262" value="allocation" style="curved=1;endArrow=blockThin;endFill=1;fontSize=11;noEdgeStyle=1;orthogonal=1;" edge="1" parent="1" source="zm_CAH_QlIw9lvDRXDZG-2090" target="zm_CAH_QlIw9lvDRXDZG-2081">
          <mxGeometry relative="1" as="geometry">
            <Array as="points">
              <mxPoint x="1484" y="2503.5714285714275"/>
              <mxPoint x="1510" y="1735"/>
              <mxPoint x="1900" y="1735"/>
              <mxPoint x="1936" y="1711.25"/>
            </Array>
          </mxGeometry>
        </mxCell>
        <mxCell id="zm_CAH_QlIw9lvDRXDZG-2263" value="allocation" style="curved=1;endArrow=blockThin;endFill=1;fontSize=11;noEdgeStyle=1;orthogonal=1;" edge="1" parent="1" source="zm_CAH_QlIw9lvDRXDZG-2090" target="zm_CAH_QlIw9lvDRXDZG-2104">
          <mxGeometry relative="1" as="geometry">
            <Array as="points">
              <mxPoint x="1482" y="2509.285714285713"/>
              <mxPoint x="1548" y="1815"/>
            </Array>
          </mxGeometry>
        </mxCell>
        <mxCell id="zm_CAH_QlIw9lvDRXDZG-2264" value="allocation" style="curved=1;endArrow=blockThin;endFill=1;fontSize=11;noEdgeStyle=1;orthogonal=1;" edge="1" parent="1" source="zm_CAH_QlIw9lvDRXDZG-2090" target="zm_CAH_QlIw9lvDRXDZG-2078">
          <mxGeometry relative="1" as="geometry">
            <Array as="points">
              <mxPoint x="1480" y="2512.1428571428555"/>
              <mxPoint x="1548" y="1885"/>
            </Array>
          </mxGeometry>
        </mxCell>
        <mxCell id="zm_CAH_QlIw9lvDRXDZG-2265" value="allocation" style="curved=1;endArrow=blockThin;endFill=1;fontSize=11;noEdgeStyle=1;orthogonal=1;" edge="1" parent="1" source="zm_CAH_QlIw9lvDRXDZG-2090" target="zm_CAH_QlIw9lvDRXDZG-2056">
          <mxGeometry relative="1" as="geometry">
            <Array as="points">
              <mxPoint x="1478" y="2514.999999999998"/>
              <mxPoint x="1548" y="1947.5"/>
            </Array>
          </mxGeometry>
        </mxCell>
        <mxCell id="zm_CAH_QlIw9lvDRXDZG-2266" value="allocation" style="curved=1;endArrow=blockThin;endFill=1;fontSize=11;noEdgeStyle=1;orthogonal=1;" edge="1" parent="1" source="zm_CAH_QlIw9lvDRXDZG-2090" target="zm_CAH_QlIw9lvDRXDZG-2077">
          <mxGeometry relative="1" as="geometry">
            <Array as="points">
              <mxPoint x="1476" y="2517.857142857141"/>
              <mxPoint x="1548" y="2017.5"/>
            </Array>
          </mxGeometry>
        </mxCell>
        <mxCell id="zm_CAH_QlIw9lvDRXDZG-2267" value="allocation" style="curved=1;endArrow=blockThin;endFill=1;fontSize=11;noEdgeStyle=1;orthogonal=1;" edge="1" parent="1" source="zm_CAH_QlIw9lvDRXDZG-2090" target="zm_CAH_QlIw9lvDRXDZG-2033">
          <mxGeometry relative="1" as="geometry">
            <Array as="points">
              <mxPoint x="1472" y="2486.4285714285716"/>
              <mxPoint x="1548" y="1415"/>
            </Array>
          </mxGeometry>
        </mxCell>
        <mxCell id="zm_CAH_QlIw9lvDRXDZG-2268" value="allocation" style="curved=1;endArrow=blockThin;endFill=1;fontSize=11;noEdgeStyle=1;orthogonal=1;" edge="1" parent="1" source="zm_CAH_QlIw9lvDRXDZG-2090" target="zm_CAH_QlIw9lvDRXDZG-2055">
          <mxGeometry relative="1" as="geometry">
            <Array as="points">
              <mxPoint x="1474" y="2520.7142857142835"/>
              <mxPoint x="1510" y="2075"/>
              <mxPoint x="1900" y="2075"/>
              <mxPoint x="1936" y="1933"/>
            </Array>
          </mxGeometry>
        </mxCell>
        <mxCell id="zm_CAH_QlIw9lvDRXDZG-2269" value="allocation" style="curved=1;endArrow=blockThin;endFill=1;fontSize=11;noEdgeStyle=1;orthogonal=1;" edge="1" parent="1" source="zm_CAH_QlIw9lvDRXDZG-2090" target="zm_CAH_QlIw9lvDRXDZG-2024">
          <mxGeometry relative="1" as="geometry">
            <Array as="points">
              <mxPoint x="1474" y="2489.285714285714"/>
              <mxPoint x="1510" y="1545"/>
              <mxPoint x="1900" y="1545"/>
              <mxPoint x="1900" y="1385"/>
              <mxPoint x="2280" y="1385"/>
              <mxPoint x="2280" y="1055"/>
              <mxPoint x="2790" y="1055"/>
              <mxPoint x="2826" y="1231.6666666666665"/>
            </Array>
          </mxGeometry>
        </mxCell>
        <mxCell id="zm_CAH_QlIw9lvDRXDZG-2270" value="allocation" style="curved=1;endArrow=blockThin;endFill=1;fontSize=11;noEdgeStyle=1;orthogonal=1;" edge="1" parent="1" source="zm_CAH_QlIw9lvDRXDZG-2093" target="zm_CAH_QlIw9lvDRXDZG-2033">
          <mxGeometry relative="1" as="geometry">
            <Array as="points">
              <mxPoint x="1472" y="435"/>
              <mxPoint x="1548" y="1395"/>
            </Array>
          </mxGeometry>
        </mxCell>
        <mxCell id="zm_CAH_QlIw9lvDRXDZG-2271" value="allocation" style="curved=1;endArrow=blockThin;endFill=1;fontSize=11;noEdgeStyle=1;orthogonal=1;" edge="1" parent="1" source="zm_CAH_QlIw9lvDRXDZG-2098" target="zm_CAH_QlIw9lvDRXDZG-2090">
          <mxGeometry relative="1" as="geometry">
            <Array as="points">
              <mxPoint x="692" y="2204.310344827593"/>
              <mxPoint x="700" y="2670"/>
              <mxPoint x="1100" y="2670"/>
              <mxPoint x="1136" y="2505"/>
            </Array>
          </mxGeometry>
        </mxCell>
        <mxCell id="zm_CAH_QlIw9lvDRXDZG-2272" value="allocation" style="curved=1;endArrow=blockThin;endFill=1;fontSize=11;noEdgeStyle=1;orthogonal=1;" edge="1" parent="1" source="zm_CAH_QlIw9lvDRXDZG-2098" target="zm_CAH_QlIw9lvDRXDZG-2107">
          <mxGeometry relative="1" as="geometry">
            <Array as="points">
              <mxPoint x="690" y="2205.000000000007"/>
              <mxPoint x="738" y="2720"/>
            </Array>
          </mxGeometry>
        </mxCell>
        <mxCell id="zm_CAH_QlIw9lvDRXDZG-2273" value="allocation" style="curved=1;endArrow=blockThin;endFill=1;fontSize=11;noEdgeStyle=1;orthogonal=1;" edge="1" parent="1" source="zm_CAH_QlIw9lvDRXDZG-2098" target="zm_CAH_QlIw9lvDRXDZG-2046">
          <mxGeometry relative="1" as="geometry">
            <Array as="points">
              <mxPoint x="714" y="2196.7241379310394"/>
              <mxPoint x="738" y="2240"/>
            </Array>
          </mxGeometry>
        </mxCell>
        <mxCell id="zm_CAH_QlIw9lvDRXDZG-2274" value="allocation" style="curved=1;endArrow=blockThin;endFill=1;fontSize=11;noEdgeStyle=1;orthogonal=1;" edge="1" parent="1" source="zm_CAH_QlIw9lvDRXDZG-2098" target="zm_CAH_QlIw9lvDRXDZG-2028">
          <mxGeometry relative="1" as="geometry">
            <Array as="points">
              <mxPoint x="696" y="2202.931034482765"/>
              <mxPoint x="700" y="2610"/>
              <mxPoint x="1100" y="2610"/>
              <mxPoint x="1138" y="2372.5"/>
            </Array>
          </mxGeometry>
        </mxCell>
        <mxCell id="zm_CAH_QlIw9lvDRXDZG-2275" value="allocation" style="curved=1;endArrow=blockThin;endFill=1;fontSize=11;noEdgeStyle=1;orthogonal=1;" edge="1" parent="1" source="zm_CAH_QlIw9lvDRXDZG-2098" target="zm_CAH_QlIw9lvDRXDZG-2117">
          <mxGeometry relative="1" as="geometry">
            <Array as="points">
              <mxPoint x="686" y="2183.6206896551744"/>
              <mxPoint x="700" y="1290"/>
              <mxPoint x="1100" y="1290"/>
              <mxPoint x="1136" y="945"/>
            </Array>
          </mxGeometry>
        </mxCell>
        <mxCell id="zm_CAH_QlIw9lvDRXDZG-2276" value="allocation" style="curved=1;endArrow=blockThin;endFill=1;fontSize=11;noEdgeStyle=1;orthogonal=1;" edge="1" parent="1" source="zm_CAH_QlIw9lvDRXDZG-2098" target="zm_CAH_QlIw9lvDRXDZG-2063">
          <mxGeometry relative="1" as="geometry">
            <Array as="points">
              <mxPoint x="688" y="2184.3103448275883"/>
              <mxPoint x="700" y="1320"/>
              <mxPoint x="1100" y="1320"/>
              <mxPoint x="1136" y="1015"/>
            </Array>
          </mxGeometry>
        </mxCell>
        <mxCell id="zm_CAH_QlIw9lvDRXDZG-2277" value="allocation" style="curved=1;endArrow=blockThin;endFill=1;fontSize=11;noEdgeStyle=1;orthogonal=1;" edge="1" parent="1" source="zm_CAH_QlIw9lvDRXDZG-2098" target="zm_CAH_QlIw9lvDRXDZG-2032">
          <mxGeometry relative="1" as="geometry">
            <Array as="points">
              <mxPoint x="690" y="2185.0000000000023"/>
              <mxPoint x="700" y="1350"/>
              <mxPoint x="1100" y="1350"/>
              <mxPoint x="1136" y="1085"/>
            </Array>
          </mxGeometry>
        </mxCell>
        <mxCell id="zm_CAH_QlIw9lvDRXDZG-2278" value="allocation" style="curved=1;endArrow=blockThin;endFill=1;fontSize=11;noEdgeStyle=1;orthogonal=1;" edge="1" parent="1" source="zm_CAH_QlIw9lvDRXDZG-2098" target="zm_CAH_QlIw9lvDRXDZG-2123">
          <mxGeometry relative="1" as="geometry">
            <Array as="points">
              <mxPoint x="694" y="2203.620689655179"/>
              <mxPoint x="700" y="2640"/>
              <mxPoint x="1100" y="2640"/>
              <mxPoint x="1138" y="2442.5"/>
            </Array>
          </mxGeometry>
        </mxCell>
        <mxCell id="zm_CAH_QlIw9lvDRXDZG-2279" value="allocation" style="curved=1;endArrow=blockThin;endFill=1;fontSize=11;noEdgeStyle=1;orthogonal=1;" edge="1" parent="1" source="zm_CAH_QlIw9lvDRXDZG-2098" target="zm_CAH_QlIw9lvDRXDZG-2066">
          <mxGeometry relative="1" as="geometry">
            <Array as="points">
              <mxPoint x="680" y="2181.5517241379325"/>
              <mxPoint x="700" y="1200"/>
              <mxPoint x="1100" y="1200"/>
              <mxPoint x="1136" y="735"/>
            </Array>
          </mxGeometry>
        </mxCell>
        <mxCell id="zm_CAH_QlIw9lvDRXDZG-2280" value="allocation" style="curved=1;endArrow=blockThin;endFill=1;fontSize=11;noEdgeStyle=1;orthogonal=1;" edge="1" parent="1" source="zm_CAH_QlIw9lvDRXDZG-2098" target="zm_CAH_QlIw9lvDRXDZG-2040">
          <mxGeometry relative="1" as="geometry">
            <Array as="points">
              <mxPoint x="692" y="2185.689655172416"/>
              <mxPoint x="700" y="1380"/>
              <mxPoint x="1100" y="1380"/>
              <mxPoint x="1136" y="1155"/>
            </Array>
          </mxGeometry>
        </mxCell>
        <mxCell id="zm_CAH_QlIw9lvDRXDZG-2281" value="allocation" style="curved=1;endArrow=blockThin;endFill=1;fontSize=11;noEdgeStyle=1;orthogonal=1;" edge="1" parent="1" source="zm_CAH_QlIw9lvDRXDZG-2098" target="zm_CAH_QlIw9lvDRXDZG-2048">
          <mxGeometry relative="1" as="geometry">
            <Array as="points">
              <mxPoint x="700" y="2188.448275862072"/>
              <mxPoint x="700" y="1620"/>
              <mxPoint x="1100" y="1620"/>
              <mxPoint x="1136" y="1225"/>
            </Array>
          </mxGeometry>
        </mxCell>
        <mxCell id="zm_CAH_QlIw9lvDRXDZG-2282" value="allocation" style="curved=1;endArrow=blockThin;endFill=1;fontSize=11;noEdgeStyle=1;orthogonal=1;" edge="1" parent="1" source="zm_CAH_QlIw9lvDRXDZG-2098" target="zm_CAH_QlIw9lvDRXDZG-2037">
          <mxGeometry relative="1" as="geometry">
            <Array as="points">
              <mxPoint x="676" y="2209.8275862069045"/>
              <mxPoint x="700" y="3190"/>
              <mxPoint x="1100" y="3190"/>
              <mxPoint x="1138" y="2582.5"/>
            </Array>
          </mxGeometry>
        </mxCell>
        <mxCell id="zm_CAH_QlIw9lvDRXDZG-2283" value="allocation" style="curved=1;endArrow=blockThin;endFill=1;fontSize=11;noEdgeStyle=1;orthogonal=1;" edge="1" parent="1" source="zm_CAH_QlIw9lvDRXDZG-2098" target="zm_CAH_QlIw9lvDRXDZG-2122">
          <mxGeometry relative="1" as="geometry">
            <Array as="points">
              <mxPoint x="674" y="2210.5172413793184"/>
              <mxPoint x="700" y="3220"/>
              <mxPoint x="1100" y="3220"/>
              <mxPoint x="1138" y="2652.5"/>
            </Array>
          </mxGeometry>
        </mxCell>
        <mxCell id="zm_CAH_QlIw9lvDRXDZG-2284" value="allocation" style="curved=1;endArrow=blockThin;endFill=1;fontSize=11;noEdgeStyle=1;orthogonal=1;" edge="1" parent="1" source="zm_CAH_QlIw9lvDRXDZG-2098" target="zm_CAH_QlIw9lvDRXDZG-2131">
          <mxGeometry relative="1" as="geometry">
            <Array as="points">
              <mxPoint x="708" y="2198.7931034482813"/>
              <mxPoint x="738" y="2370"/>
            </Array>
          </mxGeometry>
        </mxCell>
        <mxCell id="zm_CAH_QlIw9lvDRXDZG-2285" value="allocation" style="curved=1;endArrow=blockThin;endFill=1;fontSize=11;noEdgeStyle=1;orthogonal=1;" edge="1" parent="1" source="zm_CAH_QlIw9lvDRXDZG-2098" target="zm_CAH_QlIw9lvDRXDZG-2100">
          <mxGeometry relative="1" as="geometry">
            <Array as="points">
              <mxPoint x="706" y="2199.482758620695"/>
              <mxPoint x="738" y="2440"/>
            </Array>
          </mxGeometry>
        </mxCell>
        <mxCell id="zm_CAH_QlIw9lvDRXDZG-2286" value="allocation" style="curved=1;endArrow=blockThin;endFill=1;fontSize=11;noEdgeStyle=1;orthogonal=1;" edge="1" parent="1" source="zm_CAH_QlIw9lvDRXDZG-2098" target="zm_CAH_QlIw9lvDRXDZG-2033">
          <mxGeometry relative="1" as="geometry">
            <Array as="points">
              <mxPoint x="716" y="2193.9655172413836"/>
              <mxPoint x="700" y="2100"/>
              <mxPoint x="1100" y="2100"/>
              <mxPoint x="1100" y="1345"/>
              <mxPoint x="1510" y="1345"/>
              <mxPoint x="1546" y="1405"/>
            </Array>
          </mxGeometry>
        </mxCell>
        <mxCell id="zm_CAH_QlIw9lvDRXDZG-2287" value="allocation" style="curved=1;endArrow=blockThin;endFill=1;fontSize=11;noEdgeStyle=1;orthogonal=1;" edge="1" parent="1" source="zm_CAH_QlIw9lvDRXDZG-2098" target="zm_CAH_QlIw9lvDRXDZG-2091">
          <mxGeometry relative="1" as="geometry">
            <Array as="points">
              <mxPoint x="672" y="2178.7931034482767"/>
              <mxPoint x="738" y="797.5"/>
            </Array>
          </mxGeometry>
        </mxCell>
        <mxCell id="zm_CAH_QlIw9lvDRXDZG-2288" value="allocation" style="curved=1;endArrow=blockThin;endFill=1;fontSize=11;noEdgeStyle=1;orthogonal=1;" edge="1" parent="1" source="zm_CAH_QlIw9lvDRXDZG-2098" target="zm_CAH_QlIw9lvDRXDZG-2110">
          <mxGeometry relative="1" as="geometry">
            <Array as="points">
              <mxPoint x="718" y="2194.6551724137976"/>
              <mxPoint x="700" y="2130"/>
              <mxPoint x="1100" y="2130"/>
              <mxPoint x="1136" y="1395"/>
            </Array>
          </mxGeometry>
        </mxCell>
        <mxCell id="zm_CAH_QlIw9lvDRXDZG-2289" value="allocation" style="curved=1;endArrow=blockThin;endFill=1;fontSize=11;noEdgeStyle=1;orthogonal=1;" edge="1" parent="1" source="zm_CAH_QlIw9lvDRXDZG-2098" target="zm_CAH_QlIw9lvDRXDZG-2051">
          <mxGeometry relative="1" as="geometry">
            <Array as="points">
              <mxPoint x="718" y="2195.3448275862115"/>
              <mxPoint x="700" y="2160"/>
              <mxPoint x="1100" y="2160"/>
              <mxPoint x="1136" y="1465"/>
            </Array>
          </mxGeometry>
        </mxCell>
        <mxCell id="zm_CAH_QlIw9lvDRXDZG-2290" value="allocation" style="curved=1;endArrow=blockThin;endFill=1;fontSize=11;noEdgeStyle=1;orthogonal=1;" edge="1" parent="1" source="zm_CAH_QlIw9lvDRXDZG-2098" target="zm_CAH_QlIw9lvDRXDZG-2022">
          <mxGeometry relative="1" as="geometry">
            <Array as="points">
              <mxPoint x="682" y="2182.2413793103465"/>
              <mxPoint x="700" y="1230"/>
              <mxPoint x="1100" y="1230"/>
              <mxPoint x="1136" y="805"/>
            </Array>
          </mxGeometry>
        </mxCell>
        <mxCell id="zm_CAH_QlIw9lvDRXDZG-2291" value="allocation" style="curved=1;endArrow=blockThin;endFill=1;fontSize=11;noEdgeStyle=1;orthogonal=1;" edge="1" parent="1" source="zm_CAH_QlIw9lvDRXDZG-2098" target="zm_CAH_QlIw9lvDRXDZG-2062">
          <mxGeometry relative="1" as="geometry">
            <Array as="points">
              <mxPoint x="716" y="2196.0344827586255"/>
              <mxPoint x="700" y="2190"/>
              <mxPoint x="1100" y="2190"/>
              <mxPoint x="1136" y="1535"/>
            </Array>
          </mxGeometry>
        </mxCell>
        <mxCell id="zm_CAH_QlIw9lvDRXDZG-2292" value="allocation" style="curved=1;endArrow=blockThin;endFill=1;fontSize=11;noEdgeStyle=1;orthogonal=1;" edge="1" parent="1" source="zm_CAH_QlIw9lvDRXDZG-2098" target="zm_CAH_QlIw9lvDRXDZG-2065">
          <mxGeometry relative="1" as="geometry">
            <Array as="points">
              <mxPoint x="712" y="2197.4137931034534"/>
              <mxPoint x="700" y="2290"/>
              <mxPoint x="1100" y="2290"/>
              <mxPoint x="1138" y="1855"/>
            </Array>
          </mxGeometry>
        </mxCell>
        <mxCell id="zm_CAH_QlIw9lvDRXDZG-2293" value="allocation" style="curved=1;endArrow=blockThin;endFill=1;fontSize=11;noEdgeStyle=1;orthogonal=1;" edge="1" parent="1" source="zm_CAH_QlIw9lvDRXDZG-2098" target="zm_CAH_QlIw9lvDRXDZG-2023">
          <mxGeometry relative="1" as="geometry">
            <Array as="points">
              <mxPoint x="684" y="2182.9310344827604"/>
              <mxPoint x="700" y="1260"/>
              <mxPoint x="1100" y="1260"/>
              <mxPoint x="1136" y="875"/>
            </Array>
          </mxGeometry>
        </mxCell>
        <mxCell id="zm_CAH_QlIw9lvDRXDZG-2294" value="allocation" style="curved=1;endArrow=blockThin;endFill=1;fontSize=11;noEdgeStyle=1;orthogonal=1;" edge="1" parent="1" source="zm_CAH_QlIw9lvDRXDZG-2098" target="zm_CAH_QlIw9lvDRXDZG-2097">
          <mxGeometry relative="1" as="geometry">
            <Array as="points">
              <mxPoint x="710" y="2198.1034482758673"/>
              <mxPoint x="700" y="2320"/>
              <mxPoint x="1100" y="2320"/>
              <mxPoint x="1138" y="1925"/>
            </Array>
          </mxGeometry>
        </mxCell>
        <mxCell id="zm_CAH_QlIw9lvDRXDZG-2295" value="allocation" style="curved=1;endArrow=blockThin;endFill=1;fontSize=11;noEdgeStyle=1;orthogonal=1;" edge="1" parent="1" source="zm_CAH_QlIw9lvDRXDZG-2098" target="zm_CAH_QlIw9lvDRXDZG-2101">
          <mxGeometry relative="1" as="geometry">
            <Array as="points">
              <mxPoint x="704" y="2200.172413793109"/>
              <mxPoint x="700" y="2490"/>
              <mxPoint x="1100" y="2490"/>
              <mxPoint x="1138" y="1995"/>
            </Array>
          </mxGeometry>
        </mxCell>
        <mxCell id="zm_CAH_QlIw9lvDRXDZG-2296" value="allocation" style="curved=1;endArrow=blockThin;endFill=1;fontSize=11;noEdgeStyle=1;orthogonal=1;" edge="1" parent="1" source="zm_CAH_QlIw9lvDRXDZG-2098" target="zm_CAH_QlIw9lvDRXDZG-2055">
          <mxGeometry relative="1" as="geometry">
            <Array as="points">
              <mxPoint x="666" y="2213.275862068974"/>
              <mxPoint x="700" y="3380"/>
              <mxPoint x="1100" y="3380"/>
              <mxPoint x="1100" y="3380"/>
              <mxPoint x="1510" y="3380"/>
              <mxPoint x="1510" y="2195"/>
              <mxPoint x="1900" y="2195"/>
              <mxPoint x="1938" y="1941"/>
            </Array>
          </mxGeometry>
        </mxCell>
        <mxCell id="zm_CAH_QlIw9lvDRXDZG-2297" value="allocation" style="curved=1;endArrow=blockThin;endFill=1;fontSize=11;noEdgeStyle=1;orthogonal=1;" edge="1" parent="1" source="zm_CAH_QlIw9lvDRXDZG-2098" target="zm_CAH_QlIw9lvDRXDZG-2085">
          <mxGeometry relative="1" as="geometry">
            <Array as="points">
              <mxPoint x="702" y="2200.862068965523"/>
              <mxPoint x="700" y="2520"/>
              <mxPoint x="1100" y="2520"/>
              <mxPoint x="1138" y="2135"/>
            </Array>
          </mxGeometry>
        </mxCell>
        <mxCell id="zm_CAH_QlIw9lvDRXDZG-2298" value="allocation" style="curved=1;endArrow=blockThin;endFill=1;fontSize=11;noEdgeStyle=1;orthogonal=1;" edge="1" parent="1" source="zm_CAH_QlIw9lvDRXDZG-2098" target="zm_CAH_QlIw9lvDRXDZG-2128">
          <mxGeometry relative="1" as="geometry">
            <Array as="points">
              <mxPoint x="700" y="2201.551724137937"/>
              <mxPoint x="700" y="2550"/>
              <mxPoint x="1100" y="2550"/>
              <mxPoint x="1138" y="2205"/>
            </Array>
          </mxGeometry>
        </mxCell>
        <mxCell id="zm_CAH_QlIw9lvDRXDZG-2299" value="allocation" style="curved=1;endArrow=blockThin;endFill=1;fontSize=11;noEdgeStyle=1;orthogonal=1;" edge="1" parent="1" source="zm_CAH_QlIw9lvDRXDZG-2098" target="zm_CAH_QlIw9lvDRXDZG-2030">
          <mxGeometry relative="1" as="geometry">
            <Array as="points">
              <mxPoint x="696" y="2187.068965517244"/>
              <mxPoint x="738" y="1500"/>
            </Array>
          </mxGeometry>
        </mxCell>
        <mxCell id="zm_CAH_QlIw9lvDRXDZG-2300" value="allocation" style="curved=1;endArrow=blockThin;endFill=1;fontSize=11;noEdgeStyle=1;orthogonal=1;" edge="1" parent="1" source="zm_CAH_QlIw9lvDRXDZG-2098" target="zm_CAH_QlIw9lvDRXDZG-2082">
          <mxGeometry relative="1" as="geometry">
            <Array as="points">
              <mxPoint x="670" y="2178.103448275863"/>
              <mxPoint x="738" y="697.5"/>
            </Array>
          </mxGeometry>
        </mxCell>
        <mxCell id="zm_CAH_QlIw9lvDRXDZG-2301" value="allocation" style="curved=1;endArrow=blockThin;endFill=1;fontSize=11;noEdgeStyle=1;orthogonal=1;" edge="1" parent="1" source="zm_CAH_QlIw9lvDRXDZG-2098" target="zm_CAH_QlIw9lvDRXDZG-2059">
          <mxGeometry relative="1" as="geometry">
            <Array as="points">
              <mxPoint x="668" y="2177.413793103449"/>
              <mxPoint x="738" y="597.5"/>
            </Array>
          </mxGeometry>
        </mxCell>
        <mxCell id="zm_CAH_QlIw9lvDRXDZG-2302" value="allocation" style="curved=1;endArrow=blockThin;endFill=1;fontSize=11;noEdgeStyle=1;orthogonal=1;" edge="1" parent="1" source="zm_CAH_QlIw9lvDRXDZG-2098" target="zm_CAH_QlIw9lvDRXDZG-2041">
          <mxGeometry relative="1" as="geometry">
            <Array as="points">
              <mxPoint x="666" y="2176.724137931035"/>
              <mxPoint x="738" y="527.5"/>
            </Array>
          </mxGeometry>
        </mxCell>
        <mxCell id="zm_CAH_QlIw9lvDRXDZG-2303" value="allocation" style="curved=1;endArrow=blockThin;endFill=1;fontSize=11;noEdgeStyle=1;orthogonal=1;" edge="1" parent="1" source="zm_CAH_QlIw9lvDRXDZG-2098" target="zm_CAH_QlIw9lvDRXDZG-2029">
          <mxGeometry relative="1" as="geometry">
            <Array as="points">
              <mxPoint x="664" y="2176.034482758621"/>
              <mxPoint x="738" y="457.5"/>
            </Array>
          </mxGeometry>
        </mxCell>
        <mxCell id="zm_CAH_QlIw9lvDRXDZG-2304" value="allocation" style="curved=1;endArrow=blockThin;endFill=1;fontSize=11;noEdgeStyle=1;orthogonal=1;" edge="1" parent="1" source="zm_CAH_QlIw9lvDRXDZG-2098" target="zm_CAH_QlIw9lvDRXDZG-2114">
          <mxGeometry relative="1" as="geometry">
            <Array as="points">
              <mxPoint x="662" y="2175.344827586207"/>
              <mxPoint x="738" y="387.5"/>
            </Array>
          </mxGeometry>
        </mxCell>
        <mxCell id="zm_CAH_QlIw9lvDRXDZG-2305" value="allocation" style="curved=1;endArrow=blockThin;endFill=1;fontSize=11;noEdgeStyle=1;orthogonal=1;" edge="1" parent="1" source="zm_CAH_QlIw9lvDRXDZG-2098" target="zm_CAH_QlIw9lvDRXDZG-2079">
          <mxGeometry relative="1" as="geometry">
            <Array as="points">
              <mxPoint x="688" y="2205.6896551724208"/>
              <mxPoint x="738" y="2790"/>
            </Array>
          </mxGeometry>
        </mxCell>
        <mxCell id="zm_CAH_QlIw9lvDRXDZG-2306" value="allocation" style="curved=1;endArrow=blockThin;endFill=1;fontSize=11;noEdgeStyle=1;orthogonal=1;" edge="1" parent="1" source="zm_CAH_QlIw9lvDRXDZG-2098" target="zm_CAH_QlIw9lvDRXDZG-2089">
          <mxGeometry relative="1" as="geometry">
            <Array as="points">
              <mxPoint x="686" y="2206.3793103448347"/>
              <mxPoint x="738" y="2860"/>
            </Array>
          </mxGeometry>
        </mxCell>
        <mxCell id="zm_CAH_QlIw9lvDRXDZG-2307" value="allocation" style="curved=1;endArrow=blockThin;endFill=1;fontSize=11;noEdgeStyle=1;orthogonal=1;" edge="1" parent="1" source="zm_CAH_QlIw9lvDRXDZG-2098" target="zm_CAH_QlIw9lvDRXDZG-2068">
          <mxGeometry relative="1" as="geometry">
            <Array as="points">
              <mxPoint x="714" y="2193.2758620689697"/>
              <mxPoint x="738" y="2050"/>
            </Array>
          </mxGeometry>
        </mxCell>
        <mxCell id="zm_CAH_QlIw9lvDRXDZG-2308" value="allocation" style="curved=1;endArrow=blockThin;endFill=1;fontSize=11;noEdgeStyle=1;orthogonal=1;" edge="1" parent="1" source="zm_CAH_QlIw9lvDRXDZG-2098" target="zm_CAH_QlIw9lvDRXDZG-2060">
          <mxGeometry relative="1" as="geometry">
            <Array as="points">
              <mxPoint x="712" y="2192.5862068965557"/>
              <mxPoint x="738" y="1980"/>
            </Array>
          </mxGeometry>
        </mxCell>
        <mxCell id="zm_CAH_QlIw9lvDRXDZG-2309" value="allocation" style="curved=1;endArrow=blockThin;endFill=1;fontSize=11;noEdgeStyle=1;orthogonal=1;" edge="1" parent="1" source="zm_CAH_QlIw9lvDRXDZG-2098" target="zm_CAH_QlIw9lvDRXDZG-2118">
          <mxGeometry relative="1" as="geometry">
            <Array as="points">
              <mxPoint x="684" y="2207.0689655172487"/>
              <mxPoint x="738" y="2930"/>
            </Array>
          </mxGeometry>
        </mxCell>
        <mxCell id="zm_CAH_QlIw9lvDRXDZG-2310" value="allocation" style="curved=1;endArrow=blockThin;endFill=1;fontSize=11;noEdgeStyle=1;orthogonal=1;" edge="1" parent="1" source="zm_CAH_QlIw9lvDRXDZG-2098" target="zm_CAH_QlIw9lvDRXDZG-2053">
          <mxGeometry relative="1" as="geometry">
            <Array as="points">
              <mxPoint x="708" y="2191.206896551728"/>
              <mxPoint x="738" y="1840"/>
            </Array>
          </mxGeometry>
        </mxCell>
        <mxCell id="zm_CAH_QlIw9lvDRXDZG-2311" value="allocation" style="curved=1;endArrow=blockThin;endFill=1;fontSize=11;noEdgeStyle=1;orthogonal=1;" edge="1" parent="1" source="zm_CAH_QlIw9lvDRXDZG-2098" target="zm_CAH_QlIw9lvDRXDZG-2126">
          <mxGeometry relative="1" as="geometry">
            <Array as="points">
              <mxPoint x="682" y="2207.7586206896626"/>
              <mxPoint x="738" y="3000"/>
            </Array>
          </mxGeometry>
        </mxCell>
        <mxCell id="zm_CAH_QlIw9lvDRXDZG-2312" value="allocation" style="curved=1;endArrow=blockThin;endFill=1;fontSize=11;noEdgeStyle=1;orthogonal=1;" edge="1" parent="1" source="zm_CAH_QlIw9lvDRXDZG-2098" target="zm_CAH_QlIw9lvDRXDZG-2092">
          <mxGeometry relative="1" as="geometry">
            <Array as="points">
              <mxPoint x="680" y="2208.4482758620766"/>
              <mxPoint x="738" y="3070"/>
            </Array>
          </mxGeometry>
        </mxCell>
        <mxCell id="zm_CAH_QlIw9lvDRXDZG-2313" value="allocation" style="curved=1;endArrow=blockThin;endFill=1;fontSize=11;noEdgeStyle=1;orthogonal=1;" edge="1" parent="1" source="zm_CAH_QlIw9lvDRXDZG-2098" target="zm_CAH_QlIw9lvDRXDZG-2049">
          <mxGeometry relative="1" as="geometry">
            <Array as="points">
              <mxPoint x="706" y="2190.517241379314"/>
              <mxPoint x="738" y="1770"/>
            </Array>
          </mxGeometry>
        </mxCell>
        <mxCell id="zm_CAH_QlIw9lvDRXDZG-2314" value="allocation" style="curved=1;endArrow=blockThin;endFill=1;fontSize=11;noEdgeStyle=1;orthogonal=1;" edge="1" parent="1" source="zm_CAH_QlIw9lvDRXDZG-2098" target="zm_CAH_QlIw9lvDRXDZG-2127">
          <mxGeometry relative="1" as="geometry">
            <Array as="points">
              <mxPoint x="678" y="2209.1379310344905"/>
              <mxPoint x="738" y="3140"/>
            </Array>
          </mxGeometry>
        </mxCell>
        <mxCell id="zm_CAH_QlIw9lvDRXDZG-2315" value="allocation" style="curved=1;endArrow=blockThin;endFill=1;fontSize=11;noEdgeStyle=1;orthogonal=1;" edge="1" parent="1" source="zm_CAH_QlIw9lvDRXDZG-2098" target="zm_CAH_QlIw9lvDRXDZG-2086">
          <mxGeometry relative="1" as="geometry">
            <Array as="points">
              <mxPoint x="664" y="2213.965517241388"/>
              <mxPoint x="700" y="3410"/>
              <mxPoint x="1100" y="3410"/>
              <mxPoint x="1100" y="3410"/>
              <mxPoint x="1510" y="3410"/>
              <mxPoint x="1548" y="2245"/>
            </Array>
          </mxGeometry>
        </mxCell>
        <mxCell id="zm_CAH_QlIw9lvDRXDZG-2316" value="allocation" style="curved=1;endArrow=blockThin;endFill=1;fontSize=11;noEdgeStyle=1;orthogonal=1;" edge="1" parent="1" source="zm_CAH_QlIw9lvDRXDZG-2098" target="zm_CAH_QlIw9lvDRXDZG-2076">
          <mxGeometry relative="1" as="geometry">
            <Array as="points">
              <mxPoint x="662" y="2214.655172413802"/>
              <mxPoint x="700" y="3440"/>
              <mxPoint x="1100" y="3440"/>
              <mxPoint x="1100" y="3440"/>
              <mxPoint x="1510" y="3440"/>
              <mxPoint x="1548" y="2408.3333333333335"/>
            </Array>
          </mxGeometry>
        </mxCell>
        <mxCell id="zm_CAH_QlIw9lvDRXDZG-2317" value="allocation" style="curved=1;endArrow=blockThin;endFill=1;fontSize=11;noEdgeStyle=1;orthogonal=1;" edge="1" parent="1" source="zm_CAH_QlIw9lvDRXDZG-2098" target="zm_CAH_QlIw9lvDRXDZG-2083">
          <mxGeometry relative="1" as="geometry">
            <Array as="points">
              <mxPoint x="674" y="2179.4827586206907"/>
              <mxPoint x="738" y="867.5"/>
            </Array>
          </mxGeometry>
        </mxCell>
        <mxCell id="zm_CAH_QlIw9lvDRXDZG-2318" value="allocation" style="curved=1;endArrow=blockThin;endFill=1;fontSize=11;noEdgeStyle=1;orthogonal=1;" edge="1" parent="1" source="zm_CAH_QlIw9lvDRXDZG-2098" target="zm_CAH_QlIw9lvDRXDZG-2043">
          <mxGeometry relative="1" as="geometry">
            <Array as="points">
              <mxPoint x="702" y="2189.137931034486"/>
              <mxPoint x="738" y="1670"/>
            </Array>
          </mxGeometry>
        </mxCell>
        <mxCell id="zm_CAH_QlIw9lvDRXDZG-2319" value="allocation" style="curved=1;endArrow=blockThin;endFill=1;fontSize=11;noEdgeStyle=1;orthogonal=1;" edge="1" parent="1" source="zm_CAH_QlIw9lvDRXDZG-2098" target="zm_CAH_QlIw9lvDRXDZG-2021">
          <mxGeometry relative="1" as="geometry">
            <Array as="points">
              <mxPoint x="694" y="2186.37931034483"/>
              <mxPoint x="738" y="1430"/>
            </Array>
          </mxGeometry>
        </mxCell>
        <mxCell id="zm_CAH_QlIw9lvDRXDZG-2320" value="allocation" style="curved=1;endArrow=blockThin;endFill=1;fontSize=11;noEdgeStyle=1;orthogonal=1;" edge="1" parent="1" source="zm_CAH_QlIw9lvDRXDZG-2098" target="zm_CAH_QlIw9lvDRXDZG-2042">
          <mxGeometry relative="1" as="geometry">
            <Array as="points">
              <mxPoint x="678" y="2180.8620689655186"/>
              <mxPoint x="738" y="1030"/>
            </Array>
          </mxGeometry>
        </mxCell>
        <mxCell id="zm_CAH_QlIw9lvDRXDZG-2321" value="allocation" style="curved=1;endArrow=blockThin;endFill=1;fontSize=11;noEdgeStyle=1;orthogonal=1;" edge="1" parent="1" source="zm_CAH_QlIw9lvDRXDZG-2098" target="zm_CAH_QlIw9lvDRXDZG-2058">
          <mxGeometry relative="1" as="geometry">
            <Array as="points">
              <mxPoint x="710" y="2191.896551724142"/>
              <mxPoint x="738" y="1910"/>
            </Array>
          </mxGeometry>
        </mxCell>
        <mxCell id="zm_CAH_QlIw9lvDRXDZG-2322" value="allocation" style="curved=1;endArrow=blockThin;endFill=1;fontSize=11;noEdgeStyle=1;orthogonal=1;" edge="1" parent="1" source="zm_CAH_QlIw9lvDRXDZG-2098" target="zm_CAH_QlIw9lvDRXDZG-2039">
          <mxGeometry relative="1" as="geometry">
            <Array as="points">
              <mxPoint x="698" y="2187.758620689658"/>
              <mxPoint x="738" y="1570"/>
            </Array>
          </mxGeometry>
        </mxCell>
        <mxCell id="zm_CAH_QlIw9lvDRXDZG-2323" value="allocation" style="curved=1;endArrow=blockThin;endFill=1;fontSize=11;noEdgeStyle=1;orthogonal=1;" edge="1" parent="1" source="zm_CAH_QlIw9lvDRXDZG-2098" target="zm_CAH_QlIw9lvDRXDZG-2112">
          <mxGeometry relative="1" as="geometry">
            <Array as="points">
              <mxPoint x="672" y="2211.2068965517324"/>
              <mxPoint x="738" y="3270"/>
            </Array>
          </mxGeometry>
        </mxCell>
        <mxCell id="zm_CAH_QlIw9lvDRXDZG-2324" value="allocation" style="curved=1;endArrow=blockThin;endFill=1;fontSize=11;noEdgeStyle=1;orthogonal=1;" edge="1" parent="1" source="zm_CAH_QlIw9lvDRXDZG-2098" target="zm_CAH_QlIw9lvDRXDZG-2080">
          <mxGeometry relative="1" as="geometry">
            <Array as="points">
              <mxPoint x="698" y="2202.241379310351"/>
              <mxPoint x="700" y="2580"/>
              <mxPoint x="1100" y="2580"/>
              <mxPoint x="1138" y="2275"/>
            </Array>
          </mxGeometry>
        </mxCell>
        <mxCell id="zm_CAH_QlIw9lvDRXDZG-2325" value="allocation" style="curved=1;endArrow=blockThin;endFill=1;fontSize=11;noEdgeStyle=1;orthogonal=1;" edge="1" parent="1" source="zm_CAH_QlIw9lvDRXDZG-2098" target="zm_CAH_QlIw9lvDRXDZG-2026">
          <mxGeometry relative="1" as="geometry">
            <Array as="points">
              <mxPoint x="704" y="2189.8275862069"/>
              <mxPoint x="700" y="1720"/>
              <mxPoint x="1100" y="1720"/>
              <mxPoint x="1136" y="1295"/>
            </Array>
          </mxGeometry>
        </mxCell>
        <mxCell id="zm_CAH_QlIw9lvDRXDZG-2326" value="allocation" style="curved=1;endArrow=blockThin;endFill=1;fontSize=11;noEdgeStyle=1;orthogonal=1;" edge="1" parent="1" source="zm_CAH_QlIw9lvDRXDZG-2098" target="zm_CAH_QlIw9lvDRXDZG-2050">
          <mxGeometry relative="1" as="geometry">
            <Array as="points">
              <mxPoint x="676" y="2180.1724137931046"/>
              <mxPoint x="738" y="967.5"/>
            </Array>
          </mxGeometry>
        </mxCell>
        <mxCell id="zm_CAH_QlIw9lvDRXDZG-2327" value="allocation" style="curved=1;endArrow=blockThin;endFill=1;fontSize=11;noEdgeStyle=1;orthogonal=1;" edge="1" parent="1" source="zm_CAH_QlIw9lvDRXDZG-2098" target="zm_CAH_QlIw9lvDRXDZG-2035">
          <mxGeometry relative="1" as="geometry">
            <Array as="points">
              <mxPoint x="670" y="2211.8965517241463"/>
              <mxPoint x="700" y="3320"/>
              <mxPoint x="1100" y="3320"/>
              <mxPoint x="1138" y="2722.5"/>
            </Array>
          </mxGeometry>
        </mxCell>
        <mxCell id="zm_CAH_QlIw9lvDRXDZG-2328" value="allocation" style="curved=1;endArrow=blockThin;endFill=1;fontSize=11;noEdgeStyle=1;orthogonal=1;" edge="1" parent="1" source="zm_CAH_QlIw9lvDRXDZG-2098" target="zm_CAH_QlIw9lvDRXDZG-2057">
          <mxGeometry relative="1" as="geometry">
            <Array as="points">
              <mxPoint x="668" y="2212.5862068965603"/>
              <mxPoint x="700" y="3350"/>
              <mxPoint x="1100" y="3350"/>
              <mxPoint x="1138" y="2792.5"/>
            </Array>
          </mxGeometry>
        </mxCell>
        <mxCell id="zm_CAH_QlIw9lvDRXDZG-2329" value="allocation" style="curved=1;endArrow=blockThin;endFill=1;fontSize=11;noEdgeStyle=1;orthogonal=1;" edge="1" parent="1" source="zm_CAH_QlIw9lvDRXDZG-2099" target="zm_CAH_QlIw9lvDRXDZG-2070">
          <mxGeometry relative="1" as="geometry">
            <Array as="points">
              <mxPoint x="2242" y="1452.1428571428576"/>
              <mxPoint x="2318" y="1517.5"/>
            </Array>
          </mxGeometry>
        </mxCell>
        <mxCell id="zm_CAH_QlIw9lvDRXDZG-2330" value="allocation" style="curved=1;endArrow=blockThin;endFill=1;fontSize=11;noEdgeStyle=1;orthogonal=1;" edge="1" parent="1" source="zm_CAH_QlIw9lvDRXDZG-2099" target="zm_CAH_QlIw9lvDRXDZG-2036">
          <mxGeometry relative="1" as="geometry">
            <Array as="points">
              <mxPoint x="2242" y="1417.857142857143"/>
              <mxPoint x="2318" y="1097.5"/>
            </Array>
          </mxGeometry>
        </mxCell>
        <mxCell id="zm_CAH_QlIw9lvDRXDZG-2331" value="allocation" style="curved=1;endArrow=blockThin;endFill=1;fontSize=11;noEdgeStyle=1;orthogonal=1;" edge="1" parent="1" source="zm_CAH_QlIw9lvDRXDZG-2099" target="zm_CAH_QlIw9lvDRXDZG-2129">
          <mxGeometry relative="1" as="geometry">
            <Array as="points">
              <mxPoint x="2244" y="1423.5714285714287"/>
              <mxPoint x="2318" y="1167.5"/>
            </Array>
          </mxGeometry>
        </mxCell>
        <mxCell id="zm_CAH_QlIw9lvDRXDZG-2332" value="allocation" style="curved=1;endArrow=blockThin;endFill=1;fontSize=11;noEdgeStyle=1;orthogonal=1;" edge="1" parent="1" source="zm_CAH_QlIw9lvDRXDZG-2099" target="zm_CAH_QlIw9lvDRXDZG-2125">
          <mxGeometry relative="1" as="geometry">
            <Array as="points">
              <mxPoint x="2246" y="1429.2857142857144"/>
              <mxPoint x="2318" y="1237.5"/>
            </Array>
          </mxGeometry>
        </mxCell>
        <mxCell id="zm_CAH_QlIw9lvDRXDZG-2333" value="allocation" style="curved=1;endArrow=blockThin;endFill=1;fontSize=11;noEdgeStyle=1;orthogonal=1;" edge="1" parent="1" source="zm_CAH_QlIw9lvDRXDZG-2099" target="zm_CAH_QlIw9lvDRXDZG-2105">
          <mxGeometry relative="1" as="geometry">
            <Array as="points">
              <mxPoint x="2248" y="1435.0000000000002"/>
              <mxPoint x="2318" y="1307.5"/>
            </Array>
          </mxGeometry>
        </mxCell>
        <mxCell id="zm_CAH_QlIw9lvDRXDZG-2334" value="allocation" style="curved=1;endArrow=blockThin;endFill=1;fontSize=11;noEdgeStyle=1;orthogonal=1;" edge="1" parent="1" source="zm_CAH_QlIw9lvDRXDZG-2099" target="zm_CAH_QlIw9lvDRXDZG-2038">
          <mxGeometry relative="1" as="geometry">
            <Array as="points">
              <mxPoint x="2246" y="1440.714285714286"/>
              <mxPoint x="2318" y="1377.5"/>
            </Array>
          </mxGeometry>
        </mxCell>
        <mxCell id="zm_CAH_QlIw9lvDRXDZG-2335" value="allocation" style="curved=1;endArrow=blockThin;endFill=1;fontSize=11;noEdgeStyle=1;orthogonal=1;" edge="1" parent="1" source="zm_CAH_QlIw9lvDRXDZG-2099" target="zm_CAH_QlIw9lvDRXDZG-2067">
          <mxGeometry relative="1" as="geometry">
            <Array as="points">
              <mxPoint x="2244" y="1446.4285714285718"/>
              <mxPoint x="2318" y="1447.5"/>
            </Array>
          </mxGeometry>
        </mxCell>
        <mxCell id="zm_CAH_QlIw9lvDRXDZG-2336" value="allocation" style="curved=1;endArrow=blockThin;endFill=1;fontSize=11;noEdgeStyle=1;orthogonal=1;" edge="1" parent="1" source="zm_CAH_QlIw9lvDRXDZG-2102" target="zm_CAH_QlIw9lvDRXDZG-2024">
          <mxGeometry relative="1" as="geometry">
            <Array as="points">
              <mxPoint x="2752" y="1005"/>
              <mxPoint x="2828" y="1227.2222222222222"/>
            </Array>
          </mxGeometry>
        </mxCell>
        <mxCell id="zm_CAH_QlIw9lvDRXDZG-2337" value="allocation" style="curved=1;endArrow=blockThin;endFill=1;fontSize=11;noEdgeStyle=1;orthogonal=1;" edge="1" parent="1" source="zm_CAH_QlIw9lvDRXDZG-2105" target="zm_CAH_QlIw9lvDRXDZG-2084">
          <mxGeometry relative="1" as="geometry">
            <Array as="points">
              <mxPoint x="2752" y="1322.5"/>
              <mxPoint x="2822" y="1315.0000000000002"/>
            </Array>
          </mxGeometry>
        </mxCell>
        <mxCell id="zm_CAH_QlIw9lvDRXDZG-2338" value="allocation" style="curved=1;endArrow=blockThin;endFill=1;fontSize=11;noEdgeStyle=1;orthogonal=1;" edge="1" parent="1" source="zm_CAH_QlIw9lvDRXDZG-2105" target="zm_CAH_QlIw9lvDRXDZG-2024">
          <mxGeometry relative="1" as="geometry">
            <Array as="points">
              <mxPoint x="2752" y="1307.5"/>
              <mxPoint x="2822" y="1249.444444444444"/>
            </Array>
          </mxGeometry>
        </mxCell>
        <mxCell id="zm_CAH_QlIw9lvDRXDZG-2339" value="allocation" style="curved=1;endArrow=blockThin;endFill=1;fontSize=11;noEdgeStyle=1;orthogonal=1;" edge="1" parent="1" source="zm_CAH_QlIw9lvDRXDZG-2107" target="zm_CAH_QlIw9lvDRXDZG-2090">
          <mxGeometry relative="1" as="geometry">
            <Array as="points">
              <mxPoint x="1062" y="2710"/>
              <mxPoint x="1138" y="2515"/>
            </Array>
          </mxGeometry>
        </mxCell>
        <mxCell id="zm_CAH_QlIw9lvDRXDZG-2340" value="allocation" style="curved=1;endArrow=blockThin;endFill=1;fontSize=11;noEdgeStyle=1;orthogonal=1;" edge="1" parent="1" source="zm_CAH_QlIw9lvDRXDZG-2107" target="zm_CAH_QlIw9lvDRXDZG-2106">
          <mxGeometry relative="1" as="geometry">
            <Array as="points">
              <mxPoint x="1062" y="2730"/>
              <mxPoint x="1100" y="2935"/>
              <mxPoint x="1510" y="2935"/>
              <mxPoint x="1510" y="2165"/>
              <mxPoint x="1900" y="2165"/>
              <mxPoint x="1934" y="2140.714285714286"/>
            </Array>
          </mxGeometry>
        </mxCell>
        <mxCell id="zm_CAH_QlIw9lvDRXDZG-2341" value="allocation" style="curved=1;endArrow=blockThin;endFill=1;fontSize=11;noEdgeStyle=1;orthogonal=1;" edge="1" parent="1" source="zm_CAH_QlIw9lvDRXDZG-2107" target="zm_CAH_QlIw9lvDRXDZG-2045">
          <mxGeometry relative="1" as="geometry">
            <Array as="points">
              <mxPoint x="1064" y="2720"/>
              <mxPoint x="1100" y="2905"/>
              <mxPoint x="1510" y="2905"/>
              <mxPoint x="1510" y="2135"/>
              <mxPoint x="1900" y="2135"/>
              <mxPoint x="1938" y="1801"/>
            </Array>
          </mxGeometry>
        </mxCell>
        <mxCell id="zm_CAH_QlIw9lvDRXDZG-2342" value="allocation" style="curved=1;endArrow=blockThin;endFill=1;fontSize=11;noEdgeStyle=1;orthogonal=1;" edge="1" parent="1" source="zm_CAH_QlIw9lvDRXDZG-2125" target="zm_CAH_QlIw9lvDRXDZG-2084">
          <mxGeometry relative="1" as="geometry">
            <Array as="points">
              <mxPoint x="2752" y="1252.5"/>
              <mxPoint x="2824" y="1309.2857142857144"/>
            </Array>
          </mxGeometry>
        </mxCell>
        <mxCell id="zm_CAH_QlIw9lvDRXDZG-2343" value="allocation" style="curved=1;endArrow=blockThin;endFill=1;fontSize=11;noEdgeStyle=1;orthogonal=1;" edge="1" parent="1" source="zm_CAH_QlIw9lvDRXDZG-2125" target="zm_CAH_QlIw9lvDRXDZG-2024">
          <mxGeometry relative="1" as="geometry">
            <Array as="points">
              <mxPoint x="2752" y="1237.5"/>
              <mxPoint x="2820" y="1244.9999999999995"/>
            </Array>
          </mxGeometry>
        </mxCell>
        <mxCell id="zm_CAH_QlIw9lvDRXDZG-2344" value="allocation" style="curved=1;endArrow=blockThin;endFill=1;fontSize=11;noEdgeStyle=1;orthogonal=1;" edge="1" parent="1" source="zm_CAH_QlIw9lvDRXDZG-2129" target="zm_CAH_QlIw9lvDRXDZG-2084">
          <mxGeometry relative="1" as="geometry">
            <Array as="points">
              <mxPoint x="2752" y="1182.5"/>
              <mxPoint x="2826" y="1303.5714285714287"/>
            </Array>
          </mxGeometry>
        </mxCell>
        <mxCell id="zm_CAH_QlIw9lvDRXDZG-2345" value="allocation" style="curved=1;endArrow=blockThin;endFill=1;fontSize=11;noEdgeStyle=1;orthogonal=1;" edge="1" parent="1" source="zm_CAH_QlIw9lvDRXDZG-2129" target="zm_CAH_QlIw9lvDRXDZG-2024">
          <mxGeometry relative="1" as="geometry">
            <Array as="points">
              <mxPoint x="2752" y="1167.5"/>
              <mxPoint x="2822" y="1240.5555555555552"/>
            </Array>
          </mxGeometry>
        </mxCell>
      </root>
    </mxGraphModel>
  </diagram>
</mxfile>
